<svg width="40" height="41" viewBox="0 0 40 41" fill="none" xmlns="http://www.w3.org/2000/svg">
<g clip-path="url(#clip0_639_656)">
<path d="M30.8391 25.8111L30.9598 25.7628L32.3401 18.7165C32.469 18.0524 32.4208 17.3662 32.2005 16.7267C31.9801 16.0871 31.5954 15.5168 31.0848 15.0731C30.5743 14.6294 29.956 14.3278 29.292 14.1987C28.628 14.0696 27.9417 14.1175 27.3021 14.3376L20.5043 16.6771L20.487 16.7738L15.832 12.7054V12.626L37.6887 5.10352L40.0007 7.11525L35.5941 29.8898L34.3381 28.8753L30.8391 25.8111Z" fill="url(#paint0_linear_639_656)"/>
<path d="M22.8163 19.2608L22.906 19.3574L21.1807 26.3278C21.0195 26.9846 20.6884 27.5875 20.2206 28.0759C19.7527 28.5642 19.1646 28.9209 18.5153 29.1101C17.866 29.2992 17.1784 29.3142 16.5214 29.1535C15.8645 28.9929 15.2614 28.6622 14.7727 28.1946L9.59669 23.2291L9.62086 23.1325L3.68912 24.8578L3.67188 24.9372L20.3594 40.9277L23.3063 40.0719L28.8446 17.5527L27.2815 17.9358L22.8163 19.2608Z" fill="url(#paint1_linear_639_656)"/>
<path d="M21.4633 6.13879L21.3632 6.05595L14.5239 8.23679C13.8801 8.44256 13.3016 8.81405 12.8467 9.314C12.3917 9.8139 12.0762 10.4247 11.9318 11.085C11.7874 11.7454 11.8192 12.4321 12.0241 13.0763C12.2289 13.7205 12.5996 14.2994 13.0988 14.7551L18.406 19.5861L18.4991 19.5551L17.1672 25.5938L17.0878 25.6179L0 10.0553L0.655639 7.06012L22.74 0L22.464 1.58388L21.4633 6.13879Z" fill="url(#paint2_linear_639_656)"/>
</g>
<defs>
<linearGradient id="paint0_linear_639_656" x1="40.9737" y1="19.7862" x2="18.4132" y2="7.79158" gradientUnits="userSpaceOnUse">
<stop offset="0.16" stop-color="#3F59A8"/>
<stop offset="1" stop-color="#70C492"/>
</linearGradient>
<linearGradient id="paint1_linear_639_656" x1="29.0793" y1="31.6315" x2="7.48143" y2="20.1476" gradientUnits="userSpaceOnUse">
<stop offset="0.22" stop-color="#3F59A8"/>
<stop offset="1" stop-color="#70C492"/>
</linearGradient>
<linearGradient id="paint2_linear_639_656" x1="28.0921" y1="17.1603" x2="-2.14287" y2="1.08351" gradientUnits="userSpaceOnUse">
<stop stop-color="#3F59A8"/>
<stop offset="0.54" stop-color="#70C492"/>
</linearGradient>
<clipPath id="clip0_639_656">
<rect width="40.0007" height="41" fill="white"/>
</clipPath>
</defs>
</svg>
