<svg width="136" height="34" viewBox="0 0 136 34" fill="none" xmlns="http://www.w3.org/2000/svg">
<path d="M42.7023 18.3677C43.75 18.3677 44.7745 18.5556 45.7524 18.9549V18.1798C45.7524 16.6296 44.8677 15.4082 43.1912 15.4082C42.0503 15.4082 41.0491 16.0424 40.63 17.0993L38.1154 16.5356C38.7441 14.3278 41.0491 13.1534 43.2611 13.1534C46.3113 13.1534 48.4766 15.1969 48.4766 18.3207V25.8367H45.9853L45.8921 24.2161C45.1238 25.5784 43.5871 26.189 42.0736 26.189C39.7918 26.189 37.673 24.7798 37.673 22.3136C37.6497 19.5655 40.2109 18.3677 42.7023 18.3677ZM42.679 24.0047C44.3554 24.0047 45.7524 22.8538 45.7524 21.1392V20.8574C45.3566 20.6929 44.9142 20.552 44.4951 20.4346C44.0527 20.3406 43.5871 20.2937 43.1447 20.2937C41.9572 20.2937 40.3972 20.7634 40.3972 22.1961C40.3972 23.4175 41.5614 24.0047 42.679 24.0047Z" fill="white"/>
<path d="M51.1077 10.0531C51.1077 9.74776 51.1775 9.48939 51.3405 9.23103C51.4802 8.97267 51.6665 8.78477 51.9459 8.62035C52.202 8.47943 52.4581 8.40897 52.7841 8.40897C53.1101 8.40897 53.3662 8.47943 53.6223 8.62035C53.8784 8.78477 54.0647 8.97267 54.251 9.23103C54.3907 9.48939 54.4605 9.74776 54.4605 10.0531C54.4605 10.3584 54.3907 10.6168 54.251 10.8752C54.088 11.1335 53.9017 11.3214 53.6223 11.4623C53.3662 11.6268 53.1101 11.6972 52.7841 11.6972C52.4581 11.6972 52.202 11.6268 51.9459 11.4623C51.6898 11.3214 51.5035 11.1335 51.3405 10.8752C51.1775 10.6168 51.1077 10.3584 51.1077 10.0531ZM51.4104 25.8132V13.4823H54.1579V25.8132H51.4104Z" fill="white"/>
<path d="M59.6062 13.5058L59.7227 15.5257C60.328 14.1634 61.4922 13.3414 63.0289 13.3414C63.448 13.3414 63.9137 13.3883 64.3095 13.5528L64.0069 16.2068C63.6576 16.0659 63.2851 16.0424 62.8892 16.0424C60.7471 16.0424 59.8391 17.6631 59.8391 19.6125V25.8602H57.0916V13.5058H59.6062Z" fill="white"/>
<path d="M71.5973 13.1534C74.0188 13.1534 76.2075 14.4687 76.906 16.8645L74.3215 17.4752C73.8326 16.3477 72.8546 15.5961 71.574 15.5961C69.3854 15.5961 68.2212 17.7805 68.2212 19.73C68.2212 21.6794 69.3388 23.7463 71.574 23.7463C72.8546 23.7463 73.949 23.0652 74.4845 21.8908L77.0457 22.478C76.3705 24.8268 73.949 26.189 71.574 26.189C67.9651 26.189 65.4272 23.3235 65.4272 19.7534C65.4272 16.1833 67.8719 13.1534 71.5973 13.1534Z" fill="white"/>
<path d="M79.281 8.29153H82.0051V14.9855C82.8434 13.7641 84.1938 13.1535 85.6607 13.1535C88.7574 13.1535 90.2709 15.5962 90.2709 18.5086V25.8367H87.5467V18.7905C87.5467 17.1229 86.8714 15.5962 84.9855 15.5962C83.2392 15.5962 82.0051 16.9115 82.0051 18.673V25.8367H79.2577L79.281 8.29153Z" fill="white"/>
<path d="M97.6983 18.3677C98.7461 18.3677 99.7706 18.5556 100.749 18.9549V18.1798C100.749 16.6296 99.8637 15.4082 98.1873 15.4082C97.0464 15.4082 96.0452 16.0424 95.6261 17.0993L93.1115 16.5356C93.7401 14.3278 96.0452 13.1534 98.2572 13.1534C101.307 13.1534 103.473 15.1969 103.473 18.3207V25.8367H100.981L100.888 24.2161C100.12 25.5784 98.5831 26.189 97.0697 26.189C94.7879 26.189 92.6691 24.7798 92.6691 22.3136C92.6458 19.5655 95.207 18.3677 97.6983 18.3677ZM97.6751 24.0047C99.3515 24.0047 100.749 22.8538 100.749 21.1392V20.8574C100.353 20.6929 99.9103 20.552 99.4912 20.4346C99.0488 20.3406 98.5831 20.2937 98.1407 20.2937C96.9533 20.2937 95.3933 20.7634 95.3933 22.1961C95.3933 23.4175 96.5574 24.0047 97.6751 24.0047Z" fill="white"/>
<path d="M106.104 10.0531C106.104 9.74776 106.174 9.48939 106.337 9.23103C106.476 8.97267 106.663 8.78477 106.942 8.62035C107.221 8.47943 107.454 8.40897 107.78 8.40897C108.083 8.40897 108.362 8.47943 108.618 8.62035C108.898 8.78477 109.061 8.97267 109.247 9.23103C109.387 9.48939 109.457 9.74776 109.457 10.0531C109.457 10.3584 109.387 10.6168 109.247 10.8752C109.084 11.1335 108.898 11.3214 108.618 11.4623C108.339 11.6268 108.106 11.6972 107.78 11.6972C107.478 11.6972 107.198 11.6268 106.942 11.4623C106.663 11.3214 106.5 11.1335 106.337 10.8752C106.174 10.6168 106.104 10.3584 106.104 10.0531ZM106.406 25.8132V13.4823H109.154V25.8132H106.406Z" fill="white"/>
<path d="M114.579 13.5058L114.672 15.1969C115.417 13.8346 116.931 13.1534 118.467 13.1534C121.564 13.1534 123.078 15.5961 123.078 18.5086V25.8367H120.33V18.7905C120.33 17.1228 119.655 15.5961 117.769 15.5961C116.023 15.5961 114.789 16.9114 114.789 18.673V25.8367H112.041V13.5058H114.579Z" fill="white"/>
<path d="M127.734 22.2431C128.153 23.3471 129.131 23.9342 130.319 23.9342C131.273 23.9342 132.438 23.488 132.438 22.3841C132.438 21.2802 131.297 20.9513 130.412 20.8104L129.644 20.6695C127.618 20.3172 125.615 19.3542 125.615 17.0289C125.615 14.4923 127.851 13.13 130.249 13.13C132.414 13.13 134.37 14.2339 134.976 16.3713L132.531 16.9819C132.135 15.9485 131.343 15.3613 130.226 15.3613C129.341 15.3613 128.293 15.8076 128.293 16.8175C128.293 17.8275 129.644 18.1328 130.435 18.2737L131.204 18.4147C133.229 18.7435 135.162 19.8474 135.162 22.1022C135.162 24.7563 132.787 26.1656 130.296 26.1656C128.084 26.1656 125.941 25.0616 125.243 22.8773L127.734 22.2431Z" fill="white"/>
<path d="M27.1255 22.6659C27.1255 22.6659 27.6377 24.6623 27.7541 26.7058C27.8706 29.1954 27.5446 31.92 27.5446 31.92C27.5446 31.92 27.8938 31.967 28.1965 31.6851C30.9673 29.4773 30.8742 23.5115 29.7565 20.1527C29.7333 20.1527 28.1034 21.9378 27.1255 22.6659Z" fill="url(#paint0_linear_17_178)"/>
<path d="M17.0436 19.636C20.6992 16.6766 23.4467 14.7036 23.4467 14.7036L22.8413 13.4823C22.8413 13.4823 20.5362 15.0794 18.2311 16.9584C15.926 18.8139 12.806 21.515 12.806 21.515C12.806 21.515 13.2018 21.7734 13.3881 21.9848C13.5744 22.1961 13.7606 22.525 13.7606 22.525C13.7606 22.525 15.4604 20.9278 17.0436 19.636Z" fill="url(#paint1_linear_17_178)"/>
<path d="M30.3154 18.7905C34.1804 14.3748 34.8091 11.5798 33.8079 10.335C33.2491 9.63033 31.3165 9.37196 29.6168 9.88869C27.9637 10.4054 26.2407 11.4624 26.2407 11.4624L26.7995 12.5898C34.9721 7.96271 33.9243 12.9186 29.3142 17.1463C29.3142 17.1463 15.1577 31.1684 9.33675 27.6453C3.51583 24.0987 9.56959 11.4389 12.2705 7.39901C18.6968 -1.73765 25.8216 19.683 25.8915 19.4951C25.8915 19.4951 28.3828 17.2168 28.4527 17.1698C27.2419 14.868 21.1649 -1.38533 13.3183 2.41965C10.7338 3.68798 8.28899 8.05666 8.28899 8.05666C8.28899 8.05666 -3.09674 27.4104 4.79643 31.873C12.6663 36.3591 26.427 23.2061 30.3154 18.7905Z" fill="url(#paint2_linear_17_178)"/>
<path d="M11.735 21.609C9.08063 21.7029 9.08063 25.5549 11.735 25.6488C12.8526 25.6488 13.7374 24.7328 13.7374 23.6289C13.7374 22.525 12.8293 21.609 11.735 21.609Z" fill="url(#paint3_linear_17_178)"/>
<defs>
<linearGradient id="paint0_linear_17_178" x1="28.7921" y1="31.9164" x2="28.7921" y2="20.1536" gradientUnits="userSpaceOnUse">
<stop stop-color="#4E4BFC"/>
<stop offset="1" stop-color="#9D6CE7"/>
</linearGradient>
<linearGradient id="paint1_linear_17_178" x1="18.126" y1="22.5326" x2="18.126" y2="13.4761" gradientUnits="userSpaceOnUse">
<stop stop-color="#4E4BFC"/>
<stop offset="1" stop-color="#9D6CE7"/>
</linearGradient>
<linearGradient id="paint2_linear_17_178" x1="18.1178" y1="32.7966" x2="18.1178" y2="1.87878" gradientUnits="userSpaceOnUse">
<stop stop-color="#4E4BFC"/>
<stop offset="1" stop-color="#9D6CE7"/>
</linearGradient>
<linearGradient id="paint3_linear_17_178" x1="11.7349" y1="25.6363" x2="11.7349" y2="21.6031" gradientUnits="userSpaceOnUse">
<stop stop-color="#4E4BFC"/>
<stop offset="1" stop-color="#9D6CE7"/>
</linearGradient>
</defs>
</svg>
