<svg width="1366" height="534" viewBox="0 0 1366 534" fill="none" xmlns="http://www.w3.org/2000/svg">
<g clip-path="url(#clip0_0_1758)">
<rect width="1366" height="534" rx="25" fill="#02070E"/>
<mask id="mask0_0_1758" style="mask-type:luminance" maskUnits="userSpaceOnUse" x="584" y="-443" width="835" height="1088">
<path d="M1280.99 -429.661C1248.37 -416.841 1227.04 -393.965 1213.38 -365.468C1183.32 -302.759 1189.88 -212.683 1194.98 -142.717C1196.9 -116.281 1198.62 -92.6816 1198.09 -74.4064C1196.19 -8.26748 1184.86 54.4582 1129.28 121.686C1073.94 188.635 974.659 259.97 796.861 343.507C565.058 452.416 588.315 570.087 631.182 637.735L626.889 640.214C582.708 570.925 558.191 450.338 794.809 339.165C971.918 255.955 1070.68 185.059 1125.58 118.642C1180.26 52.5073 1191.4 -9.30741 1193.28 -74.5127C1193.8 -92.5931 1192.1 -116.059 1190.18 -142.352C1185.04 -212.869 1178.43 -303.649 1209.04 -367.509C1223.15 -396.936 1245.08 -420.606 1278.53 -433.912L1280.99 -429.656L1280.99 -429.661ZM1286.14 -420.736C1258.34 -407.453 1239.59 -386.192 1227.17 -360.293C1197.11 -297.581 1203.67 -207.508 1208.77 -137.542C1210.7 -111.106 1212.41 -87.5089 1211.89 -69.2314C1209.98 -3.09249 1198.66 59.6331 1143.08 126.861C1087.73 193.81 988.453 265.145 810.654 348.679C589.647 452.515 600.501 564.315 639.142 633.137L634.817 635.633C594.822 565.164 582.728 450.464 808.601 344.338C985.711 261.127 1084.47 190.231 1139.38 123.815C1194.05 57.6775 1205.2 -4.13483 1207.07 -69.3401C1207.6 -87.4205 1205.89 -110.887 1203.97 -137.179C1198.83 -207.696 1192.22 -298.476 1222.83 -362.339C1235.69 -389.161 1255.04 -411.197 1283.7 -424.967L1286.14 -420.737L1286.14 -420.736ZM1291.64 -411.211C1268.34 -397.853 1252.11 -378.354 1240.97 -355.118C1210.9 -292.409 1217.47 -202.335 1222.56 -132.367C1224.49 -105.932 1226.21 -82.3316 1225.68 -64.0566C1223.78 2.08243 1212.45 64.8081 1156.87 132.036C1101.53 198.985 1002.25 270.32 824.449 353.856C613.934 452.764 613.793 558.896 647.649 628.228L643.271 630.756C608.018 559.749 606.966 450.731 822.4 349.516C999.508 266.303 1098.27 195.41 1153.17 128.991C1207.85 62.8558 1218.99 1.04113 1220.87 -64.1642C1221.39 -82.2432 1219.69 -105.711 1217.77 -132.003C1212.63 -202.52 1206.02 -293.301 1236.63 -357.163C1248.21 -381.313 1265.05 -401.579 1289.21 -415.431L1291.64 -411.211ZM1297.5 -401.066C1278.38 -388.031 1264.59 -370.445 1254.76 -349.942C1224.7 -287.232 1231.26 -197.157 1236.36 -127.191C1238.28 -100.756 1240 -77.1554 1239.47 -58.8802C1237.57 7.25871 1226.24 69.9844 1170.66 137.212C1115.32 204.161 1016.04 275.497 838.241 359.033C638.016 453.105 628.112 553.705 656.748 622.972L652.287 625.547C622.204 554.572 631.007 451.093 836.191 354.69C1013.3 271.479 1112.06 200.584 1166.97 134.165C1221.64 68.0297 1232.79 6.21506 1234.66 -58.9902C1235.18 -77.073 1233.47 -100.539 1231.56 -126.829C1226.42 -197.346 1219.81 -288.127 1250.42 -351.989C1260.68 -373.399 1275.09 -391.756 1295.05 -405.297L1297.5 -401.067L1297.5 -401.066ZM1303.73 -390.28C1288.47 -377.983 1277.03 -362.455 1268.55 -344.764C1238.49 -282.053 1245.05 -191.98 1250.15 -122.013C1252.08 -95.5784 1253.79 -71.978 1253.27 -53.7029C1251.36 12.4361 1240.04 75.1617 1184.46 142.389C1129.12 209.337 1029.83 280.674 852.036 364.21C661.996 453.499 643.411 548.674 666.495 617.348L661.922 619.988C637.341 549.555 654.929 451.511 849.986 359.868C1027.1 276.657 1125.86 205.761 1180.76 139.344C1235.44 73.2071 1246.58 11.3948 1248.46 -53.8105C1248.98 -71.8909 1247.27 -95.3572 1245.35 -121.65C1240.22 -192.166 1233.6 -282.947 1264.22 -346.807C1273.13 -365.405 1285.17 -381.697 1301.27 -394.534L1303.73 -390.276L1303.73 -390.28ZM1310.34 -378.823C1298.6 -367.673 1289.44 -354.39 1282.35 -339.592C1252.28 -276.882 1258.84 -186.807 1263.94 -116.841C1265.87 -90.4044 1267.59 -66.8078 1267.06 -48.5304C1265.16 17.6086 1253.83 80.3343 1198.25 147.562C1142.91 214.511 1043.63 285.847 865.828 369.383C685.934 453.902 659.673 543.698 676.962 611.301L672.248 614.023C653.418 544.608 678.811 451.943 863.778 365.04C1040.89 281.829 1139.65 210.933 1194.55 144.515C1249.23 78.3797 1260.37 16.565 1262.25 -48.6403C1262.77 -66.7207 1261.06 -90.187 1259.15 -116.479C1254.01 -186.996 1247.4 -277.777 1278.01 -341.639C1285.54 -357.347 1295.3 -371.412 1307.85 -383.139L1310.34 -378.824L1310.34 -378.823ZM1317.36 -366.666C1308.8 -357.094 1301.81 -346.238 1296.14 -334.417C1266.08 -271.707 1272.64 -181.634 1277.74 -111.666C1279.67 -85.2309 1281.38 -61.6305 1280.86 -43.3554C1278.95 22.7836 1267.62 85.5093 1212.04 152.737C1156.7 219.686 1057.42 291.022 879.622 374.558C709.92 454.289 676.929 538.719 688.249 604.785L683.386 607.592C670.487 539.655 702.723 452.367 877.57 370.217C1054.68 287.006 1153.44 216.11 1208.35 149.693C1263.02 83.5583 1274.17 21.7436 1276.04 -43.4616C1276.56 -61.5407 1274.86 -85.0107 1272.94 -111.301C1267.8 -181.818 1261.19 -272.598 1291.8 -336.461C1297.91 -349.197 1305.48 -360.853 1314.82 -371.06L1317.36 -366.665L1317.36 -366.666ZM1324.8 -353.781C1319.05 -346.216 1314.13 -337.996 1309.93 -329.242C1279.87 -266.533 1286.43 -176.459 1291.53 -106.491C1293.46 -80.0559 1295.18 -56.4556 1294.65 -38.1805C1292.74 27.9585 1281.42 90.6842 1225.84 157.912C1170.5 224.861 1071.21 296.196 893.416 379.733C734.028 454.62 695.233 533.655 700.484 597.721L695.415 600.647C688.559 534.631 726.747 452.733 891.366 375.39C1068.48 292.179 1167.24 221.283 1222.14 154.867C1276.82 88.7319 1287.96 26.9172 1289.84 -38.288C1290.36 -56.3684 1288.65 -79.8348 1286.74 -106.127C1281.6 -176.644 1274.98 -267.424 1305.6 -331.285C1310.24 -340.965 1315.73 -350.02 1322.19 -358.292L1324.8 -353.781ZM1332.68 -340.139C1329.38 -335.016 1326.4 -329.653 1323.73 -324.067C1293.67 -261.355 1300.23 -171.282 1305.33 -101.316C1307.25 -74.8796 1308.97 -51.283 1308.44 -33.0055C1306.54 33.1335 1295.21 95.8592 1239.63 163.087C1184.29 230.035 1085.01 301.371 907.209 384.905C758.349 454.845 714.692 528.401 713.848 590.002L708.474 593.105C707.7 529.455 750.953 453.015 905.159 380.563C1082.27 297.352 1181.03 226.456 1235.93 160.039C1290.61 93.9021 1301.75 32.0898 1303.63 -33.1155C1304.15 -51.1958 1302.45 -74.6621 1300.53 -100.955C1295.39 -171.471 1288.78 -262.252 1319.39 -326.114C1322.52 -332.644 1326.04 -338.896 1329.98 -344.807L1332.67 -340.142L1332.68 -340.139ZM1341 -325.715C1339.79 -323.479 1338.63 -321.203 1337.52 -318.888C1307.46 -256.179 1314.02 -166.104 1319.12 -96.1373C1321.04 -69.701 1322.76 -46.102 1322.24 -27.8268C1320.33 38.3121 1309 101.038 1253.43 168.265C1198.08 235.215 1098.8 306.55 921.003 390.086C782.996 454.926 735.415 522.876 728.537 581.527L722.766 584.859C728.038 524.049 775.449 453.168 918.954 385.746C1096.06 302.533 1194.82 231.639 1249.73 165.22C1304.4 99.0856 1315.55 37.2709 1317.43 -27.9344C1317.95 -46.0148 1316.24 -69.4811 1314.32 -95.7736C1309.18 -166.29 1302.57 -257.071 1333.18 -320.933C1334.76 -324.215 1336.43 -327.425 1338.21 -330.556L1341 -325.714L1341 -325.715ZM1349.81 -310.468C1321.48 -247.927 1327.9 -159.732 1332.91 -90.9624C1334.84 -64.5273 1336.56 -40.927 1336.03 -22.6518C1334.12 43.4871 1322.8 106.213 1267.22 173.44C1211.88 240.389 1112.59 311.725 934.797 395.261C808.103 454.787 757.615 516.931 744.863 572.098L738.572 575.731C749.762 518.263 800.356 453.119 932.745 390.92C1109.85 307.709 1208.61 236.813 1263.52 170.397C1318.2 104.262 1329.34 42.4472 1331.22 -22.7581C1331.74 -40.8395 1330.03 -64.3072 1328.11 -90.5973C1322.98 -161.034 1316.38 -251.686 1346.88 -315.538L1349.8 -310.467L1349.81 -310.468ZM1359.1 -294.373C1336 -232.773 1341.98 -150.644 1346.71 -85.7874C1348.63 -59.3524 1350.35 -35.752 1349.82 -17.4769C1347.92 48.662 1336.59 111.388 1281.01 178.615C1225.67 245.564 1126.39 316.9 948.591 400.436C833.881 454.332 781.652 510.37 763.33 561.436L756.299 565.496C773.158 511.945 825.853 452.798 946.543 396.092C1123.65 312.881 1222.41 241.986 1277.32 175.569C1331.99 109.432 1343.14 47.6194 1345.02 -17.5859C1345.54 -35.6662 1343.83 -59.1326 1341.91 -85.4251C1337.06 -152.027 1330.9 -236.703 1356.02 -299.705L1359.1 -294.372L1359.1 -294.373ZM1368.89 -277.409C1350.54 -217.392 1356.07 -141.41 1360.5 -80.6101C1362.43 -54.1738 1364.14 -30.5771 1363.62 -12.2996C1361.72 53.838 1350.39 116.565 1294.81 183.793C1239.47 250.74 1140.18 322.077 962.385 405.611C860.668 453.401 808.123 502.876 784.738 549.076L776.542 553.809C798.646 504.855 852.185 452.08 960.335 401.269C1137.44 318.058 1236.2 247.162 1291.11 180.743C1345.78 114.608 1356.93 52.7934 1358.81 -12.4119C1359.33 -30.4923 1357.62 -53.9586 1355.7 -80.2511C1351.14 -142.882 1345.41 -221.499 1365.64 -283.041L1368.89 -277.411L1368.89 -277.409ZM1379.21 -259.545C1365.09 -201.767 1370.17 -132.024 1374.29 -75.4351C1376.22 -48.9988 1377.94 -25.3998 1377.41 -7.12467C1375.51 59.0143 1364.18 121.74 1308.6 188.967C1253.26 255.917 1153.98 327.252 976.18 410.788C888.98 451.758 837.902 493.968 810.356 534.289L800.386 540.045C827.014 496.578 879.803 450.764 974.13 406.446C1151.24 323.235 1250 252.339 1304.91 185.922C1359.58 119.788 1370.73 57.973 1372.6 -7.23227C1373.13 -25.3126 1371.42 -48.7813 1369.5 -75.0715C1365.23 -133.581 1359.96 -206.039 1375.77 -265.498L1379.21 -259.545ZM1390.06 -240.749C1379.67 -185.873 1384.28 -122.471 1388.09 -70.2588C1390.01 -43.8225 1391.73 -20.2235 1391.2 -1.94837C1389.3 64.1906 1377.97 126.916 1322.39 194.144C1267.05 261.093 1167.77 332.429 989.972 415.965C920.206 448.744 873.606 482.313 843.631 515.078L830.013 522.941C859.867 486.27 909.581 448.429 987.921 411.622C1165.03 328.411 1263.79 257.515 1318.7 191.096C1373.37 124.962 1384.52 63.1469 1386.39 -2.05834C1386.91 -20.1374 1385.21 -43.605 1383.29 -69.8975C1379.34 -124.118 1374.52 -190.318 1386.42 -247.049L1390.06 -240.748L1390.06 -240.749ZM1018.12 414.339C1013.38 416.598 1008.61 418.863 1003.77 421.14C959.406 441.981 924.412 463.143 897.081 484.218L872.042 498.675C902.171 471.407 944.192 443.824 1001.72 416.8C1032.52 402.325 1060.95 388.226 1087.2 374.455L1018.12 414.339ZM1401.46 -220.998C1394.26 -169.693 1398.41 -112.73 1401.88 -65.0839C1403.81 -38.6489 1405.52 -15.0485 1405 3.22662C1403.09 69.3656 1391.77 132.091 1336.19 199.319C1313.78 226.422 1284.17 254.245 1245.07 283.303L1193.4 313.137C1257.45 271.873 1301.82 233.373 1332.49 196.271C1387.16 130.134 1398.31 68.3219 1400.19 3.11667C1400.71 -14.9637 1399 -38.43 1397.08 -64.7225C1393.46 -114.478 1389.1 -174.321 1397.6 -227.682L1401.46 -221.001L1401.46 -220.998ZM1413.42 -200.281C1408.88 -153.225 1412.55 -102.789 1415.67 -59.9089C1417.6 -33.4739 1419.32 -9.8736 1418.79 8.40152C1416.89 74.5391 1405.56 137.266 1349.98 204.494C1339.01 217.766 1326.31 231.209 1311.61 244.885L1291.17 256.686C1313.23 237.838 1331.38 219.478 1346.28 201.446C1400.96 135.311 1412.1 73.4969 1413.98 8.2916C1414.5 -9.78882 1412.8 -33.2551 1410.88 -59.5476C1407.59 -104.645 1403.7 -158.029 1409.33 -207.364L1413.42 -200.283L1413.42 -200.281ZM619.463 644.501C571.817 577.16 533.226 450.411 781.02 333.988C958.129 250.777 1056.89 179.881 1111.8 113.464C1166.47 47.3296 1177.62 -14.4851 1179.49 -79.6903C1180.01 -97.7707 1178.31 -121.239 1176.39 -147.53C1171.25 -218.046 1164.64 -308.827 1195.25 -372.689C1210.58 -404.667 1235.14 -429.841 1273.68 -442.32L1276.17 -438.014C1238.42 -426.046 1214.46 -401.675 1199.59 -370.643C1169.52 -307.934 1176.08 -217.858 1181.18 -147.892C1183.11 -121.457 1184.83 -97.8565 1184.3 -79.5814C1182.39 -13.4424 1171.07 49.2833 1115.49 116.511C1060.15 183.46 960.865 254.796 783.067 338.332C540.028 452.518 577.374 576.341 623.733 642.036L619.461 644.503L619.463 644.501Z" fill="white"/>
</mask>
<g mask="url(#mask0_0_1758)">
<path d="M1269.45 -449.651L301.603 109.135L614.833 651.666L1582.68 92.88L1269.45 -449.651Z" fill="url(#paint0_linear_0_1758)" fill-opacity="0.25"/>
</g>
<mask id="mask1_0_1758" style="mask-type:luminance" maskUnits="userSpaceOnUse" x="1132" y="304" width="243" height="322">
<path d="M1232.85 625.329C1222.27 598.203 1213.11 571.182 1206.42 546.27C1198.85 518.098 1194.45 492.679 1194.71 472.95C1194.97 453.77 1199.61 440.107 1210.05 434.814C1216.29 431.649 1224.73 431.393 1235.68 434.646C1288.45 450.311 1335.16 444.2 1374.92 424.964V420.591C1335.63 440.083 1289.29 446.454 1236.81 430.874C1224.81 427.312 1215.4 427.679 1208.25 431.301C1196.34 437.345 1191.05 452.222 1190.77 472.903C1190.5 493.035 1194.95 518.812 1202.6 547.287C1209.2 571.881 1218.21 598.535 1228.64 625.327H1232.85L1232.85 625.329ZM1237.23 625.329C1228.34 601.736 1220.64 578.416 1214.8 556.702C1207.23 528.53 1202.83 503.111 1203.09 483.382C1203.35 464.202 1207.99 450.54 1218.43 445.246C1224.67 442.081 1233.11 441.826 1244.06 445.078C1293.16 459.655 1337.02 455.378 1374.92 439.209V434.926C1337.47 451.292 1293.99 455.791 1245.19 441.304C1233.19 437.742 1223.78 438.109 1216.63 441.731C1204.72 447.775 1199.43 462.652 1199.15 483.333C1198.88 503.465 1203.33 529.243 1210.98 557.717C1216.72 579.115 1224.3 602.074 1233.03 625.327H1237.23L1237.23 625.329ZM1241.76 625.329C1234.49 605.313 1228.16 585.64 1223.18 567.132C1215.62 538.96 1211.21 513.541 1211.48 493.813C1211.73 474.632 1216.38 460.97 1226.81 455.676C1233.05 452.511 1241.49 452.256 1252.45 455.508C1297.97 469.023 1338.98 466.33 1374.92 452.981V448.783C1339.41 462.285 1298.77 465.154 1253.57 451.736C1241.58 448.174 1232.16 448.542 1225.02 452.164C1213.1 458.208 1207.81 473.082 1207.53 493.765C1207.26 513.898 1211.71 539.675 1219.36 568.149C1224.25 586.342 1230.45 605.658 1237.57 625.327H1241.75L1241.76 625.329ZM1246.42 625.329C1240.7 608.922 1235.67 592.847 1231.56 577.565C1224 549.393 1219.59 523.974 1219.86 504.245C1220.11 485.065 1224.76 471.402 1235.19 466.109C1241.43 462.943 1249.87 462.688 1260.83 465.941C1302.84 478.416 1341.03 477.079 1374.92 466.304V462.173C1341.44 473.064 1303.63 474.543 1261.96 462.168C1249.96 458.606 1240.54 458.974 1233.4 462.596C1221.48 468.64 1216.19 483.515 1215.91 504.198C1215.64 524.33 1220.09 550.107 1227.74 578.582C1231.76 593.546 1236.67 609.272 1242.25 625.329H1246.42H1246.42ZM1374.92 304.63C1358.12 321.449 1339.17 335.894 1318.19 346.595C1278.49 366.846 1231.49 373.694 1178.14 357.856C1166.14 354.294 1156.73 354.662 1149.58 358.284C1137.67 364.328 1132.38 379.202 1132.1 399.883C1131.83 420.016 1136.28 445.793 1143.92 474.267C1156.63 521.548 1178.2 576.429 1201.63 625.327H1228.61C1216.27 594.733 1205.59 563.942 1198.04 535.838C1190.47 507.666 1186.06 482.247 1186.33 462.518C1186.59 443.338 1191.23 429.675 1201.66 424.382C1207.91 421.216 1216.34 420.961 1227.3 424.214C1281.72 440.372 1329.71 433.362 1370.27 412.677C1371.83 411.882 1373.38 411.064 1374.92 410.228V405.741C1372.79 406.926 1370.65 408.073 1368.48 409.18C1328.78 429.429 1281.78 436.279 1228.43 420.441C1216.43 416.879 1207.02 417.247 1199.87 420.869C1187.96 426.913 1182.67 441.787 1182.39 462.468C1182.11 482.601 1186.57 508.378 1194.21 536.852C1200.99 562.09 1210.31 589.491 1221.07 616.993C1208.38 585.71 1197.38 554.151 1189.65 525.403C1182.09 497.231 1177.68 471.812 1177.95 452.083C1178.2 432.903 1182.85 419.24 1193.28 413.947C1199.52 410.782 1207.96 410.526 1218.92 413.779C1273.34 429.937 1321.33 422.928 1361.89 402.242C1366.32 399.982 1370.66 397.554 1374.91 394.978V390.367C1370.09 393.365 1365.15 396.165 1360.09 398.745C1320.39 418.994 1273.39 425.844 1220.04 410.007C1208.05 406.445 1198.63 406.812 1191.49 410.434C1179.57 416.478 1174.28 431.353 1174 452.036C1173.73 472.168 1178.18 497.946 1185.83 526.42C1192.61 551.657 1201.92 579.061 1212.69 606.561C1200 575.277 1188.99 543.718 1181.27 514.971C1173.7 486.799 1169.3 461.38 1169.56 441.651C1169.82 422.471 1174.46 408.808 1184.9 403.515C1191.14 400.349 1199.58 400.094 1210.53 403.347C1264.95 419.505 1312.94 412.495 1353.5 391.81C1360.89 388.042 1368.03 383.817 1374.91 379.198V374.444C1367.48 379.563 1359.74 384.214 1351.71 388.311C1312.01 408.562 1265.01 415.41 1211.66 399.572C1199.66 396.01 1190.25 396.378 1183.1 400C1171.19 406.044 1165.9 420.918 1165.62 441.599C1165.34 461.731 1169.8 487.509 1177.44 515.983C1184.22 541.221 1193.53 568.624 1204.31 596.124C1191.61 564.841 1180.6 533.282 1172.88 504.534C1165.32 476.362 1160.91 450.943 1161.18 431.214C1161.43 412.034 1166.08 398.371 1176.51 393.078C1182.75 389.913 1191.19 389.657 1202.15 392.91C1256.57 409.068 1304.56 402.061 1345.12 381.373C1355.55 376.053 1365.48 369.823 1374.91 362.854V357.944C1364.96 365.5 1354.43 372.213 1343.32 377.876C1303.62 398.127 1256.62 404.975 1203.27 389.137C1191.28 385.576 1181.86 385.943 1174.72 389.565C1162.8 395.609 1157.51 410.484 1157.23 431.165C1156.96 451.297 1161.41 477.074 1169.06 505.549C1175.84 530.786 1185.15 558.187 1195.92 585.69C1183.23 554.406 1172.22 522.847 1164.5 494.099C1156.93 465.929 1152.53 440.508 1152.79 420.779C1153.05 401.599 1157.69 387.937 1168.13 382.643C1174.37 379.478 1182.81 379.223 1193.76 382.475C1248.19 398.633 1296.17 391.626 1336.73 370.939C1350.31 364.017 1363.04 355.556 1374.91 345.923V340.833C1362.55 351.149 1349.21 360.163 1334.94 367.442C1295.24 387.693 1248.24 394.541 1194.89 378.703C1182.89 375.141 1173.48 375.508 1166.33 379.131C1154.42 385.175 1149.13 400.049 1148.85 420.73C1148.58 440.862 1153.03 466.64 1160.67 495.114C1167.45 520.351 1176.77 547.755 1187.54 575.255C1174.84 543.971 1163.84 512.412 1156.11 483.665C1148.55 455.495 1144.14 430.074 1144.41 410.345C1144.66 391.165 1149.31 377.502 1159.74 372.209C1165.98 369.043 1174.42 368.788 1185.38 372.041C1239.8 388.199 1287.79 381.192 1328.35 360.504C1345.17 351.922 1360.71 340.981 1374.9 328.365V323.069C1360.26 336.47 1344.11 348.051 1326.55 357.007C1286.85 377.258 1239.85 384.106 1186.5 368.268C1174.5 364.706 1165.09 365.074 1157.95 368.696C1146.03 374.74 1140.74 389.615 1140.46 410.296C1140.19 430.428 1144.64 456.205 1152.29 484.679C1159.07 509.917 1168.38 537.318 1179.15 564.82C1166.45 533.537 1155.45 501.978 1147.73 473.23C1140.16 445.06 1135.75 419.639 1136.02 399.91C1136.28 380.73 1140.92 367.068 1151.36 361.774C1157.6 358.609 1166.03 358.353 1176.99 361.606C1231.41 377.764 1279.4 370.757 1319.96 350.069C1340.17 339.763 1358.52 326.055 1374.9 310.128V304.606L1374.92 304.63Z" fill="white"/>
</mask>
<g mask="url(#mask1_0_1758)">
<path d="M1131.83 304.631H1374.92V625.329H1131.83V304.631Z" fill="url(#paint1_linear_0_1758)" fill-opacity="0.5"/>
</g>
</g>
<rect x="0.5" y="0.5" width="1365" height="533" rx="24.5" stroke="url(#paint2_linear_0_1758)"/>
<defs>
<linearGradient id="paint0_linear_0_1758" x1="785.526" y1="-170.258" x2="1098.76" y2="372.273" gradientUnits="userSpaceOnUse">
<stop stop-color="#59FD3F"/>
<stop offset="0.5" stop-color="#3FF794"/>
<stop offset="1" stop-color="#20EFF6"/>
</linearGradient>
<linearGradient id="paint1_linear_0_1758" x1="1253.37" y1="304.631" x2="1253.37" y2="625.329" gradientUnits="userSpaceOnUse">
<stop stop-color="#59FD3F"/>
<stop offset="0.5" stop-color="#3FF794"/>
<stop offset="1" stop-color="#20EFF6"/>
</linearGradient>
<linearGradient id="paint2_linear_0_1758" x1="683" y1="0" x2="683" y2="534" gradientUnits="userSpaceOnUse">
<stop stop-color="#59FD3F"/>
<stop offset="0.5" stop-color="#3FF794"/>
<stop offset="1" stop-color="#20EFF6"/>
</linearGradient>
<clipPath id="clip0_0_1758">
<rect width="1366" height="534" rx="25" fill="white"/>
</clipPath>
</defs>
</svg>
