<svg width="342" height="379" viewBox="0 0 342 379" fill="none" xmlns="http://www.w3.org/2000/svg">
<g clip-path="url(#clip0_0_3332)">
<rect width="342" height="379" rx="25" fill="#02070E"/>
<mask id="mask0_0_3332" style="mask-type:luminance" maskUnits="userSpaceOnUse" x="-29" y="104" width="521" height="357">
<path d="M477.169 111.88C460.182 111.222 446.254 117.23 434.636 127.228C409.07 149.229 394.444 190.517 383.083 222.588C378.79 234.706 374.958 245.523 371.165 253.539C357.439 282.546 340.193 308.202 302.413 327.241C264.792 346.202 206.8 358.554 111.556 361.035C-12.618 364.27 -25.203 421.068 -19.3354 459.465L-21.7252 459.73C-27.8566 420.348 -15.2638 362.01 111.49 358.707C206.365 356.236 264.04 343.978 301.363 325.168C338.528 306.439 355.516 281.152 369.048 252.554C372.801 244.625 376.612 233.869 380.881 221.816C392.33 189.492 407.072 147.881 433.107 125.477C445.104 115.153 459.454 108.909 476.904 109.513L477.167 111.882L477.169 111.88ZM477.72 116.848C462.782 117.334 450.314 123.127 439.756 132.213C414.19 154.215 399.563 195.502 388.202 227.573C383.909 239.691 380.077 250.507 376.284 258.523C362.558 287.531 345.312 313.187 307.532 332.226C269.912 351.186 211.92 363.539 116.675 366.019C-1.71523 369.103 -18.6659 420.877 -14.9046 458.972L-17.3115 459.239C-21.3538 420.148 -4.38888 366.844 116.609 363.691C211.484 361.22 269.159 348.961 306.482 330.152C343.647 311.422 360.636 286.136 374.168 257.538C377.92 249.608 381.732 238.852 386 226.8C397.45 194.476 412.191 152.864 438.226 130.459C449.16 121.049 462.048 115.029 477.458 114.493L477.719 116.847L477.72 116.848ZM478.308 122.15C465.357 123.546 454.347 129.046 444.875 137.198C419.309 159.198 404.684 200.487 393.322 232.558C389.03 244.676 385.196 255.493 381.404 263.508C367.677 292.516 350.431 318.172 312.652 337.211C275.031 356.171 217.039 368.524 121.795 371.005C9.02449 373.943 -11.7065 421.058 -10.1695 458.449L-12.6067 458.719C-14.4376 420.313 6.3254 371.683 121.73 368.678C216.605 366.206 274.28 353.949 311.603 335.138C348.768 316.409 365.756 291.122 379.288 262.524C383.04 254.595 386.852 243.838 391.121 231.786C402.57 199.462 417.312 157.851 443.347 135.445C453.192 126.972 464.62 121.25 478.048 119.801L478.308 122.15ZM478.934 127.797C467.905 129.865 458.351 134.99 449.993 142.183C424.427 164.183 409.8 205.472 398.44 237.543C394.148 249.661 390.314 260.478 386.522 268.493C372.795 297.501 355.549 323.157 317.77 342.196C280.149 361.156 222.157 373.509 126.913 375.99C19.6551 378.785 -4.33538 421.541 -5.10436 457.886L-7.58765 458.161C-7.12854 420.776 16.9335 376.526 126.848 373.662C221.723 371.191 279.398 358.932 316.72 340.122C353.886 321.393 370.874 296.106 384.406 267.508C388.159 259.577 391.97 248.821 396.238 236.77C407.688 204.446 422.43 162.834 448.465 140.429C457.193 132.917 467.167 127.569 478.672 125.442L478.933 127.796L478.934 127.797ZM479.6 133.801C470.428 136.293 462.324 140.962 455.112 147.169C429.547 169.171 414.92 210.458 403.559 242.529C399.268 254.647 395.434 265.464 391.641 273.48C377.915 302.487 360.669 328.143 322.889 347.182C285.27 366.142 227.277 378.495 132.032 380.976C30.2302 383.629 3.44045 422.286 0.320308 457.286L-2.22482 457.568C0.572582 421.495 27.4779 381.37 131.967 378.648C226.842 376.177 284.517 363.919 321.84 345.109C359.005 326.379 375.994 301.093 389.526 272.495C393.279 264.566 397.09 253.809 401.358 241.757C412.808 209.433 427.55 167.822 453.585 145.418C461.166 138.893 469.688 134.001 479.336 131.432L479.598 133.802L479.6 133.801ZM480.307 140.178C472.921 142.845 466.265 146.961 460.232 152.153C434.666 174.153 420.039 215.442 408.678 247.513C404.386 259.631 400.553 270.447 396.761 278.463C383.034 307.47 365.788 333.127 328.008 352.165C290.388 371.126 232.396 383.479 137.152 385.96C40.7848 388.47 11.6328 423.243 6.14739 456.638L3.52331 456.929C8.67708 422.429 38.0021 386.213 137.087 383.632C231.962 381.161 289.636 368.902 326.959 350.092C364.124 331.363 381.113 306.075 394.645 277.477C398.398 269.548 402.209 258.792 406.477 246.739C417.927 214.416 432.669 172.804 458.704 150.399C465.107 144.888 472.182 140.541 480.039 137.775L480.305 140.177L480.307 140.178ZM481.057 146.945C475.389 149.529 470.171 152.991 465.351 157.138C439.785 179.138 425.16 220.426 413.798 252.498C409.506 264.616 405.673 275.433 401.88 283.448C388.153 312.455 370.907 338.112 333.128 357.15C295.507 376.111 237.515 388.464 142.271 390.945C51.3637 393.313 20.2674 424.391 12.43 455.942L9.72296 456.242C17.2237 423.553 48.5412 391.058 142.205 388.617C237.08 386.146 294.754 373.887 332.077 355.078C369.243 336.349 386.231 311.062 399.763 282.464C403.515 274.534 407.327 263.777 411.595 251.726C423.045 219.402 437.787 177.79 463.822 155.385C469.015 150.917 474.65 147.215 480.784 144.499L481.056 146.945L481.057 146.945ZM481.852 154.117C477.826 156.358 474.038 159.051 470.47 162.123C444.905 184.123 430.279 225.411 418.917 257.483C414.626 269.601 410.792 280.418 406.999 288.433C393.273 317.44 376.027 343.097 338.247 362.135C300.627 381.096 242.635 393.448 147.39 395.93C62.0076 398.155 29.3841 425.707 19.2402 455.187L16.4187 455.499C26.2294 424.84 59.1411 395.899 147.325 393.602C242.2 391.131 299.875 378.872 337.198 360.063C374.363 341.334 391.352 316.047 404.884 287.449C408.637 279.519 412.448 268.763 416.716 256.71C428.166 224.387 442.907 182.775 468.943 160.371C472.889 156.975 477.091 154.022 481.574 151.606L481.852 154.117ZM482.694 161.711C480.234 163.345 477.866 165.147 475.59 167.108C450.024 189.109 435.397 230.396 424.037 262.468C419.744 274.586 415.911 285.401 412.119 293.418C398.392 322.425 381.146 348.082 343.366 367.12C305.747 386.081 247.754 398.433 152.51 400.913C72.7669 402.991 39.0505 427.162 26.6794 454.36L23.6882 454.692C35.7396 426.269 69.8381 400.738 152.445 398.585C247.32 396.114 304.994 383.856 342.317 365.046C379.482 346.316 396.471 321.03 410.003 292.432C413.756 284.503 417.567 273.746 421.835 261.694C433.285 229.37 448.027 187.759 474.062 165.353C476.724 163.063 479.504 160.971 482.406 159.113L482.694 161.709L482.694 161.711ZM483.584 169.739C482.609 170.496 481.652 171.282 480.708 172.094C455.142 194.094 440.515 235.383 429.155 267.454C424.862 279.572 421.029 290.389 417.237 298.404C403.51 327.411 386.264 353.068 348.485 372.107C310.864 391.067 252.872 403.42 157.628 405.901C83.6994 407.827 49.3317 428.744 34.8547 453.457L31.6423 453.813C45.8265 427.828 80.6896 405.576 157.563 403.574C252.438 401.102 310.113 388.845 347.436 370.034C384.601 351.305 401.589 326.018 415.121 297.42C418.874 289.49 422.685 278.734 426.954 266.682C438.403 234.358 453.145 192.746 479.18 170.341C480.518 169.19 481.888 168.09 483.284 167.044L483.583 169.74L483.584 169.739ZM484.525 178.226C459.764 200.491 445.441 240.917 434.274 272.439C429.982 284.557 426.149 295.374 422.356 303.389C408.63 332.396 391.384 358.053 353.604 377.091C315.984 396.052 257.991 408.405 162.747 410.886C94.8786 412.654 60.3501 430.426 43.9428 452.448L40.4409 452.836C56.6027 429.488 91.7624 410.405 162.681 408.558C257.556 406.087 315.231 393.828 352.554 375.019C389.719 356.29 406.707 331.003 420.24 302.405C423.991 294.474 427.803 283.718 432.072 271.667C443.51 239.38 458.23 197.827 484.211 175.404L484.524 178.226L484.525 178.226ZM485.518 187.186C463.263 210.05 449.924 247.695 439.393 277.424C435.102 289.542 431.268 300.359 427.476 308.374C413.749 337.381 396.503 363.038 358.723 382.076C321.103 401.037 263.111 413.39 167.867 415.871C106.418 417.472 72.3051 432.193 54.222 451.308L50.3083 451.742C68.2254 431.238 103.15 415.228 167.803 413.543C262.678 411.072 320.353 398.813 357.676 380.004C394.841 361.273 411.829 335.988 425.361 307.39C429.114 299.46 432.925 288.704 437.194 276.651C448.007 246.122 461.76 207.31 485.191 184.218L485.52 187.187L485.518 187.186ZM486.565 196.628C466.726 219.713 454.385 254.54 444.513 282.41C440.22 294.528 436.388 305.344 432.595 313.36C418.87 342.367 401.623 368.024 363.843 387.063C326.224 406.023 268.23 418.376 172.986 420.856C118.498 422.276 85.5229 434.019 66.1384 449.987L61.5758 450.493C80.9276 433.053 114.987 420.037 172.921 418.528C267.796 416.057 325.471 403.798 362.794 384.987C399.959 366.258 416.947 340.971 430.479 312.373C434.232 304.444 438.043 293.688 442.312 281.635C452.481 252.926 465.248 216.89 486.218 193.493L486.565 196.627L486.565 196.628ZM487.668 206.572C470.147 229.488 458.82 261.455 449.632 287.395C445.339 299.513 441.507 310.33 437.714 318.345C423.988 347.352 406.742 373.009 368.962 392.047C331.342 411.008 273.35 423.361 178.105 425.842C131.393 427.059 100.485 435.861 80.3973 448.407L74.8478 449.023C95.1403 434.901 127.511 424.831 178.04 423.514C272.916 421.043 330.59 408.784 367.913 389.975C405.078 371.246 422.067 345.959 435.599 317.361C439.352 309.431 443.163 298.674 447.431 286.623C456.931 259.803 468.698 226.59 487.3 203.258L487.668 206.572ZM488.828 217.034C473.525 239.386 463.228 268.447 454.75 292.38C450.457 304.498 446.625 315.315 442.833 323.33C429.106 352.337 411.86 377.994 374.08 397.033C336.46 415.993 278.468 428.346 183.223 430.827C145.851 431.801 118.614 437.637 98.9186 446.354L91.3385 447.194C111.741 436.72 141.192 429.592 183.158 428.499C278.034 426.028 335.708 413.769 373.031 394.959C410.196 376.23 427.185 350.943 440.717 322.345C444.468 314.415 448.281 303.659 452.549 291.606C461.353 266.752 472.104 236.409 488.437 213.527L488.826 217.034L488.828 217.034ZM196.042 435.586C193.5 435.668 190.94 435.745 188.343 435.812C164.58 436.431 144.915 439.016 128.671 443.055L114.733 444.601C133.426 438.356 157.463 434.287 188.278 433.485C204.78 433.054 220.155 432.329 234.494 431.323L196.042 435.586ZM490.047 228.028C476.858 249.415 467.608 275.525 459.87 297.365C455.578 309.483 451.744 320.3 447.952 328.315C434.225 357.322 416.979 382.979 379.2 402.017C363.969 409.693 345.398 416.285 322.372 421.578L293.608 424.767C330.097 418.913 357.301 410.451 378.15 399.944C415.316 381.213 432.304 355.927 445.836 327.329C449.589 319.4 453.4 308.644 457.668 296.591C465.747 273.784 475.465 246.354 489.634 224.307L490.046 228.026L490.047 228.028ZM491.325 239.56C480.143 259.576 471.951 282.695 464.989 302.35C460.697 314.468 456.864 325.285 453.071 333.3C439.346 362.307 422.099 387.964 384.319 407.002C376.861 410.761 368.601 414.259 359.411 417.472L348.032 418.733C361.502 414.657 373.137 410.035 383.27 404.929C420.435 386.199 437.424 360.912 450.956 332.314C454.709 324.385 458.52 313.629 462.788 301.576C470.11 280.904 478.779 256.434 490.888 235.617L491.325 239.558L491.325 239.56ZM-25.8588 460.188C-33.9087 420.997 -26.3674 357.181 106.373 353.722C201.248 351.251 258.923 338.992 296.246 320.183C333.411 301.454 350.4 276.167 363.932 247.569C367.684 239.64 371.495 228.882 375.764 216.831C387.214 184.507 401.955 142.896 427.99 120.49C441.026 109.271 456.837 102.871 476.388 104.835L476.654 107.231C457.558 105.197 442.167 111.356 429.517 122.243C403.951 144.244 389.324 185.532 377.964 217.603C373.672 229.721 369.838 240.538 366.046 248.554C352.319 277.561 335.073 303.218 297.294 322.256C259.673 341.217 201.681 353.569 106.437 356.05C-23.7562 359.441 -31.2806 421.715 -23.4821 459.925L-25.8601 460.188L-25.8588 460.188Z" fill="white"/>
</mask>
<g mask="url(#mask0_0_3332)">
<path d="M475.935 100.753L-62.7921 160.482L-29.3108 462.469L509.417 402.74L475.935 100.753Z" fill="url(#paint0_linear_0_3332)" fill-opacity="0.25"/>
</g>
</g>
<rect x="0.5" y="0.5" width="341" height="378" rx="24.5" stroke="url(#paint1_linear_0_3332)"/>
<defs>
<linearGradient id="paint0_linear_0_3332" x1="206.572" y1="130.618" x2="240.053" y2="432.604" gradientUnits="userSpaceOnUse">
<stop stop-color="#59FD3F"/>
<stop offset="0.5" stop-color="#3FF794"/>
<stop offset="1" stop-color="#20EFF6"/>
</linearGradient>
<linearGradient id="paint1_linear_0_3332" x1="171" y1="0" x2="171" y2="379" gradientUnits="userSpaceOnUse">
<stop stop-color="#59FD3F"/>
<stop offset="0.5" stop-color="#3FF794"/>
<stop offset="1" stop-color="#20EFF6"/>
</linearGradient>
<clipPath id="clip0_0_3332">
<rect width="342" height="379" rx="25" fill="white"/>
</clipPath>
</defs>
</svg>
