<?xml version="1.0" encoding="UTF-8"?><svg id="Layer_2" xmlns="http://www.w3.org/2000/svg" viewBox="0 0 882.91 210"><defs><style>.cls-1{fill:#000087;}</style></defs><g id="Layer_1-2"><path class="cls-1" d="m105,0C47.01,0,0,47.01,0,105s47.01,105,105,105,105-47.01,105-105S162.99,0,105,0Zm-2.12,76.9l-25.03-13.02v81.98l25.03-12.97v27.72l-31.68,16.41c-1.78.92-3.72,1.38-5.66,1.38-2.22,0-4.44-.6-6.4-1.79-3.67-2.23-5.91-6.22-5.91-10.51V44.02c0-4.26,2.2-8.22,5.82-10.46,3.62-2.24,8.14-2.46,11.96-.56l31.86,16.22v27.67Zm86.15,39.09l-68.6,35.54V58.33l15.86,8.4c5.88,2.8,8.62,8.66,8.62,13.18v31.22l32.8-16.99c6.03-3.13,13.46-.77,16.59,5.27,3.13,6.03.77,13.46-5.27,16.59Z"/><path class="cls-1" d="m439.42,122.93c-2.52,5.87-6.02,11.03-10.52,15.46-4.5,4.44-9.86,7.94-16.09,10.52-6.23,2.58-13.01,3.87-20.32,3.87s-14.02-1.26-20.14-3.78c-6.11-2.52-11.42-5.96-15.91-10.34-4.5-4.37-7.97-9.5-10.43-15.37-2.46-5.87-3.69-12.16-3.69-18.88s1.23-13,3.69-18.88c2.46-5.87,5.96-11.03,10.52-15.46,4.55-4.43,9.92-7.91,16.09-10.43,6.17-2.52,12.91-3.78,20.23-3.78s14.05,1.26,20.23,3.78c6.17,2.52,11.51,5.96,16,10.34,4.5,4.38,7.97,9.5,10.43,15.37,2.46,5.87,3.69,12.17,3.69,18.88s-1.26,12.83-3.78,18.7Zm-23.28-29.13c-1.26-3.24-3.03-6.05-5.3-8.45-2.28-2.4-4.98-4.32-8.09-5.75-3.12-1.44-6.53-2.16-10.25-2.16s-7.28.72-10.34,2.16-5.66,3.33-7.82,5.66c-2.16,2.34-3.84,5.16-5.03,8.45-1.2,3.3-1.8,6.74-1.8,10.34s.63,7.22,1.89,10.52c1.26,3.3,3.03,6.18,5.3,8.63,2.28,2.46,4.97,4.38,8.09,5.75,3.12,1.38,6.47,2.07,10.07,2.07s7.13-.72,10.25-2.16c3.12-1.44,5.78-3.35,8-5.75,2.22-2.4,3.92-5.24,5.12-8.54,1.2-3.3,1.8-6.74,1.8-10.34s-.63-7.19-1.89-10.43Z"/><path class="cls-1" d="m457.4,20.62c2.99-2.52,6.65-3.78,10.97-3.78s8,1.26,11.06,3.78c3.06,2.52,4.58,6.11,4.58,10.79s-1.53,7.94-4.58,10.52c-3.06,2.58-6.74,3.87-11.06,3.87s-7.97-1.29-10.97-3.87c-3-2.58-4.5-6.08-4.5-10.52,0-4.67,1.5-8.27,4.5-10.79Zm23.91,130h-25.53V58.02h25.53v92.6Z"/><path class="cls-1" d="m568.7,58.29c3.96,1.62,7.34,3.9,10.16,6.83,2.82,2.94,5.03,6.59,6.65,10.97,1.62,4.38,2.43,9.32,2.43,14.83v59.69h-25.71v-51.6c0-3.71-.48-6.83-1.44-9.35-.96-2.52-2.19-4.59-3.69-6.2-1.5-1.62-3.3-2.82-5.39-3.6-2.1-.78-4.23-1.17-6.38-1.17s-4.35.36-6.56,1.08c-2.22.72-4.2,1.89-5.93,3.51-1.74,1.62-3.18,3.72-4.32,6.29-1.14,2.58-1.71,5.73-1.71,9.44v51.6h-25.71V58.02l25.89,12.41c3.12-3.96,7.01-7.37,11.69-10.25,4.67-2.88,10.31-4.32,16.9-4.32,4.79,0,9.17.81,13.13,2.43Z"/><path class="cls-1" d="m635.4,150.62h-25.53V19.19h25.53v131.44Z"/><path class="cls-1" d="m658.96,20.83c2.99-2.52,6.65-3.78,10.97-3.78s8,1.26,11.06,3.78c3.06,2.52,4.58,6.11,4.58,10.79s-1.53,7.94-4.58,10.52c-3.06,2.58-6.74,3.87-11.06,3.87s-7.97-1.29-10.97-3.87c-3-2.58-4.5-6.08-4.5-10.52,0-4.67,1.5-8.27,4.5-10.79Zm23.91,130h-25.53V58.23h25.53v92.6Z"/><path class="cls-1" d="m754.61,152.04h-23.91l-37.58-92.96h27.15l22.66,62.75,22.83-62.75h26.61l-37.76,92.96Z"/><path class="cls-1" d="m856.36,129.2c2.95-1.32,5.75-2.88,8.4-4.68,2.65-1.8,5.11-3.77,7.37-5.91,2.26-2.14,4.18-4.32,5.74-6.54l5.04,21.16c-2.15,2.36-4.47,4.52-6.96,6.46-2.49,1.95-5.14,3.66-7.93,5.12-2.79,1.47-5.6,2.75-8.42,3.85-2.82,1.1-5.69,2-8.6,2.69-6.88,1.64-13.43,1.96-19.64.98-6.21-.98-11.91-3.08-17.11-6.28-5.2-3.2-9.62-7.41-13.27-12.64-3.65-5.23-6.29-11.28-7.93-18.17-1.58-6.65-1.95-13.09-1.09-19.33.85-6.24,2.76-11.96,5.71-17.16,2.95-5.2,6.94-9.66,11.97-13.39,5.03-3.72,10.87-6.38,17.51-7.96,7-1.67,13.49-1.83,19.48-.48,5.99,1.35,11.37,3.76,16.14,7.25,4.77,3.48,8.84,7.88,12.19,13.18,3.36,5.3,5.97,11.12,7.85,17.45l-59.88,31.08c2.84,3.14,6.31,5.31,10.42,6.48,4.1,1.18,8.71,1.16,13.85-.06,3.15-.75,6.2-1.78,9.15-3.1Zm-39.42-20l38.43-20.24c-2.48-4.71-5.87-8.21-10.17-10.52-4.31-2.3-9.08-2.83-14.33-1.58-3.62.86-6.55,2.39-8.8,4.59-2.25,2.2-3.91,4.78-4.99,7.75-1.08,2.97-1.62,6.12-1.63,9.45-.01,3.33.36,6.57,1.11,9.72l.38.83Z"/><path class="cls-1" d="m296.07,153c-9.62,0-18.19-2.07-25.71-6.2-7.52-4.13-13.38-9.86-17.57-17.2s-6.29-15.69-6.29-25.06,2.1-17.88,6.29-25.15,9.99-12.98,17.38-17.11c7.4-4.13,15.91-6.2,25.52-6.2s17.69,2.28,25.34,6.84c7.64,4.56,13.19,11.16,16.65,19.79l-22.94,8.14c-1.73-3.58-4.41-6.44-8.04-8.6-3.64-2.16-7.68-3.24-12.11-3.24s-8.57,1.08-12.02,3.24c-3.45,2.16-6.17,5.15-8.14,8.97-1.97,3.82-2.96,8.26-2.96,13.32s.99,9.46,2.96,13.22,4.75,6.75,8.32,8.97,7.64,3.33,12.21,3.33,8.47-1.17,12.11-3.51c3.64-2.34,6.32-5.43,8.05-9.25l23.12,8.14c-3.58,8.75-9.16,15.54-16.74,20.35s-16.06,7.21-25.43,7.21Z"/></g></svg>