<svg width="826" height="754" viewBox="0 0 826 754" fill="none" xmlns="http://www.w3.org/2000/svg">
<path opacity="0.989" fill-rule="evenodd" clip-rule="evenodd" d="M360.5 0.5C366.167 0.5 371.833 0.5 377.5 0.5C393.959 6.71339 402.626 18.7134 403.5 36.5C445.833 61 488.167 85.5 530.5 110C536.857 107.614 543.524 106.114 550.5 105.5C571.283 107.117 582.617 118.283 584.5 139C582.367 162.8 569.367 174.133 545.5 173C536.946 171.641 529.779 167.808 524 161.5C481.27 185.781 438.77 210.448 396.5 235.5C399.167 241.5 399.167 247.5 396.5 253.5C438.336 278.252 480.336 302.752 522.5 327C523.5 327.667 524.5 327.667 525.5 327C534.655 317.839 545.655 314.506 558.5 317C578.665 324.156 586.832 338.322 583 359.5C575.681 378.582 561.848 386.415 541.5 383C537.381 381.441 533.381 379.607 529.5 377.5C487.004 401.581 444.67 425.914 402.5 450.5C402.699 469.488 394.032 482.155 376.5 488.5C370.833 488.5 365.167 488.5 359.5 488.5C342.259 482.392 333.759 470.059 334 451.5C291.915 426.874 249.749 402.374 207.5 378C200.733 380.8 193.567 382.634 186 383.5C168.812 382.468 157.646 373.802 152.5 357.5C152.5 352.167 152.5 346.833 152.5 341.5C155.467 331.187 161.8 323.52 171.5 318.5C172.833 268.833 172.833 219.167 171.5 169.5C161.362 164.378 155.029 156.378 152.5 145.5C152.5 140.833 152.5 136.167 152.5 131.5C159.344 111.565 173.344 103.065 194.5 106C198.889 107.029 202.889 108.862 206.5 111.5C248.996 87.4194 291.33 63.0861 333.5 38.5C333.735 19.2929 342.735 6.6262 360.5 0.5ZM390.5 59.5C432.771 82.9705 474.771 106.97 516.5 131.5C517.386 132.325 517.719 133.325 517.5 134.5C487.189 140.595 457.022 147.262 427 154.5C425.533 151.734 423.7 149.234 421.5 147C416.456 144.017 411.29 141.517 406 139.5C399.321 114.45 392.488 89.4504 385.5 64.5C387.006 62.5986 388.673 60.9319 390.5 59.5ZM345.5 60.5C350.394 61.0264 351.561 63.3597 349 67.5C328.333 101.5 307.667 135.5 287 169.5C277.308 166.951 268.641 168.951 261 175.5C246.853 167.76 232.853 159.76 219 151.5C219.054 147.164 219.554 142.83 220.5 138.5C220.379 137.106 220.046 135.772 219.5 134.5C261.563 109.807 303.563 85.1402 345.5 60.5ZM362.5 67.5C367.648 66.9264 372.482 67.593 377 69.5C383.602 93.805 390.102 118.138 396.5 142.5C393.994 145.377 391.494 148.377 389 151.5C386.715 155.187 385.548 159.187 385.5 163.5C358.33 169.417 331.163 175.417 304 181.5C301.394 180.064 299.227 178.064 297.5 175.5C319.178 139.472 340.845 103.472 362.5 67.5ZM516.5 145.5C518.105 147.308 518.439 149.308 517.5 151.5C475.5 175.833 433.5 200.167 391.5 224.5C376.155 211.239 360.822 211.239 345.5 224.5C331.336 216.586 317.336 208.419 303.5 200C304.113 197.853 304.779 195.686 305.5 193.5C332.833 187.167 360.167 180.833 387.5 174.5C398.655 187.784 410.821 188.784 424 177.5C426.783 173.985 428.283 169.985 428.5 165.5C458.088 159.434 487.421 152.767 516.5 145.5ZM211.5 161.5C225.94 169.222 240.274 177.222 254.5 185.5C253.378 195.007 255.711 203.673 261.5 211.5C259 215.833 256.5 220.167 254 224.5C250 223.833 246 223.167 242 222.5C230.625 203.583 219.125 184.75 207.5 166C209.041 164.629 210.375 163.129 211.5 161.5ZM197.5 172.5C209.392 191.269 221.059 210.269 232.5 229.5C224.53 239.701 224.53 249.868 232.5 260C220.875 278.75 209.375 297.583 198 316.5C197.5 268.501 197.333 220.501 197.5 172.5ZM297.5 210.5C311.139 218.322 324.806 226.155 338.5 234C339.059 234.725 339.392 235.558 339.5 236.5C338.448 242.506 338.282 248.506 339 254.5C325.248 262.626 311.415 270.626 297.5 278.5C290.417 272.084 282.251 270.084 273 272.5C269.68 268.538 266.847 264.205 264.5 259.5C271.143 249.681 271.143 239.847 264.5 230C266.533 226.102 268.7 222.268 271 218.5C276.474 218.932 281.974 218.432 287.5 217C291.528 215.788 294.862 213.621 297.5 210.5ZM344.5 264.5C360.157 277.832 375.824 277.832 391.5 264.5C433.997 288.914 476.331 313.581 518.5 338.5C517.846 340.115 517.346 341.782 517 343.5C487.646 336.287 458.146 329.62 428.5 323.5C424.405 305.949 413.738 300.115 396.5 306C392.994 308.34 389.994 311.174 387.5 314.5C360.167 308.167 332.833 301.833 305.5 295.5C304.708 293.535 304.041 291.535 303.5 289.5C303.709 288.914 304.043 288.414 304.5 288C318.061 280.392 331.394 272.559 344.5 264.5ZM253.5 265.5C256.713 269.234 259.38 273.401 261.5 278C255.951 285.704 253.617 294.204 254.5 303.5C242.167 310.667 229.833 317.833 217.5 325C215.598 326.301 213.598 326.968 211.5 327C210.167 325.667 208.833 324.333 207.5 323C218.959 304.583 230.292 286.083 241.5 267.5C245.648 266.833 249.648 266.166 253.5 265.5ZM302.5 307.5C330.2 313.342 357.867 319.342 385.5 325.5C385.816 333.801 389.483 340.135 396.5 344.5C389.512 369.45 382.679 394.45 376 419.5C373.787 420.76 371.287 421.426 368.5 421.5C366.167 421.167 363.833 420.833 361.5 420.5C340.333 385.5 319.167 350.5 298 315.5C299.141 312.802 300.641 310.135 302.5 307.5ZM259.5 313.5C263.111 315.644 266.778 317.81 270.5 320C276.404 321.416 282.237 321.916 288 321.5C308.667 355.5 329.333 389.5 350 423.5C350.28 426.002 349.113 427.669 346.5 428.5C304.088 404.546 261.922 380.212 220 355.5C219.473 349.468 219.14 343.468 219 337.5C232.646 329.6 246.146 321.6 259.5 313.5ZM426.5 334.5C456.446 341.39 486.446 348.224 516.5 355C474.167 379.5 431.833 404 389.5 428.5C387.833 427.333 386.167 426.167 384.5 425C391.801 398.927 398.801 372.761 405.5 346.5C415.449 347.367 422.449 343.367 426.5 334.5Z" fill="#8257DB"/>
<path opacity="0.953" fill-rule="evenodd" clip-rule="evenodd" d="M42.8218 563.147C58.8868 562.053 72.5538 567.053 83.8218 578.147C80.8638 582.773 77.1978 586.773 72.8218 590.147C65.6528 583.477 57.1528 579.81 47.3218 579.147C28.6228 581.497 18.7888 592.163 17.8218 611.147C19.5818 634.074 31.9148 644.574 54.8218 642.647C62.0138 640.467 68.1808 636.634 73.3218 631.147C77.1548 634.98 80.9888 638.814 84.8218 642.647C71.0738 657.117 54.4068 662.117 34.8218 657.647C9.37576 648.944 -2.12425 631.11 0.321754 604.147C4.90775 580.392 19.0748 566.725 42.8218 563.147Z" fill="white"/>
<path opacity="0.96" fill-rule="evenodd" clip-rule="evenodd" d="M491.822 563.147C530.852 565.012 548.022 585.346 543.322 624.147C537.302 643.835 524.132 655.335 503.822 658.647C482.582 661.272 466.08 653.772 454.322 636.147C442.453 610.18 447.62 588.347 469.822 570.647C476.909 567.008 484.242 564.508 491.822 563.147ZM491.822 579.147C516.562 580.388 528.062 593.388 526.322 618.147C521.172 636.616 509.002 644.782 489.822 642.647C472.72 636.529 464.887 624.363 466.322 606.147C469.233 591.739 477.733 582.739 491.822 579.147Z" fill="white"/>
<path opacity="0.972" fill-rule="evenodd" clip-rule="evenodd" d="M100.822 565.147C118.869 564.716 136.869 565.216 154.822 566.647C173.396 573.63 179.896 586.797 174.322 606.147C170.532 614.8 164.032 620.3 154.822 622.647C162.822 633.98 170.822 645.314 178.822 656.647C172.155 657.314 165.489 657.314 158.822 656.647C151.489 646.647 144.155 636.647 136.822 626.647C130.497 626.147 124.164 625.981 117.822 626.147C117.822 636.48 117.822 646.814 117.822 657.147C112.155 657.147 106.489 657.147 100.822 657.147C100.822 626.48 100.822 595.814 100.822 565.147ZM117.822 581.147C128.9 580.716 139.9 581.216 150.822 582.647C159.449 588.691 160.949 596.191 155.322 605.147C153.489 606.314 151.655 607.48 149.822 608.647C139.234 610.076 128.567 610.576 117.822 610.147C117.822 600.48 117.822 590.814 117.822 581.147Z" fill="white"/>
<path opacity="0.954" fill-rule="evenodd" clip-rule="evenodd" d="M181.822 566.147C188.666 564.828 195.666 564.828 202.822 566.147C210.989 579.147 219.155 592.147 227.322 605.147C235.489 592.147 243.655 579.147 251.822 566.147C258.489 564.814 265.155 564.814 271.822 566.147C260.185 584.282 248.352 602.282 236.322 620.147C235.822 632.476 235.655 644.809 235.822 657.147C230.155 657.147 224.489 657.147 218.822 657.147C218.989 645.142 218.822 633.142 218.322 621.147C206.132 602.748 193.965 584.415 181.822 566.147Z" fill="white"/>
<path opacity="0.954" fill-rule="evenodd" clip-rule="evenodd" d="M284.822 565.147C301.537 564.722 318.204 565.222 334.822 566.647C352.68 572.848 359.846 585.348 356.322 604.147C351.988 618.14 342.488 625.973 327.822 627.647C319.162 628.147 310.495 628.313 301.822 628.147C301.822 637.814 301.822 647.48 301.822 657.147C296.155 657.147 290.489 657.147 284.822 657.147C284.822 626.48 284.822 595.814 284.822 565.147ZM301.822 581.147C311.569 580.727 321.236 581.227 330.822 582.647C339.671 588.195 341.837 595.695 337.322 605.147C334.763 608.178 331.596 610.345 327.822 611.647C319.202 612.899 310.535 613.399 301.822 613.147C301.822 602.48 301.822 591.814 301.822 581.147Z" fill="white"/>
<path opacity="0.942" fill-rule="evenodd" clip-rule="evenodd" d="M365.822 565.147C390.822 565.147 415.822 565.147 440.822 565.147C440.822 570.48 440.822 575.814 440.822 581.147C431.155 581.147 421.489 581.147 411.822 581.147C411.822 606.48 411.822 631.814 411.822 657.147C406.155 657.147 400.489 657.147 394.822 657.147C394.822 631.814 394.822 606.48 394.822 581.147C385.155 581.147 375.489 581.147 365.822 581.147C365.822 575.814 365.822 570.48 365.822 565.147Z" fill="white"/>
<path opacity="0.972" fill-rule="evenodd" clip-rule="evenodd" d="M562.822 565.147C568.822 565.147 574.822 565.147 580.822 565.147C580.652 579.817 580.822 594.484 581.322 609.147C595.152 594.647 608.992 580.147 622.822 565.647C629.822 564.98 636.822 564.98 643.822 565.647C631.522 578.951 618.852 591.951 605.822 604.647C618.942 621.724 631.942 638.891 644.822 656.147C637.822 657.48 630.822 657.48 623.822 656.147C613.792 643.289 603.962 630.289 594.322 617.147C589.992 621.48 585.652 625.814 581.322 630.147C580.822 639.141 580.652 648.141 580.822 657.147C574.822 657.147 568.822 657.147 562.822 657.147C562.822 626.48 562.822 595.814 562.822 565.147Z" fill="white"/>
<path opacity="0.949" fill-rule="evenodd" clip-rule="evenodd" d="M657.822 565.147C680.822 565.147 703.822 565.147 726.822 565.147C726.822 570.147 726.822 575.147 726.822 580.147C709.492 580.147 692.152 580.147 674.822 580.147C674.822 587.814 674.822 595.48 674.822 603.147C690.152 603.147 705.492 603.147 720.822 603.147C720.822 608.147 720.822 613.147 720.822 618.147C705.492 618.147 690.152 618.147 674.822 618.147C674.822 626.147 674.822 634.147 674.822 642.147C692.492 642.147 710.152 642.147 727.822 642.147C727.822 647.147 727.822 652.147 727.822 657.147C704.492 657.147 681.152 657.147 657.822 657.147C657.822 626.48 657.822 595.814 657.822 565.147Z" fill="white"/>
<path opacity="0.976" fill-rule="evenodd" clip-rule="evenodd" d="M825.822 565.147C825.822 595.814 825.822 626.48 825.822 657.147C820.782 657.474 815.782 657.141 810.822 656.147C794.992 635.814 779.152 615.48 763.322 595.147C762.822 615.811 762.652 636.478 762.822 657.147C757.152 657.147 751.492 657.147 745.822 657.147C745.822 626.48 745.822 595.814 745.822 565.147C751.162 564.981 756.502 565.148 761.822 565.647C777.652 586.147 793.492 606.647 809.322 627.147C809.822 606.483 809.992 585.816 809.822 565.147C815.152 565.147 820.492 565.147 825.822 565.147Z" fill="white"/>
<path opacity="0.917" fill-rule="evenodd" clip-rule="evenodd" d="M243.822 690.147C248.168 689.981 252.501 690.148 256.822 690.647C262.655 699.814 268.489 708.98 274.322 718.147C280.613 709.067 286.779 699.9 292.822 690.647C297.143 690.148 301.476 689.981 305.822 690.147C305.822 711.147 305.822 732.147 305.822 753.147C301.822 753.147 297.822 753.147 293.822 753.147C293.989 738.81 293.822 724.476 293.322 710.147C287.687 719.758 281.354 728.758 274.322 737.147C267.839 728.859 261.839 720.192 256.322 711.147C255.822 725.143 255.655 739.143 255.822 753.147C251.822 753.147 247.822 753.147 243.822 753.147C243.822 732.147 243.822 711.147 243.822 690.147Z" fill="white"/>
<path opacity="0.937" fill-rule="evenodd" clip-rule="evenodd" d="M331.822 690.147C347.489 690.147 363.155 690.147 378.822 690.147C378.822 693.814 378.822 697.48 378.822 701.147C367.155 701.147 355.489 701.147 343.822 701.147C343.822 706.147 343.822 711.147 343.822 716.147C354.155 716.147 364.489 716.147 374.822 716.147C374.822 719.48 374.822 722.814 374.822 726.147C364.489 726.147 354.155 726.147 343.822 726.147C343.822 731.48 343.822 736.814 343.822 742.147C355.489 742.147 367.155 742.147 378.822 742.147C378.822 745.814 378.822 749.48 378.822 753.147C363.155 753.147 347.489 753.147 331.822 753.147C331.822 732.147 331.822 711.147 331.822 690.147Z" fill="white"/>
<path opacity="0.956" fill-rule="evenodd" clip-rule="evenodd" d="M402.822 690.147C413.161 689.981 423.494 690.147 433.822 690.647C453.305 696.153 461.472 708.987 458.322 729.147C453.958 743.176 444.458 751.009 429.822 752.647C420.828 753.147 411.828 753.313 402.822 753.147C402.822 732.147 402.822 711.147 402.822 690.147ZM413.822 701.147C419.831 700.981 425.831 701.148 431.822 701.647C445.865 707.586 450.032 717.752 444.322 732.147C440.839 737.283 436.006 740.45 429.822 741.647C424.499 742.146 419.166 742.313 413.822 742.147C413.822 728.48 413.822 714.814 413.822 701.147Z" fill="white"/>
<path opacity="0.98" fill-rule="evenodd" clip-rule="evenodd" d="M483.822 690.147C487.492 690.147 491.152 690.147 494.822 690.147C494.822 711.147 494.822 732.147 494.822 753.147C491.152 753.147 487.492 753.147 483.822 753.147C483.822 732.147 483.822 711.147 483.822 690.147Z" fill="white"/>
<path opacity="0.935" fill-rule="evenodd" clip-rule="evenodd" d="M543.822 689.147C547.762 688.854 551.592 689.187 555.322 690.147C564.362 711.054 573.522 731.888 582.822 752.647C578.452 753.475 574.122 753.308 569.822 752.147C567.952 747.573 565.952 743.073 563.822 738.647C554.142 737.815 544.472 737.982 534.822 739.147C532.952 743.721 530.952 748.221 528.822 752.647C524.782 753.474 520.782 753.307 516.822 752.147C526.112 731.242 535.112 710.242 543.822 689.147ZM548.822 705.147C552.512 711.838 555.842 718.838 558.822 726.147C552.512 727.311 546.182 727.478 539.822 726.647C543.312 719.676 546.312 712.51 548.822 705.147Z" fill="white"/>
</svg>
