<svg width="2948" height="640" viewBox="0 0 2948 640" fill="none" xmlns="http://www.w3.org/2000/svg">
<g clip-path="url(#clip0_2_231)">
<path d="M10.3228 474.839V154.839V144.516H41.2905L247.742 185.806L309.678 516.129L289.032 629.677L10.3228 474.839Z" fill="white"/>
<path fill-rule="evenodd" clip-rule="evenodd" d="M0.0550525 191.723C0.619721 186.415 5.38037 182.57 10.6883 183.134C36.3844 185.868 69.3262 197.387 102.327 221.331C106.647 224.466 107.608 230.509 104.474 234.83C101.339 239.15 95.2954 240.111 90.975 236.976C60.4265 214.812 30.6452 204.697 8.64341 202.356C3.33552 201.791 -0.509616 197.031 0.0550525 191.723ZM138.816 267.45C142.929 264.048 149.021 264.625 152.423 268.738C204.426 331.618 246.459 424.496 246.459 584.178C246.459 589.516 242.131 593.843 236.794 593.843C231.456 593.843 227.128 589.516 227.128 584.178C227.128 428.319 186.262 339.986 137.527 281.057C134.126 276.944 134.702 270.852 138.816 267.45Z" fill="url(#paint0_linear_2_231)"/>
<path fill-rule="evenodd" clip-rule="evenodd" d="M0.289395 248.391C1.58401 243.213 6.83148 240.064 12.0099 241.359C49.2755 250.675 106.515 285.088 146.667 357.18C149.264 361.843 147.589 367.729 142.926 370.327C138.262 372.924 132.377 371.249 129.779 366.586C92.0837 298.903 39.1242 268.062 7.32172 260.112C2.14326 258.817 -1.00522 253.57 0.289395 248.391ZM152.861 391.542C157.832 389.597 163.439 392.051 165.383 397.022C182.324 440.325 193.301 484.421 193.301 550.35C193.301 555.688 188.974 560.016 183.636 560.016C178.298 560.016 173.971 555.688 173.971 550.35C173.971 487.038 163.523 445.324 147.382 404.064C145.437 399.093 147.89 393.487 152.861 391.542Z" fill="url(#paint1_linear_2_231)"/>
<path fill-rule="evenodd" clip-rule="evenodd" d="M0.230974 321.126C1.38891 315.915 6.55174 312.63 11.7625 313.788C36.7728 319.346 65.2352 340.792 87.2435 374.748C109.451 409.011 125.646 456.763 125.646 516.523C125.646 521.861 121.319 526.188 115.981 526.188C110.643 526.188 106.316 521.861 106.316 516.523C106.316 460.303 91.0993 416.237 71.0227 385.261C50.7466 353.978 26.0514 336.765 7.56919 332.658C2.35847 331.5 -0.926966 326.337 0.230974 321.126Z" fill="url(#paint2_linear_2_231)"/>
<path fill-rule="evenodd" clip-rule="evenodd" d="M0.048787 399.581C0.579922 394.27 5.31619 390.395 10.6275 390.926C26.845 392.548 51.0664 406.265 61.9463 441.158C63.5353 446.254 60.6923 451.673 55.5965 453.262C50.5006 454.851 45.0815 452.008 43.4926 446.912C34.7528 418.883 16.6608 410.956 8.70413 410.16C3.39278 409.629 -0.482348 404.892 0.048787 399.581Z" fill="url(#paint3_linear_2_231)"/>
<path fill-rule="evenodd" clip-rule="evenodd" d="M218.645 15.4849C238.994 3.84571 262.062 -2.27808 285.537 -2.27808C309.013 -2.27808 332.08 3.84572 352.429 15.4849L571.076 140.81V468.227L285.513 631.753L-0.00146484 468.227V140.81L218.645 15.4849ZM228.243 32.2641C228.241 32.2649 228.244 32.2633 228.243 32.2641L19.3286 152.011V457.022L285.514 609.477L551.746 457.021V152.011L342.832 32.2641C342.83 32.2633 342.833 32.2649 342.832 32.2641C325.412 22.3012 305.651 17.0519 285.537 17.0519C265.423 17.0519 245.663 22.3012 228.243 32.2641Z" fill="url(#paint4_linear_2_231)"/>
<path d="M347.63 23.8745L561.411 146.41V462.624L285.514 620.615C285.513 210.951 63.2458 146.411 9.66354 146.411L223.444 23.8745C242.329 13.0727 263.742 7.38693 285.537 7.38693C307.333 7.38693 328.746 13.0727 347.63 23.8745Z" fill="url(#paint5_linear_2_231)"/>
<path d="M1049.13 328.219C1049.13 348.039 1045.91 366.186 1039.47 382.661C1033.03 399.012 1023.92 413.071 1012.16 424.839C1000.51 436.606 986.454 445.773 969.979 452.338C953.628 458.779 935.419 462 915.352 462H814.273V194.439H915.352C935.419 194.439 953.628 197.721 969.979 204.286C986.454 210.728 1000.51 219.832 1012.16 231.6C1023.92 243.368 1033.03 257.489 1039.47 273.964C1045.91 290.315 1049.13 308.4 1049.13 328.219ZM1004.72 328.219C1004.72 312.859 1002.62 299.048 998.407 286.785C994.319 274.521 988.374 264.178 980.57 255.755C972.89 247.332 963.537 240.89 952.513 236.431C941.488 231.848 929.101 229.556 915.352 229.556H857.937V426.883H915.352C929.101 426.883 941.488 424.653 952.513 420.194C963.537 415.734 972.89 409.293 980.57 400.87C988.374 392.323 994.319 381.979 998.407 369.84C1002.62 357.577 1004.72 343.703 1004.72 328.219ZM1186.09 379.13C1171.84 379.626 1159.83 380.803 1150.04 382.661C1140.26 384.395 1132.33 386.686 1126.26 389.535C1120.19 392.261 1115.79 395.543 1113.07 399.383C1110.47 403.223 1109.17 407.435 1109.17 412.018C1109.17 416.477 1109.85 420.317 1111.21 423.538C1112.7 426.635 1114.68 429.236 1117.15 431.342C1119.76 433.324 1122.73 434.81 1126.07 435.801C1129.54 436.668 1133.32 437.102 1137.41 437.102C1147.81 437.102 1156.73 435.182 1164.16 431.342C1171.72 427.378 1179.03 421.68 1186.09 414.248V379.13ZM1080.18 298.862C1101.61 278.919 1127.13 268.947 1156.73 268.947C1167.63 268.947 1177.29 270.743 1185.72 274.335C1194.26 277.804 1201.39 282.759 1207.09 289.2C1212.91 295.641 1217.3 303.321 1220.28 312.24C1223.37 321.035 1224.92 330.821 1224.92 341.597V462H1207.09C1203.25 462 1200.33 461.443 1198.35 460.328C1196.37 459.089 1194.7 456.674 1193.34 453.081L1189.43 437.659C1184.6 441.995 1179.83 445.897 1175.13 449.365C1170.42 452.71 1165.53 455.559 1160.45 457.912C1155.49 460.266 1150.1 462 1144.28 463.115C1138.58 464.354 1132.27 464.973 1125.33 464.973C1117.65 464.973 1110.47 463.92 1103.78 461.814C1097.21 459.708 1091.51 456.55 1086.68 452.338C1081.85 448.003 1078.01 442.676 1075.16 436.359C1072.44 430.041 1071.07 422.609 1071.07 414.062C1071.07 406.754 1072.99 399.631 1076.83 392.694C1080.8 385.757 1087.24 379.564 1096.16 374.114C1105.2 368.539 1117.03 363.956 1131.65 360.364C1146.39 356.772 1164.54 354.728 1186.09 354.232V341.597C1186.09 327.972 1183.18 317.814 1177.36 311.125C1171.53 304.436 1162.99 301.092 1151.71 301.092C1144.03 301.092 1137.59 302.083 1132.39 304.065C1127.19 305.923 1122.67 307.966 1118.83 310.196C1114.99 312.426 1111.58 314.532 1108.61 316.514C1105.63 318.372 1102.48 319.301 1099.13 319.301C1096.41 319.301 1094.05 318.619 1092.07 317.257C1090.21 315.77 1088.66 313.974 1087.43 311.868L1080.18 298.862ZM1329.94 464.973C1314.21 464.973 1302.07 460.575 1293.52 451.781C1285.1 442.862 1280.89 430.351 1280.89 414.248V303.879H1260.07C1257.85 303.879 1255.93 303.197 1254.31 301.835C1252.7 300.348 1251.9 298.181 1251.9 295.332V279.166L1282.56 274.707L1291.29 219.894C1291.91 217.788 1292.96 216.116 1294.45 214.877C1295.94 213.515 1297.92 212.834 1300.39 212.834H1320.83V275.079H1373.42V303.879H1320.83V411.461C1320.83 418.274 1322.51 423.476 1325.85 427.068C1329.19 430.661 1333.65 432.457 1339.23 432.457C1342.33 432.457 1344.99 432.085 1347.22 431.342C1349.45 430.475 1351.37 429.608 1352.98 428.741C1354.59 427.75 1355.95 426.883 1357.07 426.139C1358.3 425.272 1359.48 424.839 1360.6 424.839C1362.83 424.839 1364.62 426.077 1365.98 428.555L1377.88 448.065C1371.68 453.515 1364.37 457.726 1355.95 460.699C1347.53 463.548 1338.86 464.973 1329.94 464.973ZM1506.17 379.13C1491.92 379.626 1479.91 380.803 1470.12 382.661C1460.34 384.395 1452.41 386.686 1446.34 389.535C1440.27 392.261 1435.87 395.543 1433.15 399.383C1430.55 403.223 1429.25 407.435 1429.25 412.018C1429.25 416.477 1429.93 420.317 1431.29 423.538C1432.78 426.635 1434.76 429.236 1437.24 431.342C1439.84 433.324 1442.81 434.81 1446.15 435.801C1449.62 436.668 1453.4 437.102 1457.49 437.102C1467.89 437.102 1476.81 435.182 1484.24 431.342C1491.8 427.378 1499.11 421.68 1506.17 414.248V379.13ZM1400.26 298.862C1421.69 278.919 1447.21 268.947 1476.81 268.947C1487.71 268.947 1497.37 270.743 1505.8 274.335C1514.35 277.804 1521.47 282.759 1527.17 289.2C1532.99 295.641 1537.39 303.321 1540.36 312.24C1543.45 321.035 1545 330.821 1545 341.597V462H1527.17C1523.33 462 1520.41 461.443 1518.43 460.328C1516.45 459.089 1514.78 456.674 1513.42 453.081L1509.51 437.659C1504.68 441.995 1499.91 445.897 1495.21 449.365C1490.5 452.71 1485.61 455.559 1480.53 457.912C1475.57 460.266 1470.19 462 1464.36 463.115C1458.67 464.354 1452.35 464.973 1445.41 464.973C1437.73 464.973 1430.55 463.92 1423.86 461.814C1417.29 459.708 1411.59 456.55 1406.76 452.338C1401.93 448.003 1398.09 442.676 1395.24 436.359C1392.52 430.041 1391.16 422.609 1391.16 414.062C1391.16 406.754 1393.08 399.631 1396.92 392.694C1400.88 385.757 1407.32 379.564 1416.24 374.114C1425.28 368.539 1437.11 363.956 1451.73 360.364C1466.47 356.772 1484.62 354.728 1506.17 354.232V341.597C1506.17 327.972 1503.26 317.814 1497.44 311.125C1491.61 304.436 1483.07 301.092 1471.8 301.092C1464.12 301.092 1457.67 302.083 1452.47 304.065C1447.27 305.923 1442.75 307.966 1438.91 310.196C1435.07 312.426 1431.66 314.532 1428.69 316.514C1425.72 318.372 1422.56 319.301 1419.21 319.301C1416.49 319.301 1414.13 318.619 1412.15 317.257C1410.29 315.77 1408.75 313.974 1407.51 311.868L1400.26 298.862ZM1754.3 272.477L1678.12 462H1642.07L1565.89 272.477H1598.78C1601.88 272.477 1604.42 273.283 1606.4 274.893C1608.5 276.379 1609.87 278.175 1610.49 280.281L1652.48 390.65C1654.21 395.853 1655.76 400.994 1657.12 406.072C1658.49 411.151 1659.66 416.292 1660.65 421.494C1661.64 416.292 1662.82 411.213 1664.18 406.258C1665.67 401.179 1667.28 395.977 1669.01 390.65L1711.75 280.281C1712.49 278.052 1713.86 276.194 1715.84 274.707C1717.82 273.221 1720.24 272.477 1723.08 272.477H1754.3ZM1900.46 345.871C1900.46 339.182 1899.47 332.988 1897.49 327.29C1895.63 321.468 1892.84 316.452 1889.13 312.24C1885.41 307.905 1880.76 304.56 1875.19 302.206C1869.74 299.729 1863.42 298.49 1856.24 298.49C1841.74 298.49 1830.35 302.64 1822.05 310.939C1813.75 319.239 1808.49 330.883 1806.26 345.871H1900.46ZM1805.14 370.397C1805.64 381.174 1807.31 390.526 1810.16 398.454C1813.01 406.258 1816.78 412.761 1821.49 417.964C1826.32 423.166 1832.02 427.068 1838.59 429.67C1845.28 432.147 1852.71 433.386 1860.88 433.386C1868.69 433.386 1875.44 432.519 1881.14 430.785C1886.83 428.926 1891.79 426.945 1896 424.839C1900.21 422.609 1903.8 420.627 1906.78 418.893C1909.75 417.035 1912.48 416.106 1914.95 416.106C1918.17 416.106 1920.65 417.345 1922.38 419.822L1933.72 434.501C1929.01 440.075 1923.69 444.782 1917.74 448.622C1911.79 452.462 1905.48 455.621 1898.79 458.098C1892.1 460.452 1885.22 462.124 1878.16 463.115C1871.1 464.23 1864.23 464.787 1857.54 464.787C1844.41 464.787 1832.21 462.619 1820.93 458.284C1809.79 453.825 1800.06 447.321 1791.76 438.774C1783.59 430.227 1777.15 419.636 1772.44 407.001C1767.86 394.366 1765.56 379.812 1765.56 363.337C1765.56 350.206 1767.61 337.943 1771.7 326.547C1775.91 315.151 1781.85 305.241 1789.53 296.818C1797.34 288.395 1806.75 281.768 1817.78 276.937C1828.92 271.982 1841.5 269.505 1855.49 269.505C1867.14 269.505 1877.92 271.425 1887.82 275.265C1897.73 278.981 1906.28 284.493 1913.47 291.801C1920.65 299.11 1926.22 308.09 1930.19 318.743C1934.28 329.272 1936.32 341.288 1936.32 354.79C1936.32 360.983 1935.64 365.133 1934.28 367.239C1932.91 369.345 1930.44 370.397 1926.84 370.397H1805.14ZM2011.29 307.595C2017.24 295.579 2024.42 286.165 2032.85 279.352C2041.27 272.415 2051.37 268.947 2063.13 268.947C2067.22 268.947 2071.06 269.443 2074.65 270.434C2078.25 271.301 2081.47 272.663 2084.32 274.521L2081.53 304.622C2081.03 306.728 2080.23 308.214 2079.11 309.081C2078.12 309.825 2076.76 310.196 2075.02 310.196C2073.17 310.196 2070.5 309.886 2067.04 309.267C2063.57 308.524 2059.91 308.152 2056.07 308.152C2050.5 308.152 2045.54 308.957 2041.21 310.568C2037 312.178 2033.16 314.532 2029.69 317.628C2026.34 320.725 2023.37 324.503 2020.77 328.963C2018.17 333.422 2015.75 338.501 2013.52 344.199V462H1973.57V272.477H1996.8C2001.01 272.477 2003.92 273.283 2005.53 274.893C2007.14 276.379 2008.26 279.043 2008.88 282.883L2011.29 307.595ZM2222.82 306.852C2221.83 308.586 2220.71 309.825 2219.47 310.568C2218.24 311.311 2216.69 311.683 2214.83 311.683C2212.72 311.683 2210.43 311.063 2207.95 309.825C2205.48 308.462 2202.57 306.975 2199.22 305.365C2195.88 303.755 2191.91 302.33 2187.33 301.092C2182.87 299.729 2177.61 299.048 2171.54 299.048C2166.58 299.048 2162.06 299.667 2157.97 300.906C2154.01 302.021 2150.6 303.693 2147.75 305.923C2145.03 308.028 2142.92 310.568 2141.44 313.541C2139.95 316.39 2139.21 319.486 2139.21 322.831C2139.21 327.29 2140.57 331.006 2143.29 333.979C2146.02 336.952 2149.61 339.554 2154.07 341.783C2158.53 343.889 2163.61 345.809 2169.31 347.543C2175.01 349.277 2180.83 351.135 2186.77 353.117C2192.72 355.099 2198.54 357.391 2204.24 359.992C2209.94 362.594 2215.02 365.814 2219.47 369.654C2223.93 373.37 2227.53 377.954 2230.25 383.404C2232.98 388.73 2234.34 395.234 2234.34 402.914C2234.34 411.832 2232.73 420.07 2229.51 427.626C2226.29 435.182 2221.58 441.747 2215.39 447.321C2209.19 452.895 2201.45 457.231 2192.16 460.328C2182.99 463.425 2172.47 464.973 2160.57 464.973C2154.01 464.973 2147.63 464.354 2141.44 463.115C2135.37 462 2129.54 460.452 2123.97 458.47C2118.52 456.364 2113.38 453.886 2108.55 451.037C2103.84 448.188 2099.63 445.092 2095.91 441.747L2105.2 426.511C2106.32 424.653 2107.68 423.228 2109.29 422.237C2111.03 421.123 2113.13 420.565 2115.61 420.565C2118.21 420.565 2120.75 421.432 2123.23 423.166C2125.83 424.777 2128.8 426.573 2132.15 428.555C2135.61 430.537 2139.76 432.395 2144.59 434.129C2149.43 435.739 2155.43 436.545 2162.62 436.545C2168.56 436.545 2173.7 435.863 2178.04 434.501C2182.38 433.014 2185.97 431.032 2188.82 428.555C2191.67 426.077 2193.77 423.29 2195.13 420.194C2196.5 416.973 2197.18 413.566 2197.18 409.974C2197.18 405.143 2195.82 401.179 2193.09 398.083C2190.37 394.986 2186.71 392.323 2182.13 390.093C2177.67 387.863 2172.53 385.881 2166.71 384.147C2161.01 382.413 2155.19 380.555 2149.24 378.573C2143.29 376.591 2137.41 374.299 2131.59 371.698C2125.89 369.097 2120.75 365.814 2116.17 361.85C2111.71 357.763 2108.11 352.87 2105.39 347.172C2102.66 341.35 2101.3 334.289 2101.3 325.99C2101.3 318.434 2102.79 311.249 2105.76 304.436C2108.86 297.623 2113.32 291.615 2119.14 286.413C2125.09 281.21 2132.33 277.123 2140.88 274.15C2149.55 271.053 2159.52 269.505 2170.79 269.505C2183.55 269.505 2195.13 271.548 2205.54 275.636C2215.94 279.724 2224.68 285.298 2231.74 292.359L2222.82 306.852ZM2396.19 345.871C2396.19 339.182 2395.19 332.988 2393.21 327.29C2391.35 321.468 2388.57 316.452 2384.85 312.24C2381.14 307.905 2376.49 304.56 2370.92 302.206C2365.47 299.729 2359.15 298.49 2351.96 298.49C2337.47 298.49 2326.07 302.64 2317.78 310.939C2309.48 319.239 2304.21 330.883 2301.98 345.871H2396.19ZM2300.87 370.397C2301.36 381.174 2303.03 390.526 2305.88 398.454C2308.73 406.258 2312.51 412.761 2317.22 417.964C2322.05 423.166 2327.75 427.068 2334.31 429.67C2341 432.147 2348.43 433.386 2356.61 433.386C2364.41 433.386 2371.16 432.519 2376.86 430.785C2382.56 428.926 2387.51 426.945 2391.73 424.839C2395.94 422.609 2399.53 420.627 2402.5 418.893C2405.48 417.035 2408.2 416.106 2410.68 416.106C2413.9 416.106 2416.38 417.345 2418.11 419.822L2429.44 434.501C2424.74 440.075 2419.41 444.782 2413.47 448.622C2407.52 452.462 2401.2 455.621 2394.51 458.098C2387.82 460.452 2380.95 462.124 2373.89 463.115C2366.83 464.23 2359.95 464.787 2353.26 464.787C2340.13 464.787 2327.93 462.619 2316.66 458.284C2305.51 453.825 2295.79 447.321 2287.49 438.774C2279.31 430.227 2272.87 419.636 2268.16 407.001C2263.58 394.366 2261.29 379.812 2261.29 363.337C2261.29 350.206 2263.33 337.943 2267.42 326.547C2271.63 315.151 2277.58 305.241 2285.26 296.818C2293.06 288.395 2302.48 281.768 2313.5 276.937C2324.65 271.982 2337.22 269.505 2351.22 269.505C2362.86 269.505 2373.64 271.425 2383.55 275.265C2393.46 278.981 2402.01 284.493 2409.19 291.801C2416.38 299.11 2421.95 308.09 2425.91 318.743C2430 329.272 2432.05 341.288 2432.05 354.79C2432.05 360.983 2431.36 365.133 2430 367.239C2428.64 369.345 2426.16 370.397 2422.57 370.397H2300.87ZM2727.04 328.219C2727.04 348.039 2723.82 366.31 2717.38 383.032C2710.94 399.755 2701.83 414.186 2690.06 426.325C2678.42 438.341 2664.36 447.755 2647.89 454.568C2631.54 461.381 2613.33 464.787 2593.26 464.787C2573.32 464.787 2555.11 461.381 2538.63 454.568C2522.28 447.755 2508.22 438.341 2496.45 426.325C2484.69 414.186 2475.58 399.755 2469.14 383.032C2462.7 366.31 2459.48 348.039 2459.48 328.219C2459.48 308.4 2462.7 290.129 2469.14 273.406C2475.58 256.684 2484.69 242.253 2496.45 230.114C2508.22 217.974 2522.28 208.498 2538.63 201.685C2555.11 194.872 2573.32 191.466 2593.26 191.466C2613.33 191.466 2631.54 194.872 2647.89 201.685C2664.36 208.498 2678.42 217.974 2690.06 230.114C2701.83 242.253 2710.94 256.684 2717.38 273.406C2723.82 290.129 2727.04 308.4 2727.04 328.219ZM2682.63 328.219C2682.63 312.859 2680.53 299.048 2676.31 286.785C2672.23 274.521 2666.28 264.116 2658.48 255.569C2650.8 247.022 2641.45 240.457 2630.42 235.874C2619.4 231.29 2607.01 228.999 2593.26 228.999C2579.63 228.999 2567.31 231.29 2556.28 235.874C2545.26 240.457 2535.85 247.022 2528.04 255.569C2520.24 264.116 2514.23 274.521 2510.02 286.785C2505.81 299.048 2503.7 312.859 2503.7 328.219C2503.7 343.703 2505.81 357.577 2510.02 369.84C2514.23 382.103 2520.24 392.508 2528.04 401.055C2535.85 409.479 2545.26 415.982 2556.28 420.565C2567.31 425.025 2579.63 427.254 2593.26 427.254C2607.01 427.254 2619.4 425.025 2630.42 420.565C2641.45 415.982 2650.8 409.479 2658.48 401.055C2666.28 392.508 2672.23 382.103 2676.31 369.84C2680.53 357.577 2682.63 343.703 2682.63 328.219ZM2914.59 240.147C2913.23 242.377 2911.8 244.049 2910.31 245.164C2908.83 246.155 2906.97 246.65 2904.74 246.65C2902.39 246.65 2899.72 245.659 2896.75 243.677C2893.9 241.695 2890.31 239.528 2885.97 237.174C2881.76 234.697 2876.75 232.467 2870.92 230.485C2865.1 228.379 2858.17 227.326 2850.11 227.326C2842.68 227.326 2836.12 228.255 2830.42 230.114C2824.84 231.972 2820.14 234.573 2816.3 237.917C2812.46 241.262 2809.55 245.226 2807.56 249.809C2805.71 254.268 2804.78 259.161 2804.78 264.488C2804.78 271.301 2806.57 276.999 2810.17 281.582C2813.76 286.041 2818.46 289.881 2824.29 293.102C2830.23 296.323 2836.98 299.172 2844.54 301.649C2852.1 304.003 2859.78 306.542 2867.58 309.267C2875.51 311.992 2883.25 315.089 2890.81 318.557C2898.36 322.026 2905.05 326.423 2910.87 331.75C2916.82 337.076 2921.59 343.579 2925.18 351.259C2928.77 358.939 2930.57 368.292 2930.57 379.316C2930.57 391.208 2928.52 402.356 2924.44 412.761C2920.35 423.166 2914.4 432.271 2906.6 440.075C2898.92 447.755 2889.38 453.825 2877.98 458.284C2866.71 462.743 2853.83 464.973 2839.34 464.973C2830.79 464.973 2822.43 464.106 2814.25 462.372C2806.2 460.761 2798.46 458.47 2791.03 455.497C2783.72 452.4 2776.84 448.684 2770.4 444.348C2763.96 440.013 2758.2 435.182 2753.12 429.855L2765.76 409.045C2766.87 407.311 2768.3 405.948 2770.03 404.957C2771.77 403.966 2773.69 403.471 2775.79 403.471C2778.64 403.471 2781.8 404.834 2785.27 407.559C2788.74 410.16 2792.89 413.071 2797.72 416.292C2802.67 419.388 2808.62 422.299 2815.55 425.025C2822.49 427.626 2830.79 428.926 2840.45 428.926C2856.18 428.926 2868.32 425.086 2876.87 417.406C2885.54 409.726 2889.88 399.135 2889.88 385.634C2889.88 378.077 2888.08 371.946 2884.49 367.239C2880.9 362.408 2876.13 358.382 2870.18 355.161C2864.36 351.941 2857.67 349.215 2850.11 346.986C2842.56 344.756 2834.88 342.403 2827.07 339.925C2819.27 337.324 2811.59 334.351 2804.03 331.006C2796.48 327.538 2789.73 323.079 2783.78 317.628C2777.96 312.054 2773.25 305.241 2769.66 297.19C2766.07 289.014 2764.27 278.857 2764.27 266.717C2764.27 257.055 2766.13 247.703 2769.85 238.661C2773.69 229.618 2779.2 221.628 2786.38 214.692C2793.69 207.631 2802.67 201.995 2813.32 197.783C2823.98 193.572 2836.12 191.466 2849.74 191.466C2865.1 191.466 2879.16 193.881 2891.92 198.712C2904.8 203.543 2915.89 210.418 2925.18 219.337L2914.59 240.147Z" fill="white"/>
</g>
<defs>
<linearGradient id="paint0_linear_2_231" x1="123.229" y1="2.55888" x2="123.229" y2="635.617" gradientUnits="userSpaceOnUse">
<stop stop-color="#5FC4F1"/>
<stop offset="0.0001" stop-color="#5FC4F1"/>
<stop offset="1" stop-color="#007AFF"/>
</linearGradient>
<linearGradient id="paint1_linear_2_231" x1="123.229" y1="2.55888" x2="123.229" y2="635.617" gradientUnits="userSpaceOnUse">
<stop stop-color="#5FC4F1"/>
<stop offset="0.0001" stop-color="#5FC4F1"/>
<stop offset="1" stop-color="#007AFF"/>
</linearGradient>
<linearGradient id="paint2_linear_2_231" x1="123.229" y1="2.55888" x2="123.229" y2="635.617" gradientUnits="userSpaceOnUse">
<stop stop-color="#5FC4F1"/>
<stop offset="0.0001" stop-color="#5FC4F1"/>
<stop offset="1" stop-color="#007AFF"/>
</linearGradient>
<linearGradient id="paint3_linear_2_231" x1="123.229" y1="2.55888" x2="123.229" y2="635.617" gradientUnits="userSpaceOnUse">
<stop stop-color="#5FC4F1"/>
<stop offset="0.0001" stop-color="#5FC4F1"/>
<stop offset="1" stop-color="#007AFF"/>
</linearGradient>
<linearGradient id="paint4_linear_2_231" x1="285.537" y1="-2.27808" x2="285.537" y2="631.753" gradientUnits="userSpaceOnUse">
<stop stop-color="#5FC4F1"/>
<stop offset="1" stop-color="#007AFF"/>
</linearGradient>
<linearGradient id="paint5_linear_2_231" x1="285.537" y1="-2.27808" x2="285.537" y2="631.753" gradientUnits="userSpaceOnUse">
<stop stop-color="#5FC4F1"/>
<stop offset="1" stop-color="#007AFF"/>
</linearGradient>
<clipPath id="clip0_2_231">
<rect width="2947.5" height="640" fill="white"/>
</clipPath>
</defs>
</svg>
