<svg width="400" height="400" viewBox="0 0 400 400" fill="none" xmlns="http://www.w3.org/2000/svg">
<path d="M200.652 118H199.953C199.533 118 199.115 118.056 198.709 118.167L87.4414 148.739C86.453 149.013 85.5816 149.603 84.9602 150.419C84.3387 151.235 84.0015 152.232 84 153.258C84.0015 154.283 84.3387 155.28 84.9602 156.096C85.5816 156.912 86.453 157.502 87.4414 157.776L156.047 176.648L198.698 188.36C199.104 188.47 199.522 188.526 199.942 188.526H200.641C201.057 188.527 201.472 188.471 201.873 188.36L244.535 176.648L313.141 157.776C314.13 157.502 315.001 156.912 315.623 156.096C316.244 155.28 316.581 154.283 316.583 153.258C316.581 152.232 316.244 151.235 315.623 150.419C315.001 149.603 314.13 149.013 313.141 148.739L201.884 118.167C201.483 118.055 201.069 117.999 200.652 118Z" fill="#123461"/>
<path d="M201.84 197.404H198.754C198.337 197.404 197.923 197.348 197.522 197.238L140.605 181.596C139.791 181.374 138.933 181.374 138.119 181.596L87.4414 195.517C86.453 195.791 85.5816 196.381 84.9602 197.197C84.3387 198.013 84.0015 199.01 84 200.035C84.0003 201.06 84.3372 202.056 84.959 202.871C85.5808 203.685 86.453 204.272 87.4414 204.542L156.092 223.415L198.709 235.126C199.115 235.237 199.533 235.293 199.953 235.293H200.652C201.069 235.294 201.483 235.238 201.884 235.126L244.513 223.415L313.163 204.542C314.152 204.272 315.024 203.685 315.646 202.871C316.268 202.056 316.605 201.06 316.605 200.035C316.603 199.01 316.266 198.013 315.645 197.197C315.023 196.381 314.152 195.791 313.163 195.517L262.475 181.596C261.665 181.374 260.81 181.374 260 181.596L203.083 197.238C202.678 197.349 202.26 197.405 201.84 197.404Z" fill="#123461"/>
<path d="M201.84 244.104H198.754C198.337 244.104 197.923 244.048 197.522 243.938L140.628 228.307C139.814 228.085 138.955 228.085 138.141 228.307L87.4414 242.239C86.453 242.509 85.5808 243.097 84.959 243.911C84.3372 244.725 84.0003 245.722 84 246.746C84.0015 247.772 84.3387 248.769 84.9602 249.585C85.5816 250.4 86.453 250.99 87.4414 251.264L198.709 281.837C199.115 281.948 199.533 282.004 199.953 282.004H200.652C201.069 282.005 201.483 281.949 201.884 281.837L313.163 251.264C314.152 250.99 315.023 250.4 315.645 249.585C316.266 248.769 316.603 247.772 316.605 246.746C316.605 245.722 316.268 244.725 315.646 243.911C315.024 243.097 314.152 242.509 313.163 242.239L262.464 228.307C261.65 228.085 260.791 228.085 259.977 228.307L203.083 243.938C202.678 244.049 202.26 244.105 201.84 244.104Z" fill="#123461"/>
</svg>
