<svg width="50" height="50" viewBox="0 0 50 50" fill="none" xmlns="http://www.w3.org/2000/svg">
<path d="M27.7163 8H7.25282C5.59446 8 4.00392 8.65973 2.83127 9.83417C1.65862 11.0088 1 12.6016 1 14.2626V34.7589C1 36.4199 1.65862 38.0129 2.83127 39.1873C4.00392 40.3618 5.59446 41.0215 7.25282 41.0215H27.7163C29.3746 41.0215 30.9651 40.3618 32.1376 39.1873C33.3102 38.0129 33.9691 36.4199 33.9691 34.7589V14.2626C33.9691 12.6016 33.3102 11.0088 32.1376 9.83417C30.9651 8.65973 29.3746 8 27.7163 8Z" fill="#246BFD"/>
<path d="M45.314 13.9041C45.0266 13.9657 44.7537 14.0817 44.5097 14.2457L39.6354 17.2177C38.8713 17.6873 38.2441 18.3499 37.8164 19.1391C37.3771 19.9449 37.1475 20.8485 37.1484 21.7666V27.2664C37.148 28.1865 37.3787 29.0921 37.8191 29.8996C38.2488 30.6907 38.8793 31.3544 39.6468 31.8239L44.5578 34.7959C44.876 34.9927 45.231 35.1216 45.6011 35.1745C45.969 35.226 46.3436 35.1997 46.701 35.0977C47.062 34.9931 47.3985 34.8171 47.6901 34.5795C47.9857 34.3363 48.2309 34.0375 48.4118 33.7C48.6588 33.2375 48.7875 32.7212 48.7871 32.1969V16.7962C48.7862 16.35 48.6891 15.9091 48.5028 15.5038C48.3186 15.1055 48.0488 14.7526 47.7128 14.4705C47.3833 14.1946 46.994 13.9996 46.5759 13.9012C46.1611 13.8014 45.7283 13.8026 45.314 13.9041Z" fill="#246BFD"/>
<path d="M12.9798 35.1997C11.4526 35.1997 10.2844 34.7546 9.47542 33.8646C8.66621 32.9744 8.26172 31.7181 8.26172 30.0954V19.4204C8.26172 17.794 8.66621 16.5367 9.47542 15.6486C10.2844 14.7604 11.4526 14.3155 12.9798 14.3135C14.4956 14.3135 15.6626 14.7586 16.4812 15.6486C17.2998 16.5388 17.7043 17.796 17.6949 19.4204V30.0954C17.6949 31.7181 17.2904 32.9744 16.4812 33.8646C15.6722 34.7546 14.5049 35.1997 12.9798 35.1997ZM12.9798 32.2989C14.0503 32.2989 14.5866 31.6347 14.5884 30.3063V19.2156C14.5884 17.887 14.0523 17.2228 12.9798 17.2228C11.9073 17.2228 11.3701 17.887 11.3683 19.2156V30.2976C11.3683 31.6338 11.9053 32.3009 12.9798 32.2989Z" fill="white"/>
<path d="M23.5885 19.4209H20.3398V17.158C21.0531 17.1785 21.7657 17.1 22.4574 16.9244C22.9569 16.8034 23.4116 16.5415 23.7674 16.17C24.1438 15.7042 24.4328 15.1736 24.6202 14.6045H26.7091V34.91H23.5885V19.4209Z" fill="white"/>
</svg>
