<svg width="97" height="38" viewBox="0 0 97 38" fill="none" xmlns="http://www.w3.org/2000/svg">
<path d="M34.5615 4.84717C34.428 4.78381 34.2945 4.7331 34.1737 4.66974C33.2676 4.27679 32.3333 3.93442 31.3991 3.60483C31.1462 3.52883 30.906 3.45269 30.6531 3.36404C29.813 3.09781 28.9715 2.85688 28.1046 2.65415C27.7717 2.57801 27.4247 2.502 27.0777 2.41322C26.3036 2.23578 25.5042 2.09628 24.7175 1.99498C24.3171 1.93148 23.9026 1.88077 23.5163 1.84283C22.7689 1.75404 22.0089 1.69069 21.2488 1.63997C20.8217 1.61468 20.3947 1.58925 19.9423 1.57661C19.5545 1.56397 19.1808 1.56396 18.7819 1.56396C18.4208 1.56396 18.0738 1.56397 17.7001 1.57661C17.2744 1.58925 16.8206 1.6019 16.3936 1.63997C15.6335 1.69069 14.8735 1.75404 14.1261 1.84283C13.7131 1.89355 13.3126 1.93148 12.9249 1.99498C12.1382 2.1217 11.3388 2.26121 10.5647 2.41322C10.2177 2.48936 9.88474 2.56537 9.53774 2.65415C8.68357 2.85688 7.82941 3.09781 6.98929 3.36404C6.73641 3.44004 6.49618 3.51619 6.22925 3.60483C5.28236 3.92178 4.36215 4.26401 3.4546 4.65709C3.32114 4.72045 3.18769 4.77117 3.05423 4.83453C2.01462 5.29083 0.987631 5.79799 0 6.33044C0 7.42063 0.0534009 8.47275 0.147528 9.525C0.160172 9.70244 0.174213 9.85459 0.200906 10.032C0.293628 10.9574 0.4271 11.8702 0.613949 12.7701C0.667335 13.0491 0.733362 13.3152 0.774104 13.6069C0.93426 14.4056 1.16045 15.1914 1.37399 15.9647C1.46812 16.3071 1.58753 16.6746 1.70695 17.017C1.93454 17.7268 2.1874 18.4113 2.46838 19.0959C2.62854 19.4888 2.80133 19.8819 2.96149 20.2622C3.855 19.5269 4.80189 18.8423 5.78952 18.2339C6.74905 17.6381 7.76337 17.1184 8.81703 16.6619C9.844 16.2056 10.9117 15.8253 12.0188 15.5337C12.8055 15.3182 13.633 15.1281 14.459 14.9886C14.7794 14.9379 15.087 14.8999 15.4059 14.8492C16.4469 14.7097 17.488 14.6337 18.5683 14.6337C18.6344 14.6337 18.7018 14.6337 18.7678 14.6337C18.8479 14.6337 18.9547 14.6337 19.0347 14.6337C20.1151 14.6464 21.1688 14.7224 22.1957 14.8745C22.516 14.9252 22.8363 14.9633 23.1567 15.0267C23.9827 15.1662 24.7976 15.3562 25.5843 15.5717C26.6913 15.8887 27.745 16.269 28.7846 16.7127C29.8397 17.1691 30.8526 17.7014 31.8135 18.2972C32.7998 18.9058 33.7467 19.5903 34.6275 20.3382C34.8144 19.9453 34.9745 19.5396 35.1347 19.134C35.4016 18.4748 35.6418 17.7776 35.8821 17.1056C34.9338 16.3957 33.9602 15.7365 32.9206 15.1407C31.9329 14.5576 30.8933 14.0505 29.813 13.6069C28.772 13.1632 27.6916 12.7956 26.5846 12.4786C26.1842 12.3645 25.7712 12.2631 25.3567 12.1617C24.6641 12.0095 23.956 11.8575 23.2367 11.7561C22.6228 11.6673 21.9962 11.5785 21.3682 11.5152C20.8625 11.4644 20.3286 11.4392 19.7948 11.4265C19.4478 11.4137 19.1008 11.4137 18.7411 11.4137C18.4082 11.4137 18.1005 11.4137 17.7675 11.4265C17.2337 11.4392 16.7139 11.4772 16.1941 11.5152C15.5661 11.5659 14.9395 11.642 14.3256 11.7307C13.6189 11.8447 12.9249 11.9842 12.2323 12.1364C11.8179 12.225 11.4048 12.3391 10.9918 12.4533C9.88475 12.7701 8.80439 13.1504 7.76337 13.5688C6.68302 14.0125 5.64202 14.5323 4.65579 15.09C4.65579 15.0774 4.64173 15.0393 4.64173 15.0267C4.32141 13.9618 4.08118 12.8716 3.88169 11.7561C3.88169 11.7307 3.86904 11.7054 3.86904 11.6799C3.66814 10.5645 3.53469 9.43621 3.46866 8.28267C4.54902 7.76286 5.65606 7.30656 6.7898 6.90083C6.80244 6.90083 6.80244 6.88818 6.81649 6.88818C7.92354 6.49524 9.06993 6.16565 10.2177 5.88664H10.2303C11.3388 5.62042 12.4585 5.40505 13.6063 5.24012C13.6189 5.24012 13.6597 5.24012 13.6864 5.22747C14.7794 5.07532 15.8864 4.96125 17.0075 4.91053C17.0342 4.91053 17.0876 4.91053 17.1269 4.91053C17.6608 4.89789 18.2073 4.88524 18.7411 4.88524C19.3017 4.88524 19.8889 4.89789 20.4214 4.91053C20.4481 4.91053 20.5014 4.91053 20.5422 4.91053C21.6619 4.97403 22.7689 5.06268 23.8633 5.22747C23.89 5.22747 23.9167 5.22747 23.9434 5.24012C25.0898 5.41769 26.2109 5.6332 27.3179 5.89943H27.332C28.4924 6.1783 29.6261 6.53317 30.7332 6.92626C30.7458 6.92626 30.7599 6.92625 30.7599 6.9389C31.9063 7.34449 33.0133 7.80093 34.081 8.3206C35.2007 8.85305 36.2951 9.44886 37.3488 10.108C37.3614 9.93059 37.3755 9.74037 37.4021 9.57558C37.4949 8.53611 37.5483 7.48399 37.5483 6.41909C36.6548 5.82328 35.6278 5.3289 34.5615 4.84717Z" fill="white"/>
<path d="M27.2014 19.0924C26.1758 18.6152 25.1109 18.2173 24.0067 17.9256C23.0598 17.6605 22.0609 17.4616 21.0747 17.3555C20.878 17.3423 20.6813 17.3026 20.5099 17.2892C19.9185 17.2363 19.327 17.2097 18.7215 17.2097C18.1301 17.2097 17.5653 17.2229 16.9991 17.276C16.8025 17.2892 16.6184 17.3024 16.4344 17.3423C15.4214 17.4616 14.4493 17.634 13.4897 17.8991C12.3855 18.1909 11.3066 18.5886 10.295 19.0658C9.26948 19.5432 8.29589 20.1001 7.36305 20.7365C6.41616 21.3995 5.52267 22.1154 4.69379 22.9242C5.02253 23.5474 5.37796 24.1573 5.75868 24.7671C6.00875 25.1649 6.24478 25.5494 6.50749 25.9339C6.91631 26.5439 7.32373 27.1272 7.75644 27.7106C8.02056 28.0553 8.28327 28.4 8.55862 28.7316C9.04612 29.3414 9.55888 29.9115 10.0703 30.495C10.3203 30.7733 10.5704 31.0385 10.8331 31.3038C11.5299 30.4153 12.3855 29.6464 13.345 29.0232C14.3706 28.3603 15.5268 27.883 16.7631 27.631C17.4206 27.4985 18.0781 27.4322 18.7875 27.4322C19.5111 27.4322 20.1938 27.5117 20.8513 27.6443C22.0876 27.9094 23.2312 28.3868 24.2568 29.063C23.4546 29.885 22.6131 30.654 21.7322 31.3965C21.7069 31.423 21.6676 31.4496 21.6409 31.476C21.5481 31.5557 21.4428 31.6352 21.3515 31.7015C21.1548 31.8605 20.9567 32.0197 20.7459 32.1787C20.7333 32.1921 20.7066 32.2053 20.694 32.2185C20.5099 32.3644 20.3259 32.4969 20.1292 32.6428C20.0632 32.6959 19.9845 32.7488 19.9185 32.7887C19.7738 32.8948 19.6291 33.0009 19.4844 33.0936C19.261 33.2528 19.0376 33.3986 18.8142 33.5576C17.9334 32.9611 17.0652 32.3245 16.2377 31.6484C15.014 31.9666 13.9815 32.6163 12.9966 33.3455C13.088 33.4251 13.0823 33.4251 13.1863 33.5047C13.2256 33.5444 13.2664 33.5842 13.331 33.6373C14.0671 34.2603 14.83 34.8703 15.6196 35.4404C15.7502 35.5332 15.8823 35.626 16.0129 35.7189C16.9205 36.3818 17.8673 36.9784 18.8536 37.5486C19.327 37.2701 19.8005 36.9784 20.2599 36.6867C20.7207 36.3951 21.1801 36.0768 21.6268 35.7586C21.7715 35.6658 21.9162 35.5465 22.0609 35.4404C22.8238 34.8835 23.5726 34.2869 24.2961 33.6637C24.4141 33.5576 24.5335 33.4515 24.6515 33.3455C24.7569 33.2528 24.8623 33.1599 24.9536 33.0672C25.5717 32.5103 26.1758 31.9268 26.7687 31.3302C27.044 31.0517 27.3068 30.7733 27.5695 30.4816C28.0696 29.9247 28.5697 29.3414 29.0432 28.7713C29.3185 28.4266 29.5953 28.0686 29.8707 27.6973C18.5515 20.1531 11.0958 26.4378 11.0958 26.4378C11.0706 26.4113 11.0439 26.3715 11.0172 26.345C10.347 25.4964 9.71623 24.6081 9.11073 23.6932C10.0183 23.0303 11.0172 22.4734 12.0568 22.0359C13.1343 21.5585 14.2512 21.2006 15.4088 20.9619C16.3164 20.7763 17.2492 20.6702 18.1961 20.6305C18.3928 20.6305 18.5909 20.6171 18.7875 20.6171C19.0109 20.6171 19.2217 20.6173 19.445 20.6305C20.3919 20.657 21.3248 20.7763 22.2197 20.9752C23.3885 21.2271 24.5068 21.5851 25.5717 22.0623C26.6099 22.5265 27.5962 23.0832 28.5037 23.733C29.4365 24.396 30.2921 25.1516 31.0676 25.987C31.3303 25.5891 31.593 25.1782 31.8291 24.7671C32.1845 24.1705 32.5259 23.5872 32.8546 22.9772C31.9878 22.1684 31.107 21.4259 30.1601 20.7763C29.2132 20.1267 28.2269 19.5698 27.2014 19.0924Z" fill="white"/>
<path d="M53.3265 16.6242V14.1278H57.5987V17.6738L54.789 20.5107H45.6278V2.82269L48.6623 0H57.5987V7.74469H53.3265V3.90065H49.8986V16.6242H53.3265Z" fill="white"/>
<path d="M67.2235 20.5107L64.6947 13.0922H63.5694V20.5107H59.3127V2.89363L62.4034 0H71.101V13.0355H68.797L71.4944 20.5107H67.2235ZM66.8442 9.24819V3.90065H63.5694V9.24819H66.8442Z" fill="white"/>
<path d="M73.0819 0H82.9456V3.90065H77.298V7.8582H82.6646V11.6879H77.3542V16.6242H83.0861V20.5107H73.0819V0Z" fill="white"/>
<path d="M84.6595 0H93.3993L96.6727 3.24822V17.6738L93.8207 20.5107H84.6595V0ZM92.4018 16.6242V3.90065H88.9177V16.6242H92.4018Z" fill="white"/>
<path d="M52.4585 37.5486H45.3709V33.4983H48.0725V35.0825H49.7485V33.0124L45.4608 29.7452V24.5339H52.3784V28.4041H49.9269V27.018H48.161V28.7192L52.4585 31.9773V37.5486Z" fill="white"/>
<path d="M56.3275 29.8802H58.6455V24.5339H61.3471V37.5486H58.6455V32.3463H56.3275V37.5486H53.6273V24.5339H56.3275V29.8802Z" fill="white"/>
<path d="M65.2078 28.5301V37.5486H62.5062V28.5301H65.2078ZM65.2078 24.5339V27.738H62.5062V24.5339H65.2078Z" fill="white"/>
<path d="M66.215 24.5339H72.4737V27.0091H68.8899V29.5201H72.2953V31.9503H68.925V35.0825H72.5636V37.5486H66.215V24.5339Z" fill="white"/>
<path d="M73.5611 37.5486V24.5339H76.2627V35.0825H80.0432V37.5486H73.5611Z" fill="white"/>
<path d="M81.2108 24.5339H86.7558L88.8337 26.595V35.7485L87.0242 37.5486H81.2108V24.5339ZM86.1236 35.0825V27.0091H83.9123V35.0825H86.1236Z" fill="white"/>
<path d="M97 37.5486H89.9124V33.4983H92.614V35.0825H94.29V33.0124L90.0009 29.7452V24.5339H96.9199V28.4041H94.4684V27.018H92.7025V28.7192L97 31.9773V37.5486Z" fill="white"/>
</svg>
