<?xml version="1.0" encoding="utf-8"?>
<!-- Generator: Adobe Illustrator 27.0.0, SVG Export Plug-In . SVG Version: 6.00 Build 0)  -->
<svg version="1.1" id="gradient-with-white-wordmark"
	 xmlns="http://www.w3.org/2000/svg" xmlns:xlink="http://www.w3.org/1999/xlink" x="0px" y="0px" viewBox="0 0 300 120"
	 style="enable-background:new 0 0 300 120;" xml:space="preserve">
<style type="text/css">
	.st0{fill-rule:evenodd;clip-rule:evenodd;fill:url(#SVGID_1_);}
	.st1{fill:url(#SVGID_00000089531648347881680550000002837782180772144544_);}
</style>
<linearGradient id="SVGID_1_" gradientUnits="userSpaceOnUse" x1="27.64545" y1="62.83747" x2="101.23328" y2="61.49281" gradientTransform="matrix(1 0 0 -1 0 122)">
	<stop  offset="0" style="stop-color:#29CCB9"/>
	<stop  offset="0.49479" style="stop-color:#0091FF"/>
	<stop  offset="1" style="stop-color:#FF66B7"/>
</linearGradient>
<path class="st0" d="M44.74961,86.22771c-8.03494-6.00401-13.2365-15.59094-13.2365-26.39285
	c0-18.18466,14.74159-32.92625,32.92625-32.92625c15.0082,0,31.39764,8.96894,35.36137,22.70508
	c-4.42934-15.34961-18.5815-26.57876-35.36137-26.57876c-20.32399,0-36.79993,16.47594-36.79993,36.79993
	S44.11538,96.6348,64.43937,96.6348s36.79993-16.47594,36.79993-36.79993v-1.93682l-2.02176-0.00045
	c-0.06013-0.00045-0.15102-0.00135-0.26949-0.00314c-0.23707-0.00359-0.58442-0.01088-1.01761-0.02558
	c-0.86772-0.02951-2.0737-0.08841-3.42475-0.20588c-2.76123-0.24021-5.90998-0.70885-8.0547-1.56546
	c-3.45044-1.37798-5.39848-3.20473-7.62443-5.34227L78.698,50.63174c-2.22977-2.14202-4.73485-4.54849-9.07623-6.59156
	c-4.27698-2.01266-9.00634-1.68977-12.48168-0.97464c-1.76483,0.36306-3.27654,0.84191-4.34901,1.23033
	c-0.53764,0.19466-0.96858,0.368-1.26993,0.49489c-1.7489,0.73633-3.4464,1.60753-5.16276,2.41578
	c0,0,3.36753,0.9237,5.03306,1.43935c0.06025,0.01862,0.15427,0.04847,0.27735,0.08987
	c0.24638,0.08303,0.60698,0.2116,1.0433,0.3882c0.87849,0.35566,2.03398,0.89375,3.17467,1.62705
	c1.79657,1.15493,3.28608,2.60797,3.89698,4.39175c-3.81384,0.5014-7.39084,2.17546-10.06579,3.74899
	c-1.622,0.95411-2.97092,1.9063-3.91628,2.62132c-0.47357,0.35824-0.8483,0.6587-1.10792,0.87243
	c-0.21788,0.1794-3.66126,3.21484-3.66126,3.21484s4.44247,0.47245,6.63465,0.91416
	c1.45842,0.29384,3.42464,0.76674,5.47556,1.48243c2.06035,0.71883,4.14167,1.6606,5.86892,2.86624
	c1.73083,1.20811,2.99841,2.60484,3.62412,4.20372c1.82182,4.65598,0.0341,9.19157-3.55535,11.74288
	C55.53356,89.3308,50.14125,89.93015,44.74961,86.22771z M57.30568,91.98623c1.45012-0.47099,2.80364-1.15527,4.01894-2.01917
	c4.88429-3.47165,7.45445-9.83086,4.9184-16.31168c-0.99628-2.54604-2.90012-4.49296-5.01421-5.96854
	c-2.11768-1.47817-4.55455-2.5604-6.80989-3.34734c-1.48299-0.51744-2.91539-0.91686-4.16995-1.22001
	c0.44508-0.29036,0.92448-0.5897,1.43295-0.88892c2.98124-1.75361,6.73585-3.36416,10.3364-3.36416
	c5.42698,0,9.4688,1.66531,13.32786,3.45235c0.35083,0.16235,0.7029,0.32761,1.05688,0.49366
	c3.44853,1.61785,7.07041,3.31715,11.2784,3.31715c4.08097,0,7.25945-1.1537,9.44994-2.34689
	C95.181,80.10602,81.28802,92.76115,64.43937,92.76115C61.98982,92.76115,59.60265,92.49357,57.30568,91.98623z M92.94585,61.40346
	c-1.45034,0.49489-3.20855,0.85246-5.2644,0.85246c-3.30112,0-6.13729-1.32244-9.73785-3.00121
	c-0.31696-0.14776-0.63996-0.29844-0.9696-0.45103c-3.60526-1.66957-7.77634-3.43888-13.20578-3.75954
	c-0.72849-3.59484-3.45303-6.05135-5.78679-7.55162c-0.25996-0.16717-0.51957-0.32548-0.77639-0.47503
	c0.23281-0.05475,0.47167-0.10759,0.71581-0.15786c3.13618-0.64535,6.88036-0.80668,10.05154,0.68551
	c3.76369,1.77122,5.88676,3.81014,8.09554,5.93152l0.07562,0.07259c2.27284,2.18264,4.67673,4.47074,8.8708,6.1457
	C87.3443,60.6255,90.35976,61.126,92.94585,61.40346z"/>
<linearGradient id="SVGID_00000179643045324484327570000004525006591740486317_" gradientUnits="userSpaceOnUse" x1="124.94746" y1="61.01124" x2="271.73438" y2="58.32902">
	<stop  offset="0" style="stop-color:#29CCB9"/>
	<stop  offset="0.49479" style="stop-color:#0091FF"/>
	<stop  offset="1" style="stop-color:#FF66B7"/>
</linearGradient>
<path style="fill:url(#SVGID_00000179643045324484327570000004525006591740486317_);" d="M125.05854,51.90127V30.16592h4.16015
	l3.60254,8.7251l3.60156-8.7251h4.16113v21.73535h-3.26074V35.19619l-4.5332,10.77441l-4.5332-10.77441v16.70508
	C128.25677,51.90127,125.05854,51.90127,125.05854,51.90127z M145.52045,51.90127l6.83105-21.73535h4.40918l6.83105,21.73535
	h-3.78809l-1.58301-5.24756h-7.4834l-1.55273,5.24756H145.52045z M151.57513,43.76601h5.83789l-2.91895-9.65674L151.57513,43.76601z
	 M168.93158,51.90127V30.16592h3.75684l7.85645,15.21484l-0.0625-15.21484h3.16699v21.73535h-3.44629l-8.16602-15.71143
	l0.06152,15.71143C172.09857,51.90127,168.93158,51.90127,168.93158,51.90127z M196.16302,51.90127V33.33291h-6.73828v-3.16699
	h17.20215v3.16699h-6.73828v18.56836C199.88861,51.90127,196.16302,51.90127,196.16302,51.90127z M210.72552,51.90127
	l6.83105-21.73535h4.40918l6.83105,21.73535h-3.78809l-1.58301-5.24756h-7.4834l-1.55273,5.24756H210.72552z M216.78021,43.76601
	h5.83789l-2.91895-9.65674L216.78021,43.76601z M125.46186,89.16201V67.42666h3.75683l7.85645,15.21484l-0.0625-15.21484h3.16699
	V89.162h-3.44629l-8.16602-15.71143l0.06152,15.71143C128.62885,89.162,125.46186,89.162,125.46186,89.16201z M147.94232,89.16201
	V67.42666H162.164v3.16699h-10.49512v6.05518h6.7998v3.10498h-6.7998v6.24121h10.61914v3.16699
	C162.28802,89.16202,147.94232,89.16202,147.94232,89.16201z M174.42767,89.16201V70.59365h-6.73828v-3.16699h17.20215v3.16699
	h-6.73828v18.56836H174.42767z M191.7851,89.16201l-2.5459-21.73535h3.29102l1.36621,14.34521l2.79395-14.34521h2.79492
	l2.79492,14.22119l1.36621-14.22119h3.16699l-2.51562,21.73535h-3.35254l-2.8877-15.33887l-2.91895,15.33887H191.7851z
	 M219.76166,89.50381c-1.53223,0-2.93945-0.43506-4.22363-1.3042c-1.2832-0.86963-2.30762-2.13721-3.07324-3.80371
	c-0.7666-1.66602-1.14941-3.7002-1.14941-6.10156c0-2.40088,0.38281-4.43506,1.14941-6.10156
	c0.76562-1.66602,1.79004-2.93408,3.07324-3.80371c1.28418-0.86914,2.69141-1.3042,4.22363-1.3042
	c1.53125,0,2.93359,0.43506,4.20703,1.3042c1.27344,0.86963,2.29785,2.1377,3.07422,3.80371
	c0.77637,1.6665,1.16406,3.70068,1.16406,6.10156c0,2.40137-0.3877,4.43555-1.16406,6.10156
	c-0.77637,1.6665-1.80078,2.93408-3.07422,3.80371C222.69525,89.06875,221.29291,89.50381,219.76166,89.50381z M219.76166,86.15029
	c0.86914,0,1.66113-0.29492,2.375-0.88525c0.71387-0.58984,1.27832-1.46924,1.69238-2.63916
	c0.41406-1.16943,0.62109-2.61328,0.62109-4.33154c0-1.71777-0.20703-3.15625-0.62109-4.31592
	c-0.41406-1.15918-0.97852-2.03857-1.69238-2.63916s-1.50586-0.90088-2.375-0.90088c-0.87012,0-1.66113,0.30029-2.37598,0.90088
	c-0.71387,0.60059-1.27832,1.47998-1.69238,2.63916c-0.41406,1.15967-0.62012,2.59814-0.62012,4.31592
	c0,1.71826,0.20605,3.16211,0.62012,4.33154c0.41406,1.16992,0.97852,2.04932,1.69238,2.63916
	C218.10052,85.85537,218.89154,86.15029,219.76166,86.15029z M234.72748,89.16201V67.42666h7.39062
	c1.44824,0,2.7168,0.27441,3.80371,0.82275c1.08594,0.54883,1.93457,1.31494,2.5459,2.29785
	c0.61035,0.9834,0.91602,2.12695,0.91602,3.43115c0,1.42822-0.37305,2.66016-1.11816,3.69482
	c-0.74512,1.03564-1.75977,1.79102-3.04297,2.2666l4.75098,9.22217h-4.00586l-4.31543-8.69434h-3.19824v8.69434h-3.72656V89.16201z
	 M238.45404,77.48721h3.35352c1.15918,0,2.08496-0.31543,2.77832-0.94727c0.69336-0.63135,1.04102-1.46436,1.04102-2.49951
	c0-1.05566-0.34766-1.89893-1.04102-2.53076c-0.69336-0.63086-1.61914-0.94678-2.77832-0.94678h-3.35352V77.48721z
	 M256.12006,89.16201V67.42666h3.72656v9.71875l7.79395-9.71875h4.25391l-8.75684,10.52588l9.16016,11.20947h-4.68848
	l-7.7627-9.93604v9.93604H256.12006z"/>
</svg>
