<svg width="897" height="271" viewBox="0 0 897 271" fill="none" xmlns="http://www.w3.org/2000/svg">
<g clip-path="url(#clip0_253_32838)">
<path d="M119.314 40C100.463 40 82.0348 45.5895 66.3605 56.0618C50.6862 66.534 38.4695 81.4187 31.2554 98.8334C24.0413 116.248 22.1538 135.411 25.8315 153.898C29.5092 172.385 38.587 189.367 51.9169 202.696C65.2469 216.024 82.2302 225.101 100.719 228.779C119.209 232.456 138.373 230.569 155.789 223.355C173.206 216.142 188.092 203.926 198.565 188.254C209.038 172.581 214.628 154.155 214.628 135.305C214.628 110.029 204.586 85.7874 186.712 67.9142C168.837 50.041 144.593 40 119.314 40ZM119.314 194.238C107.657 194.238 96.2622 190.781 86.5699 184.306C76.8775 177.83 69.3233 168.626 64.8624 157.858C60.4015 147.089 59.2343 135.24 61.5085 123.808C63.7826 112.376 69.396 101.875 77.6386 93.6334C85.8813 85.3915 96.3831 79.7787 107.816 77.5048C119.249 75.2309 131.099 76.398 141.869 80.8584C152.639 85.3189 161.843 92.8724 168.32 102.564C174.796 112.255 178.253 123.649 178.253 135.305C178.253 150.935 172.043 165.925 160.99 176.977C149.937 188.029 134.946 194.238 119.314 194.238Z" fill="#36BCF7"/>
<path d="M778.686 40C759.834 40 741.406 45.5895 725.732 56.0618C710.058 66.534 697.841 81.4187 690.627 98.8334C683.413 116.248 681.525 135.411 685.203 153.898C688.881 172.385 697.959 189.367 711.288 202.696C724.618 216.024 741.602 225.101 760.091 228.779C778.58 232.456 797.745 230.569 815.161 223.355C832.577 216.142 847.463 203.926 857.937 188.254C868.41 172.581 874 154.155 874 135.305C874 110.029 863.958 85.7874 846.083 67.9142C828.208 50.041 803.965 40 778.686 40ZM778.686 194.238C767.029 194.238 755.634 190.781 745.941 184.306C736.249 177.83 728.695 168.626 724.234 157.858C719.773 147.089 718.606 135.24 720.88 123.808C723.154 112.376 728.767 101.875 737.01 93.6334C745.253 85.3915 755.755 79.7787 767.187 77.5048C778.62 75.2309 790.471 76.398 801.24 80.8584C812.01 85.3189 821.215 92.8724 827.691 102.564C834.167 112.255 837.624 123.649 837.624 135.305C837.624 150.935 831.415 165.925 820.361 176.977C809.308 188.029 794.317 194.238 778.686 194.238Z" fill="#36BCF7"/>
<path d="M301.562 150.959V231.595H246.704V150.959H232.89V112.284H246.704C247.44 80.1969 259.191 58.6221 281.956 47.5599C294.302 43.2459 307.28 41.0207 320.358 40.9761H342.57V78.6837C322.366 79.6966 310.701 82.3946 307.576 86.7777C303.698 91.9163 301.58 98.1677 301.535 104.605V112.284H335.728V150.959H301.562Z" fill="#36BCF7"/>
<path d="M631.248 150.959V231.595H576.389V150.959H562.576V112.284H576.389C577.126 80.1969 588.877 58.6221 611.642 47.5599C623.987 43.2459 636.966 41.0207 650.044 40.9761H672.256V78.6837C652.052 79.6966 640.387 82.3946 637.262 86.7777C633.384 91.9163 631.266 98.1677 631.22 104.605V112.284H665.414V150.959H631.248Z" fill="#36BCF7"/>
<path d="M519.17 68.8303C501.354 51.0144 477.19 41 451.997 41C433.198 41 414.845 46.5661 399.22 57.0052C383.595 67.4443 371.412 82.2871 364.214 99.6559C357.039 117.002 355.161 136.115 358.827 154.534C362.493 172.953 371.546 189.898 384.824 203.176C398.103 216.454 415.047 225.507 433.466 229.173C451.885 232.839 470.998 230.961 488.344 223.763C505.713 216.565 520.533 204.405 530.972 188.78C541.434 173.155 547 154.802 547 136.003C547 110.81 536.986 86.6461 519.17 68.8303ZM429.331 51.4168C444.509 47.5049 460.447 47.5049 475.625 51.4168C483.516 53.4286 487.875 60.7382 485.729 66.2372C483.471 71.7586 477.011 74.1057 470.953 72.5857C458.815 69.4562 446.096 69.4562 433.958 72.5857C427.9 74.1057 421.44 71.7809 419.271 66.2372C417.081 60.7159 421.44 53.4286 429.331 51.4168ZM493.53 177.536C482.51 188.556 467.578 194.748 451.997 194.748C440.373 194.748 429.018 191.306 419.361 184.846C409.704 178.385 402.171 169.22 397.723 158.491C393.274 147.761 392.112 135.936 394.369 124.558C396.627 113.158 402.238 102.696 410.442 94.4699C418.646 86.2437 429.129 80.6553 440.53 78.3976C451.93 76.1399 463.733 77.3023 474.462 81.7507C485.192 86.199 494.38 93.7322 500.817 103.389C507.278 113.046 510.72 124.401 510.72 136.025C510.742 151.583 504.55 166.516 493.53 177.536ZM474.954 70.8421C479.514 70.8421 483.225 67.1537 483.225 62.5712C483.225 57.9888 479.537 54.3004 474.954 54.3004C470.394 54.3004 466.683 58.0111 466.683 62.5712C466.683 67.1314 470.372 70.8421 474.954 70.8421Z" fill="#36BCF7"/>
</g>
<defs>
<clipPath id="clip0_253_32838">
<rect width="850" height="191.549" fill="white" transform="translate(24 40)"/>
</clipPath>
</defs>
</svg>
