<svg width="693" height="188" viewBox="0 0 693 188" fill="none" xmlns="http://www.w3.org/2000/svg">
<path fill-rule="evenodd" clip-rule="evenodd" d="M94.2076 187.234C145.857 187.234 187.727 145.364 187.727 93.715C187.727 42.0658 145.857 0.195801 94.2076 0.195801C42.5584 0.195801 0.688477 42.0658 0.688477 93.715C0.688477 145.364 42.5584 187.234 94.2076 187.234ZM22.7369 52.2382C22.5579 52.274 22.1642 52.3814 21.7705 52.5245C36.0866 27.2209 63.2514 10.149 94.4246 10.149C140.522 10.149 177.887 47.5855 177.887 93.6832C177.887 139.781 140.522 177.182 94.3888 177.182C76.9948 177.182 62.8934 163.08 62.8934 145.686C62.8934 138.922 65.0409 132.659 68.6915 127.505C68.7094 127.487 68.7183 127.469 68.7272 127.451C68.7362 127.433 68.7451 127.415 68.763 127.398C69.2641 126.539 69.9441 125.715 70.7315 124.964C76.4937 118.378 84.976 114.227 94.4246 114.227C100.223 114.227 105.663 115.802 110.351 118.557L122.985 131.084C124.453 133.267 136.908 132.551 139.091 131.084C140.844 129.939 140.737 124.212 140.63 121.85C140.594 121.206 140.844 120.562 141.346 120.132C143.028 118.665 146.75 115.372 147.895 114.227C148.969 113.117 149.255 109.145 149.327 107.212C149.363 106.568 149.685 105.959 150.186 105.566C152.262 103.848 153.192 101.199 153.55 99.7675C153.729 99.1949 153.622 98.5865 153.299 98.0854L141.775 79.7608C141.489 79.3314 141.381 78.8303 141.453 78.3292C141.632 76.826 141.56 73.247 137.659 68.7733C132.505 62.9037 107.595 48.9813 103.945 48.2655C101.189 47.7286 97.2162 47.9792 95.3909 48.1581C94.7467 48.2297 94.1383 48.015 93.673 47.5497C91.2035 45.0802 83.0791 37.0632 81.218 35.8105C79.1442 34.4166 78.2007 35.251 77.6512 35.7369C77.6222 35.7625 77.5943 35.7872 77.5674 35.8105C76.78 36.5263 75.4558 41.5727 74.9547 44.758C74.7758 45.8675 73.7379 46.6549 72.5926 46.5476C58.4913 45.116 35.0845 49.5539 22.7369 52.2382Z" fill="white"/>
<path d="M251.794 135.197V51.4583H286.385C292.654 51.4583 298.065 52.6849 302.617 55.1382C307.197 57.5642 310.727 60.9579 313.207 65.3193C315.688 69.6534 316.928 74.6962 316.928 80.4478C316.928 86.2266 315.661 91.2831 313.126 95.6172C310.618 99.9241 307.033 103.263 302.372 105.635C297.711 108.006 292.177 109.192 285.772 109.192H264.428V93.2457H282.01C285.063 93.2457 287.612 92.7142 289.656 91.6511C291.728 90.588 293.295 89.1024 294.358 87.1943C295.421 85.259 295.953 83.0101 295.953 80.4478C295.953 77.8582 295.421 75.623 294.358 73.7422C293.295 71.8341 291.728 70.3621 289.656 69.3263C287.584 68.2905 285.036 67.7726 282.01 67.7726H272.033V135.197H251.794ZM340.058 136.26C336.051 136.26 332.493 135.592 329.386 134.256C326.306 132.893 323.866 130.849 322.067 128.123C320.295 125.37 319.409 121.922 319.409 117.779C319.409 114.289 320.023 111.345 321.249 108.947C322.476 106.548 324.166 104.599 326.319 103.1C328.473 101.601 330.953 100.469 333.761 99.706C336.569 98.9155 339.567 98.384 342.756 98.1114C346.327 97.7843 349.203 97.4436 351.384 97.0892C353.564 96.7076 355.145 96.176 356.127 95.4946C357.135 94.7859 357.639 93.7909 357.639 92.5098V92.3053C357.639 90.2064 356.917 88.5845 355.472 87.4397C354.028 86.2948 352.079 85.7224 349.625 85.7224C346.981 85.7224 344.855 86.2948 343.247 87.4397C341.639 88.5845 340.616 90.1655 340.18 92.1827L321.74 91.5284C322.285 87.7122 323.689 84.3049 325.951 81.3065C328.241 78.2808 331.376 75.9093 335.356 74.192C339.363 72.4474 344.174 71.5751 349.789 71.5751C353.796 71.5751 357.49 72.0522 360.87 73.0062C364.25 73.933 367.194 75.2959 369.701 77.095C372.209 78.8668 374.145 81.0475 375.508 83.6371C376.898 86.2266 377.593 89.1842 377.593 92.5098V135.197H358.784V126.447H358.294C357.176 128.573 355.745 130.372 354 131.844C352.283 133.316 350.252 134.42 347.908 135.156C345.591 135.892 342.974 136.26 340.058 136.26ZM346.232 123.176C348.385 123.176 350.321 122.74 352.038 121.867C353.782 120.995 355.173 119.796 356.208 118.269C357.244 116.715 357.762 114.916 357.762 112.872V106.902C357.19 107.202 356.495 107.475 355.677 107.72C354.886 107.965 354.014 108.197 353.06 108.415C352.106 108.633 351.125 108.824 350.116 108.988C349.108 109.151 348.14 109.301 347.213 109.437C345.332 109.737 343.724 110.201 342.388 110.828C341.08 111.455 340.071 112.272 339.363 113.281C338.681 114.262 338.34 115.434 338.34 116.797C338.34 118.869 339.076 120.45 340.548 121.54C342.048 122.631 343.942 123.176 346.232 123.176ZM407.51 99.3789V135.197H387.516V72.3929H406.528V83.9233H407.223C408.614 80.0798 410.985 77.0677 414.338 74.8871C417.691 72.6791 421.684 71.5751 426.318 71.5751C430.734 71.5751 434.564 72.5701 437.808 74.5599C441.079 76.5226 443.614 79.2757 445.413 82.8193C447.239 86.3357 448.139 90.4517 448.111 95.1675V135.197H428.117V99.0927C428.144 95.6036 427.259 92.8778 425.46 90.9151C423.688 88.9525 421.221 87.9712 418.059 87.9712C415.96 87.9712 414.106 88.4346 412.498 89.3614C410.917 90.2609 409.69 91.5557 408.818 93.2457C407.973 94.9358 407.537 96.9802 407.51 99.3789ZM493.637 72.3929V87.1126H454.017V72.3929H493.637ZM462.317 57.3461H482.311V115.448C482.311 116.675 482.502 117.669 482.884 118.433C483.293 119.169 483.879 119.7 484.642 120.027C485.405 120.327 486.318 120.477 487.381 120.477C488.145 120.477 488.949 120.409 489.794 120.273C490.666 120.109 491.32 119.973 491.756 119.864L494.782 134.297C493.828 134.57 492.479 134.911 490.734 135.319C489.017 135.728 486.959 135.987 484.56 136.096C479.872 136.314 475.851 135.769 472.498 134.461C469.173 133.125 466.624 131.053 464.852 128.246C463.108 125.438 462.263 121.908 462.317 117.656V57.3461ZM522.88 99.3789V135.197H502.885V51.4583H522.225V83.9233H522.92C524.338 80.0526 526.655 77.0269 529.871 74.8462C533.115 72.6655 537.081 71.5751 541.77 71.5751C546.186 71.5751 550.029 72.5564 553.3 74.5191C556.571 76.4544 559.106 79.1939 560.905 82.7375C562.732 86.2812 563.631 90.4245 563.604 95.1675V135.197H543.61V99.0927C543.637 95.6036 542.765 92.8778 540.993 90.9151C539.221 88.9525 536.727 87.9712 533.51 87.9712C531.411 87.9712 529.558 88.4346 527.95 89.3614C526.369 90.2609 525.128 91.5557 524.229 93.2457C523.357 94.9358 522.907 96.9802 522.88 99.3789ZM603.14 136.383C596.57 136.383 590.901 135.088 586.13 132.498C581.387 129.881 577.735 126.161 575.172 121.336C572.637 116.484 571.37 110.719 571.37 104.04C571.37 97.5526 572.651 91.8828 575.213 87.0308C577.776 82.1515 581.387 78.3625 586.049 75.6639C590.71 72.9381 596.202 71.5751 602.526 71.5751C606.997 71.5751 611.086 72.2702 614.793 73.6604C618.5 75.0506 621.703 77.1086 624.401 79.8345C627.1 82.5604 629.199 85.9268 630.698 89.9338C632.197 93.9136 632.947 98.4794 632.947 103.631V108.62H578.362V97.0074H614.343C614.316 94.8813 613.811 92.9868 612.83 91.324C611.849 89.6612 610.5 88.3664 608.782 87.4397C607.092 86.4856 605.143 86.0086 602.935 86.0086C600.7 86.0086 598.697 86.5129 596.925 87.5214C595.153 88.5027 593.749 89.852 592.713 91.5693C591.677 93.2594 591.132 95.1811 591.078 97.3345V109.151C591.078 111.713 591.582 113.962 592.591 115.898C593.599 117.806 595.03 119.291 596.884 120.354C598.737 121.418 600.945 121.949 603.508 121.949C605.28 121.949 606.888 121.704 608.332 121.213C609.777 120.722 611.017 120 612.053 119.046C613.089 118.092 613.866 116.92 614.384 115.53L632.743 116.061C631.979 120.177 630.303 123.762 627.713 126.815C625.151 129.84 621.785 132.198 617.614 133.888C613.443 135.551 608.619 136.383 603.14 136.383ZM640.856 135.197V72.3929H660.278V83.8415H660.932C662.077 79.6982 663.944 76.618 666.534 74.6008C669.123 72.5564 672.135 71.5342 675.57 71.5342C676.497 71.5342 677.451 71.6024 678.432 71.7387C679.413 71.8477 680.327 72.0249 681.172 72.2702V89.6476C680.217 89.3205 678.964 89.0615 677.41 88.8707C675.883 88.6799 674.52 88.5845 673.321 88.5845C670.95 88.5845 668.81 89.1161 666.902 90.1791C665.021 91.215 663.535 92.6733 662.445 94.5542C661.382 96.4077 660.85 98.5884 660.85 101.096V135.197H640.856Z" fill="white"/>
</svg>
