<svg width="188" height="188" viewBox="0 0 188 188" fill="none" xmlns="http://www.w3.org/2000/svg">
<path fill-rule="evenodd" clip-rule="evenodd" d="M94.2066 187.234C145.856 187.234 187.726 145.364 187.726 93.7145C187.726 42.0653 145.856 0.195312 94.2066 0.195312C42.5574 0.195312 0.6875 42.0653 0.6875 93.7145C0.6875 145.364 42.5574 187.234 94.2066 187.234ZM22.7359 52.2377C22.5569 52.2735 22.1632 52.3809 21.7695 52.524C36.0856 27.2204 63.2504 10.1485 94.4236 10.1485C140.521 10.1485 177.886 47.585 177.886 93.6827C177.886 139.781 140.521 177.182 94.3878 177.182C76.9938 177.182 62.8924 163.08 62.8924 145.686C62.8924 138.922 65.0399 132.659 68.6905 127.505C68.7084 127.487 68.7173 127.469 68.7262 127.451C68.7352 127.433 68.7441 127.415 68.762 127.398C69.2631 126.539 69.9431 125.715 70.7305 124.964C76.4927 118.378 84.975 114.227 94.4236 114.227C100.222 114.227 105.662 115.802 110.35 118.557L122.984 131.084C124.452 133.267 136.907 132.551 139.09 131.084C140.843 129.939 140.736 124.212 140.629 121.85C140.593 121.206 140.843 120.562 141.345 120.132C143.027 118.665 146.749 115.372 147.894 114.227C148.968 113.117 149.254 109.145 149.326 107.212C149.362 106.568 149.684 105.959 150.185 105.566C152.261 103.848 153.191 101.199 153.549 99.767C153.728 99.1944 153.621 98.586 153.298 98.0849L141.774 79.7603C141.488 79.3309 141.38 78.8298 141.452 78.3287C141.631 76.8255 141.559 73.2465 137.658 68.7728C132.504 62.9032 107.594 48.9808 103.944 48.265C101.188 47.7281 97.2152 47.9787 95.3899 48.1576C94.7457 48.2292 94.1373 48.0145 93.672 47.5492C91.2025 45.0797 83.0781 37.0627 81.217 35.81C79.1432 34.4161 78.1997 35.2505 77.6502 35.7364C77.6212 35.762 77.5933 35.7867 77.5664 35.81C76.779 36.5258 75.4548 41.5722 74.9537 44.7575C74.7748 45.867 73.7369 46.6544 72.5916 46.5471C58.4903 45.1155 35.0835 49.5534 22.7359 52.2377Z" fill="white"/>
</svg>
