<?xml version="1.0" encoding="utf-8"?>
<!-- Generator: Adobe Illustrator 16.0.0, SVG Export Plug-In . SVG Version: 6.00 Build 0)  -->
<!DOCTYPE svg PUBLIC "-//W3C//DTD SVG 1.1//EN" "http://www.w3.org/Graphics/SVG/1.1/DTD/svg11.dtd">
<svg version="1.1" id="Vrstva_1" xmlns="http://www.w3.org/2000/svg" xmlns:xlink="http://www.w3.org/1999/xlink" x="0px" y="0px"
	 width="234.097px" height="48.334px" viewBox="0 0 234.097 48.334" enable-background="new 0 0 234.097 48.334"
	 xml:space="preserve">
<g>
	<g>
		<path fill="#08AECD" d="M0,21.886C0,12.822,5.907,6.982,15.038,6.982c8.862,0,14.702,5.84,14.702,14.769
			c0,8.594-5.504,14.768-14.298,14.768c-5.37,0-9.198-2.281-11.346-6.04V46.79c0,1.278-0.269,1.544-1.543,1.544H1.543
			C0.336,48.334,0,48.068,0,46.79V21.886z M14.971,32.829c6.713,0,10.405-4.699,10.405-11.078c0-6.377-3.759-11.077-10.405-11.077
			c-6.646,0-10.674,4.7-10.674,11.077C4.296,28.13,8.324,32.829,14.971,32.829z"/>
		<path fill="#08AECD" d="M80.36,28.867c0,2.484,0.403,3.759,2.216,3.759c0.47,0,0.938-0.135,1.207-0.269
			c0.94-0.2,1.21-0.2,1.21,0.672v1.543c0,0.607-0.336,1.006-1.008,1.209c-0.939,0.334-1.544,0.403-3.088,0.403
			c-2.887,0-4.767-1.275-4.834-5.372c-2.215,3.56-5.974,5.706-11.144,5.706c-8.795,0-14.299-6.174-14.299-14.768
			c0-8.929,5.84-14.769,14.702-14.769c9.13,0,15.037,5.84,15.037,14.903V28.867z M65.39,10.674c-6.646,0-10.405,4.7-10.405,11.077
			c0,6.379,3.691,11.078,10.405,11.078c6.646,0,10.674-4.699,10.674-11.078C76.063,15.374,72.104,10.674,65.39,10.674z"/>
		<path fill="#08AECD" d="M118.626,8.392V9.8c0,0.807-0.27,1.075-1.141,1.075c-0.537,0-1.344-0.067-1.88-0.067
			c-4.901,0-7.653,3.021-7.653,8.861v14.634c0,1.209-0.27,1.543-1.544,1.543h-1.143c-1.207,0-1.543-0.334-1.543-1.474V19.67
			c0-8.727,4.431-12.688,11.883-12.688c0.536,0,1.275,0,1.88,0.067C118.29,7.049,118.626,7.451,118.626,8.392z"/>
		<path fill="#08AECD" d="M137.827,1.543c0-1.275,0.336-1.543,1.544-1.543h1.008c1.342,0,1.745,0.269,1.745,1.543v6.109h5.772
			c1.075,0,1.344,0.269,1.344,1.344v0.737c0,1.008-0.269,1.344-1.344,1.344h-5.772v14.836c0,5.438,1.879,6.713,5.035,6.713
			c0.939,0,1.544-0.135,2.484-0.403c0.536-0.065,0.872,0.134,0.872,0.875v1.409c0,0.937-0.471,1.14-0.872,1.274
			c-0.94,0.334-2.282,0.403-3.156,0.403c-5.639,0-8.66-2.822-8.66-11.078V1.543z"/>
		<path fill="#08AECD" d="M191.399,20.542c0-6.176-2.818-9.733-8.258-9.733c-5.504,0-8.257,3.557-8.257,9.733v13.762
			c0,1.209-0.269,1.543-1.543,1.543h-1.143c-1.274,0-1.544-0.334-1.544-1.543V20.609c0-8.526,4.096-13.626,12.486-13.626
			c8.392,0,12.486,5.101,12.486,13.626v13.695c0,1.209-0.267,1.543-1.543,1.543h-1.141c-1.209,0-1.545-0.334-1.545-1.543V20.542z"/>
		<path fill="#08AECD" d="M234.097,8.392V9.8c0,0.807-0.269,1.075-1.14,1.075c-0.538,0-1.344-0.067-1.88-0.067
			c-4.901,0-7.654,3.021-7.654,8.861v14.634c0,1.209-0.269,1.543-1.543,1.543h-1.143c-1.208,0-1.544-0.334-1.544-1.474V19.67
			c0-8.727,4.432-12.688,11.884-12.688c0.536,0,1.274,0,1.88,0.067C233.761,7.049,234.097,7.451,234.097,8.392z"/>
	</g>
</g>
</svg>
