<svg width="203" height="32" viewBox="0 0 203 32" fill="none" xmlns="http://www.w3.org/2000/svg">
<path d="M1.75307 1.75295V10.5184H5.2592V3.50603H12.2715V0H3.50613C3.0412 0 2.59529 0.184587 2.26653 0.513334C1.93777 0.842222 1.75307 1.28804 1.75307 1.75295ZM33.3082 10.5184V1.75295C33.3082 1.28804 33.1236 0.842222 32.7948 0.513334C32.4659 0.184587 32.0201 0 31.5552 0H22.7898V3.50603H29.8021V10.5184H33.3082ZM29.8021 28.049H22.7898V31.5551H31.5552C32.0201 31.5551 32.4659 31.3704 32.7948 31.0417C33.1236 30.7129 33.3082 30.267 33.3082 29.8021V21.0368H29.8021V28.049ZM12.2715 31.5551V28.049H5.2592V21.0368H1.75307V29.8021C1.75307 30.267 1.93777 30.7129 2.26653 31.0417C2.59529 31.3704 3.0412 31.5551 3.50613 31.5551H12.2715ZM0 14.0244H35.0612V17.5306H0V14.0244Z" fill="white"/>
<path d="M56.491 24.6598C53.8765 24.6598 51.7938 24.1009 50.2431 22.9828C48.7104 21.8469 47.917 20.2241 47.863 18.1143H52.6774C52.8758 19.9536 54.138 20.8732 56.4639 20.8732C57.3294 20.8732 58.0598 20.7109 58.6548 20.3864C59.2678 20.0437 59.5744 19.5298 59.5744 18.8447C59.5744 18.3759 59.385 17.9882 59.0064 17.6816C58.6277 17.357 58.24 17.1316 57.8433 17.0054C57.4647 16.8792 56.7344 16.6809 55.6526 16.4104C55.5985 16.3923 55.5624 16.3833 55.5443 16.3833C55.5264 16.3653 55.4993 16.3563 55.4632 16.3563C55.4271 16.3382 55.391 16.3293 55.355 16.3293C54.5255 16.1309 53.8404 15.9597 53.2994 15.8154C52.7765 15.6531 52.1725 15.4187 51.4872 15.1121C50.8202 14.7876 50.2882 14.4359 49.8915 14.0572C49.4948 13.6786 49.1521 13.1827 48.8637 12.5697C48.5932 11.9386 48.458 11.2354 48.458 10.4599C48.458 8.47651 49.1613 6.98887 50.5676 5.99715C51.9921 5.00543 53.8494 4.50964 56.1394 4.50964C58.3392 4.50964 60.1333 5.01442 61.5219 6.02424C62.9282 7.03393 63.6766 8.51259 63.7667 10.4599H59.0876C58.9974 9.72062 58.6819 9.15268 58.1409 8.75599C57.5999 8.34134 56.8787 8.13387 55.9771 8.13387C55.1476 8.13387 54.4715 8.30526 53.9486 8.64776C53.4437 8.97244 53.1913 9.4052 53.1913 9.94605C53.1913 10.5592 53.4977 11.0099 54.1109 11.2984C54.7239 11.5689 55.878 11.8936 57.573 12.2721C58.6368 12.5247 59.5113 12.777 60.1965 13.0294C60.8816 13.2638 61.5759 13.6065 62.2792 14.0572C63.0004 14.5081 63.5323 15.0941 63.8749 15.8154C64.2355 16.5186 64.4159 17.366 64.4159 18.3578C64.4159 20.3232 63.6676 21.8649 62.1709 22.9828C60.6924 24.1009 58.7991 24.6598 56.491 24.6598ZM70.8335 20.3593C71.3384 21.1166 72.0596 21.4953 72.9973 21.4953C73.9348 21.4953 74.6562 21.1166 75.161 20.3593C75.684 19.602 75.9454 18.5832 75.9454 17.303C75.9454 16.0227 75.684 15.0039 75.161 14.2466C74.6562 13.4712 73.9348 13.0836 72.9973 13.0836C72.0596 13.0836 71.3384 13.4622 70.8335 14.2195C70.3286 14.9769 70.0762 16.0047 70.0762 17.303C70.0762 18.5832 70.3286 19.602 70.8335 20.3593ZM78.3526 22.5501C77.0002 23.9386 75.2241 24.6327 73.0242 24.6327C70.8245 24.6327 69.0393 23.9386 67.669 22.5501C66.2985 21.1617 65.6134 19.4126 65.6134 17.303C65.6134 15.1932 66.2985 13.4442 67.669 12.0558C69.0393 10.6673 70.8245 9.97314 73.0242 9.97314C75.2241 9.97314 77.0002 10.6673 78.3526 12.0558C79.723 13.4442 80.4081 15.1932 80.4081 17.303C80.4081 19.4126 79.723 21.1617 78.3526 22.5501ZM81.9256 24.2V4.86113H86.3884V24.2H81.9256ZM88.5283 24.2V10.3517H92.9371V24.2H88.5283ZM88.5283 8.43145V4.86113H92.9371V8.43145H88.5283ZM100.489 24.6327C98.6858 24.6327 97.2252 23.9745 96.1072 22.6583C94.9893 21.342 94.4303 19.5478 94.4303 17.2759C94.4303 15.1121 94.9893 13.3541 96.1072 12.0016C97.2432 10.6313 98.7038 9.94605 100.489 9.94605C102.148 9.94605 103.437 10.6042 104.357 11.9205H104.438V4.86113H108.847V24.2H104.627V22.3337H104.573C103.671 23.8665 102.31 24.6327 100.489 24.6327ZM101.625 21.1437C102.526 21.1437 103.239 20.7921 103.762 20.0888C104.285 19.3676 104.546 18.4299 104.546 17.2759C104.546 16.0677 104.303 15.1031 103.816 14.3819C103.329 13.6426 102.617 13.2728 101.679 13.2728C100.814 13.2728 100.128 13.6336 99.6235 14.3548C99.1365 15.076 98.8931 16.0317 98.8931 17.2217C98.8931 18.4299 99.1365 19.3855 99.6235 20.0888C100.11 20.7921 100.777 21.1437 101.625 21.1437ZM110.953 24.2V10.3517H115.362V24.2H110.953ZM110.953 8.43145V4.86113H115.362V8.43145H110.953ZM122.968 24.3622C121.562 24.3622 120.471 24.0828 119.695 23.5238C118.938 22.9467 118.559 21.955 118.559 20.5487V13.1106H116.72V10.3517H118.559V5.9702H122.86V10.3517H125.375V13.1106H122.86V19.602C122.86 20.1069 122.986 20.4584 123.238 20.6567C123.509 20.8551 123.897 20.9543 124.402 20.9543C124.546 20.9543 124.735 20.9543 124.969 20.9543C125.204 20.9364 125.339 20.9272 125.375 20.9272V24.1459C124.87 24.2901 124.068 24.3622 122.968 24.3622ZM127.816 28.771V25.336H129.33C130.539 25.336 131.143 24.8492 131.143 23.8754C131.143 23.4066 130.863 22.451 130.304 21.0084L126.22 10.3517H130.872L132.738 16.2481L133.604 19.4397H133.658C133.91 18.2136 134.181 17.1497 134.469 16.2481L136.281 10.3517H140.69L135.903 24.3893C135.344 26.0122 134.677 27.1482 133.901 27.7972C133.144 28.4465 132.071 28.771 130.683 28.771H127.816ZM149.651 24.6598C147.036 24.6598 144.954 24.1009 143.403 22.9828C141.87 21.8469 141.077 20.2241 141.023 18.1143H145.837C146.035 19.9536 147.297 20.8732 149.625 20.8732C150.489 20.8732 151.219 20.7109 151.814 20.3864C152.428 20.0437 152.734 19.5298 152.734 18.8447C152.734 18.3759 152.546 17.9882 152.167 17.6816C151.788 17.357 151.4 17.1316 151.003 17.0054C150.624 16.8792 149.894 16.6809 148.812 16.4104C148.758 16.3923 148.722 16.3833 148.704 16.3833C148.687 16.3653 148.659 16.3563 148.624 16.3563C148.587 16.3382 148.551 16.3293 148.516 16.3293C147.686 16.1309 147 15.9597 146.459 15.8154C145.937 15.6531 145.332 15.4187 144.647 15.1121C143.98 14.7876 143.448 14.4359 143.051 14.0572C142.655 13.6786 142.313 13.1827 142.023 12.5697C141.753 11.9386 141.618 11.2354 141.618 10.4599C141.618 8.47651 142.321 6.98887 143.728 5.99715C145.152 5.00543 147.009 4.50964 149.299 4.50964C151.498 4.50964 153.294 5.01442 154.682 6.02424C156.089 7.03393 156.837 8.51259 156.927 10.4599H152.248C152.157 9.72062 151.842 9.15268 151.301 8.75599C150.76 8.34134 150.039 8.13387 149.137 8.13387C148.308 8.13387 147.631 8.30526 147.109 8.64776C146.604 8.97244 146.351 9.4052 146.351 9.94605C146.351 10.5592 146.657 11.0099 147.271 11.2984C147.884 11.5689 149.038 11.8936 150.733 12.2721C151.796 12.5247 152.671 12.777 153.357 13.0294C154.042 13.2638 154.735 13.6065 155.439 14.0572C156.16 14.5081 156.692 15.0941 157.035 15.8154C157.395 16.5186 157.575 17.366 157.575 18.3578C157.575 20.3232 156.827 21.8649 155.331 22.9828C153.852 24.1009 151.959 24.6598 149.651 24.6598ZM166.131 24.6327C163.93 24.6327 162.154 23.9386 160.802 22.5501C159.449 21.1617 158.774 19.4126 158.774 17.303C158.774 15.1932 159.441 13.4442 160.774 12.0558C162.109 10.6673 163.858 9.97314 166.023 9.97314C167.861 9.97314 169.366 10.4599 170.538 11.4337C171.71 12.4074 172.395 13.6876 172.595 15.2744H168.349C168.041 13.9039 167.285 13.2188 166.076 13.2188C165.138 13.2188 164.427 13.5794 163.94 14.3006C163.471 15.022 163.236 16.0227 163.236 17.303C163.236 18.5651 163.479 19.5569 163.966 20.2782C164.453 20.9814 165.157 21.333 166.076 21.333C167.482 21.333 168.285 20.5395 168.483 18.9528H172.703C172.648 20.5937 172.018 21.955 170.809 23.037C169.619 24.1009 168.059 24.6327 166.131 24.6327ZM178.455 24.5516C177.032 24.5516 175.886 24.182 175.02 23.4427C174.156 22.7033 173.722 21.6666 173.722 20.3322C173.722 18.9258 174.191 17.907 175.128 17.2759C176.066 16.6267 177.365 16.1939 179.024 15.9776C180.377 15.8154 181.296 15.635 181.782 15.4366C182.287 15.2203 182.54 14.8867 182.54 14.4359C182.54 13.4442 181.908 12.9483 180.646 12.9483C179.295 12.9483 178.546 13.5433 178.402 14.7334H174.345C174.399 13.3631 174.957 12.2271 176.021 11.3255C177.103 10.4239 178.636 9.97314 180.62 9.97314C182.603 9.97314 184.1 10.3517 185.11 11.1092C186.281 11.9566 186.868 13.2728 186.868 15.0581V22.0362C186.868 23.1361 187.03 23.7943 187.355 24.0106V24.2H183.08C182.901 23.9476 182.748 23.4337 182.621 22.6583H182.567C181.684 23.9205 180.314 24.5516 178.455 24.5516ZM179.862 21.7387C180.691 21.7387 181.359 21.5133 181.863 21.0625C182.387 20.5937 182.648 19.9897 182.648 19.2504V17.6005C182.216 17.8169 181.458 18.0603 180.377 18.3308C179.493 18.5291 178.871 18.7636 178.51 19.0339C178.149 19.3044 177.97 19.6921 177.97 20.197C177.97 21.2248 178.6 21.7387 179.862 21.7387ZM189.004 24.2V10.3517H193.252V12.245H193.332C194.396 10.7125 195.82 9.94605 197.606 9.94605C199.102 9.94605 200.274 10.433 201.122 11.4066C201.987 12.3622 202.421 13.6245 202.421 15.1932V24.2H198.012V16.0859C198.012 15.3286 197.822 14.7334 197.443 14.3006C197.082 13.8499 196.55 13.6245 195.847 13.6245C195.127 13.6245 194.54 13.895 194.09 14.4359C193.639 14.9769 193.413 15.68 193.413 16.5456V24.2H189.004Z" fill="white"/>
</svg>
