<svg width="47" height="42" viewBox="0 0 47 42" fill="none" xmlns="http://www.w3.org/2000/svg">
<path d="M12.0894 29.5711L0.961056 23.0718C0.343239 22.7265 0 22.105 0 21.4144V8.41573C0 7.72513 0.343239 7.10359 0.961056 6.75829L12.0894 0.258975C12.7072 -0.086325 13.3937 -0.086325 14.0115 0.258975L25.1475 6.75829C25.7653 7.10359 26.1086 7.72513 26.1086 8.41573V31.5739L33.9419 36.1395L41.7752 31.5739V22.5193L33.9419 17.9537L28.7858 20.9233V14.8383L32.9809 12.4212C33.2554 12.2831 33.5987 12.145 33.9419 12.145C34.2851 12.145 34.6284 12.214 34.903 12.4212L46.0389 18.9282C46.6568 19.2735 47 19.895 47 20.5856V33.5843C47 34.2749 46.6568 34.8964 46.0389 35.2417L34.9106 41.741C34.2928 42.0863 33.6063 42.0863 32.9885 41.741L21.8601 35.2417C21.2423 34.8964 20.8991 34.2749 20.8991 33.5843V10.4261L20.7618 10.3571L13.0581 5.86051L5.22477 10.4261V19.4807L13.0581 24.0386L18.2142 21.0691V27.154L14.0192 29.5711C13.4013 29.9164 12.7149 29.9164 12.0894 29.5711Z" fill="url(#paint0_linear_10099_6743)"/>
<defs>
<linearGradient id="paint0_linear_10099_6743" x1="47.077" y1="34.8607" x2="2.13814" y2="8.75765" gradientUnits="userSpaceOnUse">
<stop stop-color="#A726C1"/>
<stop offset="0.8784" stop-color="#803BDF"/>
<stop offset="1" stop-color="#7B3FE4"/>
</linearGradient>
</defs>
</svg>
