<svg width="459" height="147" viewBox="0 0 459 147" fill="none" xmlns="http://www.w3.org/2000/svg">
<g filter="url(#filter0_b_0_1927)">
<rect x="-3.05176e-05" y="0.175293" width="144.46" height="146.266" rx="54.1726" fill="url(#paint0_linear_0_1927)" fill-opacity="0.1"/>
<rect x="1.35429" y="1.52961" width="141.752" height="143.557" rx="52.8183" stroke="url(#paint1_linear_0_1927)" stroke-width="2.70863"/>
</g>
<path d="M52.636 109.586C46.8156 105.502 42.294 99.5943 39.8986 92.948C39.5647 92.0247 38.5497 91.548 37.6294 91.8768C36.7062 92.2107 36.2294 93.2257 36.5582 94.146C39.1933 101.477 44.1845 107.99 50.5918 112.488C50.8894 112.694 51.2299 112.802 51.5657 112.811C52.1368 112.827 52.7063 112.562 53.0598 112.056C53.6244 111.256 53.4313 110.148 52.6279 109.588L52.636 109.586Z" fill="url(#paint2_linear_0_1927)"/>
<path d="M83.9094 113.77C79.9241 115.21 75.7486 115.892 71.49 115.795C67.7315 115.707 64.0469 115.007 60.5401 113.726C59.6228 113.388 58.5985 113.861 58.2651 114.782C57.9266 115.699 58.4002 116.723 59.3205 117.057C63.1977 118.476 67.2648 119.247 71.4068 119.345C76.1016 119.454 80.7181 118.706 85.1125 117.114C86.0358 116.78 86.5125 115.765 86.1786 114.841C85.8446 113.918 84.8267 113.446 83.9064 113.775L83.9094 113.77Z" fill="url(#paint3_linear_0_1927)"/>
<path d="M107.602 95.2822C107.964 94.3715 107.514 93.3407 106.604 92.9788C105.693 92.6169 104.662 93.0662 104.3 93.9769C101.875 100.093 97.757 105.381 92.3851 109.27C91.5906 109.842 91.4126 110.955 91.9876 111.744C92.3251 112.212 92.8475 112.466 93.3872 112.477C93.7626 112.489 94.14 112.379 94.4695 112.139C100.389 107.857 104.933 102.022 107.605 95.277L107.602 95.2822Z" fill="url(#paint4_linear_0_1927)"/>
<path d="M102.697 48.4055C105.703 53.7587 107.216 59.8277 107.073 65.964L106.692 82.1961C106.655 83.8201 106.496 85.4554 106.236 87.0529C106.075 88.0179 106.727 88.9338 107.692 89.095C107.779 89.1108 107.863 89.1185 107.945 89.1181C108.813 89.141 109.589 88.5175 109.734 87.6389C110.028 85.8767 110.203 84.0728 110.242 82.2793L110.623 66.0473C110.782 59.2789 109.108 52.5779 105.794 46.6711C105.31 45.8183 104.237 45.5129 103.38 45.9938C102.53 46.4725 102.218 47.5557 102.702 48.4084L102.697 48.4055Z" fill="url(#paint5_linear_0_1927)"/>
<path d="M76.1841 30.9273C85.2978 31.8611 93.537 36.3313 99.3751 43.5179C99.7127 43.9381 100.21 44.164 100.71 44.1728C101.115 44.1812 101.531 44.0526 101.868 43.7761C102.628 43.157 102.745 42.0436 102.126 41.2833C95.6885 33.3615 86.6029 28.4299 76.5467 27.4025C75.5725 27.3043 74.7012 28.0095 74.6 28.9888C74.5018 29.9629 75.207 30.8342 76.1863 30.9354L76.1841 30.9273Z" fill="url(#paint6_linear_0_1927)"/>
<path d="M53.3547 42.5408C52.5923 43.1519 52.467 44.2675 53.0752 45.035C53.415 45.4633 53.9126 45.6892 54.4178 45.701C54.8226 45.7094 55.2301 45.5828 55.5642 45.3115C59.6346 42.057 64.5024 40.0342 69.6351 39.4682C70.6109 39.3626 71.31 38.4828 71.2014 37.5121C71.0957 36.5364 70.2159 35.8373 69.2453 35.9459C63.4435 36.583 57.9483 38.8647 53.3466 42.543L53.3547 42.5408Z" fill="url(#paint7_linear_0_1927)"/>
<path d="M73.4208 109.046C73.4449 108.07 72.6676 107.252 71.6887 107.233C66.3934 107.112 61.2802 105.456 56.8967 102.455C56.0903 101.9 54.9865 102.11 54.4322 102.916C53.8779 103.722 54.0841 104.831 54.8935 105.38C59.8362 108.773 65.6172 110.643 71.6055 110.783C72.5814 110.807 73.3988 110.03 73.4178 109.051L73.4208 109.046Z" fill="url(#paint8_linear_0_1927)"/>
<path d="M79.0016 108.295C79.2292 109.047 79.9098 109.536 80.6554 109.557C80.838 109.56 81.0222 109.536 81.2109 109.482C85.0872 108.313 88.655 106.414 91.8212 103.838C92.5814 103.219 92.6935 102.103 92.0794 101.346C91.4602 100.585 90.3439 100.473 89.5866 101.087C86.7826 103.366 83.6197 105.049 80.1884 106.085C79.2522 106.371 78.7212 107.362 79.0016 108.295Z" fill="url(#paint9_linear_0_1927)"/>
<path d="M86.3223 83.0579C85.4842 82.5467 84.3955 82.8125 83.8844 83.6506C82.9359 85.1987 81.7039 86.5286 80.2282 87.5948C79.4337 88.1669 79.2557 89.2793 79.8278 90.0738C80.1652 90.5417 80.6876 90.7955 81.2243 90.8118C81.5946 90.8208 81.9771 90.714 82.3038 90.4793C84.1672 89.1318 85.719 87.4609 86.9171 85.5039C87.4283 84.6658 87.1625 83.5772 86.3245 83.066L86.3223 83.0579Z" fill="url(#paint10_linear_0_1927)"/>
<path d="M44.7682 83.1303C44.8084 82.9897 44.8384 82.8431 44.8368 82.6921L44.8456 82.3694L44.8891 80.6743L45.2327 66.0795C45.3571 60.8744 46.9576 55.832 49.8661 51.5038C50.4101 50.6915 50.1928 49.5899 49.3835 49.0407C48.5713 48.4967 47.4726 48.7088 46.9204 49.5233C43.6311 54.4166 41.8194 60.1084 41.6832 65.9962L41.3396 80.591L41.2961 82.2862C41.2735 83.2357 40.4841 83.9882 39.5345 83.9657C38.7119 83.9481 38.0406 83.3489 37.8857 82.5768C37.8859 82.5291 37.8993 82.4823 37.8944 82.4316C37.8729 81.8185 37.8706 81.1959 37.8887 80.5852L37.9072 79.8791L38.2697 64.3531C38.6967 46.516 52.9729 31.7802 70.7803 30.8043C71.7609 30.7492 72.5075 29.9173 72.4524 28.9367C72.3974 27.956 71.5574 27.2116 70.5848 27.2645C50.9386 28.3393 35.1913 44.5946 34.7282 64.2677L34.3658 79.7936L34.3472 80.4997L34.3107 82.1238C34.2449 85.0281 36.5499 87.4443 39.4513 87.5152C42.0989 87.5761 44.3323 85.6707 44.7601 83.1324L44.7682 83.1303Z" fill="url(#paint11_linear_0_1927)"/>
<path d="M99.1144 95.2972C101.722 90.8158 103.169 85.7325 103.29 80.5457L103.596 67.4452C103.762 60.2772 101.399 53.2197 96.9284 47.5666C95.4291 45.6702 93.7128 43.9488 91.8188 42.4525C91.0501 41.8449 89.9327 41.9711 89.325 42.7399C88.7174 43.5086 88.8466 44.6208 89.6124 45.2336C91.2886 46.5632 92.8151 48.0931 94.1423 49.7673C98.1011 54.7698 100.195 61.0166 100.047 67.3619L99.74 80.4624C99.6288 85.1836 98.278 89.8172 95.8444 93.8666C95.5676 94.287 95.1592 94.6042 94.6687 94.7443C94.1188 94.9046 93.5427 94.8382 93.0453 94.5647C92.5427 94.2882 92.1832 93.8349 92.0229 93.2849C91.8669 92.7511 91.9273 92.1853 92.1898 91.6952C94.7925 87.8731 96.2326 83.4276 96.3375 78.812L96.5725 68.8512C96.8836 55.637 86.3827 44.6319 73.1685 44.3208C59.9544 44.0097 48.9493 54.5107 48.6382 67.7248L48.4032 77.6856C48.0921 90.8997 58.593 101.905 71.8071 102.216C71.8071 102.216 71.8071 102.216 71.8123 102.219C71.8123 102.219 71.8123 102.219 71.8174 102.222C75.1528 102.298 77.9314 99.6488 78.0071 96.3134C78.0828 92.978 75.434 90.1994 72.0935 90.1207C72.0935 90.1207 72.0935 90.1207 72.0883 90.1178C72.0883 90.1178 72.0883 90.1178 72.0832 90.1148C64.6747 89.9403 58.794 83.7735 58.9656 76.3701L59.1236 69.546C59.2981 62.1376 65.4649 56.2568 72.8682 56.4284C80.2716 56.6 86.1574 62.7697 85.9859 70.1731L85.9357 72.3764L85.8952 74.0665C85.8727 75.016 85.0832 75.7685 84.1337 75.746C83.1842 75.7234 82.4317 74.934 82.4542 73.9845L82.5093 71.6543C82.6387 66.1448 78.263 61.5569 72.7536 61.4275C67.2442 61.2981 62.6562 65.6738 62.5268 71.1833L62.4378 74.8728C62.3084 80.3822 66.6841 84.9702 72.1935 85.0996C73.1695 85.1237 73.9869 84.3464 74.0059 83.3675C74.0301 82.3916 73.2527 81.5742 72.2739 81.5552C68.7192 81.4689 65.8982 78.5158 65.9793 74.9582L66.0683 71.2687C66.1545 67.714 69.1076 64.893 72.6652 64.9741C76.2199 65.0603 79.0409 68.0134 78.9598 71.571L78.9047 73.9012C78.839 76.8055 81.144 79.2217 84.0453 79.2926C86.9496 79.3583 89.3658 77.0533 89.4367 74.1519L89.4802 72.4567L89.5303 70.2534C89.748 60.8902 82.3097 53.0936 72.9464 52.8759C63.5831 52.6582 55.7866 60.0966 55.5689 69.4598L55.4109 76.2839C55.1933 85.6472 62.6316 93.4437 71.9948 93.6614C71.9948 93.6614 71.9948 93.6614 71.9999 93.6644C71.9999 93.6644 72 93.6644 72.0051 93.6673C73.3857 93.6999 74.482 94.8516 74.4495 96.2323C74.4169 97.6129 73.2652 98.7092 71.8845 98.6767C71.8845 98.6767 71.8845 98.6767 71.8794 98.6737C71.8743 98.6708 71.8794 98.6737 71.8743 98.6708C60.612 98.408 51.6686 89.0325 51.9314 77.7702L52.1664 67.8094C52.4292 56.5471 61.8047 47.6038 73.067 47.8666C84.3293 48.1294 93.2726 57.5048 93.0098 68.7671L92.7748 78.7279C92.6786 82.7137 91.431 86.5536 89.1549 89.8337C89.149 89.844 89.1431 89.8542 89.1372 89.8645C89.1194 89.8952 89.0996 89.9178 89.0848 89.9434C89.0552 89.9946 89.0359 90.0517 89.0034 90.108C88.9945 90.1234 88.9827 90.1439 88.9738 90.1592C88.3382 91.4375 88.1983 92.8859 88.6028 94.2663C89.0238 95.7245 89.9923 96.9321 91.3178 97.6633C92.1305 98.112 93.0196 98.3455 93.9215 98.3678C94.4956 98.3784 95.0775 98.3048 95.6436 98.1401C96.9402 97.7624 98.032 96.9591 98.7739 95.8515L98.7798 95.8412C98.7887 95.8259 98.7976 95.8105 98.8064 95.7952C98.8855 95.6701 98.9696 95.548 99.0384 95.4171C99.065 95.371 99.0784 95.3241 99.0969 95.2802L99.1144 95.2972Z" fill="url(#paint12_linear_0_1927)"/>
<path d="M77.9117 36.2118C76.8998 36.0372 75.8664 35.9116 74.8379 35.8366C73.8439 35.7611 73.0127 36.5031 72.9409 37.4788C72.8742 38.4575 73.6074 39.304 74.5831 39.3758C75.4958 39.4386 76.4134 39.5519 77.3073 39.7062C77.3937 39.722 77.4832 39.7327 77.5734 39.7301C78.4356 39.7501 79.2061 39.1368 79.3596 38.2561C79.5289 37.2889 78.8818 36.376 77.9146 36.2067L77.9117 36.2118Z" fill="url(#paint13_linear_0_1927)"/>
<path d="M86.6181 39.4546C85.7345 38.9315 84.8133 38.4467 83.8787 38.0109C82.9765 37.5868 81.9357 37.9848 81.5217 38.8712C81.1113 39.7622 81.4956 40.8141 82.382 41.2282C83.2127 41.6113 84.03 42.0436 84.8107 42.5057C84.8858 42.5512 84.9656 42.5929 85.0508 42.6226C85.8497 42.9479 86.7879 42.6487 87.2445 41.8801C87.7467 41.0363 87.4665 39.953 86.6227 39.4508L86.6181 39.4546Z" fill="url(#paint14_linear_0_1927)"/>
<path d="M48.3178 99.3175C48.6555 99.7377 49.148 99.9606 49.6532 99.9724C50.0579 99.9808 50.4736 99.8521 50.8106 99.5757C51.5709 98.9565 51.6829 97.8402 51.0689 97.0829C49.4556 95.1002 48.1279 92.9069 47.1263 90.5742C46.738 89.6742 45.6956 89.2567 44.7956 89.645C43.8956 90.0333 43.4781 91.0757 43.8664 91.9757C45.0008 94.6104 46.4945 97.0838 48.3178 99.3175Z" fill="url(#paint15_linear_0_1927)"/>
<path d="M86.571 95.3733C86.0019 94.5737 84.8984 94.3803 84.0988 94.9494C83.2139 95.5717 82.2771 96.13 81.3137 96.6046C80.4347 97.0392 80.0743 98.1008 80.5038 98.9768C80.8062 99.5883 81.4146 99.9533 82.0547 99.9678C82.3297 99.9764 82.6115 99.9138 82.8761 99.7867C84.0115 99.2271 85.1129 98.5728 86.1472 97.8456C86.9439 97.2815 87.1402 96.1729 86.571 95.3733Z" fill="url(#paint16_linear_0_1927)"/>
<path d="M188.285 19.0013C191.254 19.0013 193.864 19.6087 196.113 20.8234C198.363 22.0381 200.095 23.7702 201.31 26.0197C202.569 28.2243 203.199 30.7662 203.199 33.6456C203.199 36.4799 202.547 38.9769 201.242 41.1364C199.982 43.2959 198.183 44.9831 195.843 46.1978C193.549 47.3675 190.894 47.9524 187.88 47.9524H178.297C178.072 47.9524 177.96 48.0649 177.96 48.2898V65.4985C177.96 65.7235 177.87 65.9259 177.69 66.1059C177.555 66.2409 177.375 66.3083 177.15 66.3083H169.254C169.029 66.3083 168.827 66.2409 168.647 66.1059C168.512 65.9259 168.444 65.7235 168.444 65.4985V19.8111C168.444 19.5862 168.512 19.4062 168.647 19.2712C168.827 19.0913 169.029 19.0013 169.254 19.0013H188.285ZM186.868 40.3266C188.937 40.3266 190.602 39.7417 191.862 38.572C193.121 37.3572 193.751 35.7826 193.751 33.848C193.751 31.8685 193.121 30.2713 191.862 29.0566C190.602 27.8418 188.937 27.2345 186.868 27.2345H178.297C178.072 27.2345 177.96 27.3469 177.96 27.5719V39.9892C177.96 40.2141 178.072 40.3266 178.297 40.3266H186.868ZM233.613 66.3083C233.163 66.3083 232.848 66.1059 232.668 65.701L224.233 47.0076C224.143 46.8276 224.008 46.7377 223.828 46.7377H217.552C217.327 46.7377 217.214 46.8501 217.214 47.0751V65.4985C217.214 65.7235 217.124 65.9259 216.944 66.1059C216.809 66.2409 216.63 66.3083 216.405 66.3083H208.509C208.284 66.3083 208.081 66.2409 207.901 66.1059C207.766 65.9259 207.699 65.7235 207.699 65.4985V19.8786C207.699 19.6536 207.766 19.4737 207.901 19.3387C208.081 19.1588 208.284 19.0688 208.509 19.0688H227.81C230.689 19.0688 233.208 19.6536 235.368 20.8234C237.572 21.9931 239.26 23.6578 240.429 25.8173C241.644 27.9768 242.251 30.4738 242.251 33.3081C242.251 36.3675 241.487 38.9994 239.957 41.2039C238.427 43.3634 236.29 44.8931 233.546 45.7929C233.321 45.8829 233.253 46.0403 233.343 46.2653L242.521 65.3636C242.611 65.5435 242.656 65.6785 242.656 65.7685C242.656 66.1284 242.409 66.3083 241.914 66.3083H233.613ZM217.552 27.2345C217.327 27.2345 217.214 27.3469 217.214 27.5719V39.1119C217.214 39.3368 217.327 39.4493 217.552 39.4493H226.392C228.282 39.4493 229.812 38.8869 230.981 37.7622C232.196 36.6374 232.803 35.1752 232.803 33.3756C232.803 31.576 232.196 30.1138 230.981 28.9891C229.812 27.8193 228.282 27.2345 226.392 27.2345H217.552ZM264.606 67.0507C261.097 67.0507 257.993 66.3308 255.293 64.8912C252.639 63.4515 250.569 61.4494 249.085 58.885C247.6 56.2756 246.858 53.2837 246.858 49.9095V35.4677C246.858 32.1384 247.6 29.1915 249.085 26.6271C250.569 24.0627 252.639 22.0831 255.293 20.6884C257.993 19.2487 261.097 18.5289 264.606 18.5289C268.161 18.5289 271.265 19.2487 273.919 20.6884C276.619 22.0831 278.711 24.0627 280.195 26.6271C281.68 29.1915 282.422 32.1384 282.422 35.4677V49.9095C282.422 53.2837 281.68 56.2756 280.195 58.885C278.711 61.4944 276.619 63.519 273.919 64.9586C271.265 66.3533 268.161 67.0507 264.606 67.0507ZM264.606 58.885C267.081 58.885 269.083 58.0977 270.613 56.523C272.142 54.9484 272.907 52.8563 272.907 50.2469V35.4002C272.907 32.7907 272.142 30.6987 270.613 29.1241C269.128 27.5044 267.126 26.6946 264.606 26.6946C262.132 26.6946 260.13 27.5044 258.6 29.1241C257.115 30.6987 256.373 32.7907 256.373 35.4002V50.2469C256.373 52.8563 257.115 54.9484 258.6 56.523C260.13 58.0977 262.132 58.885 264.606 58.885ZM305.171 67.0507C301.662 67.0507 298.558 66.3308 295.858 64.8912C293.204 63.4515 291.134 61.4494 289.65 58.885C288.165 56.2756 287.423 53.2837 287.423 49.9095V35.4677C287.423 32.1384 288.165 29.1915 289.65 26.6271C291.134 24.0627 293.204 22.0831 295.858 20.6884C298.558 19.2487 301.662 18.5289 305.171 18.5289C308.725 18.5289 311.83 19.2487 314.484 20.6884C317.184 22.0831 319.276 24.0627 320.76 26.6271C322.245 29.1915 322.987 32.1384 322.987 35.4677V49.9095C322.987 53.2837 322.245 56.2756 320.76 58.885C319.276 61.4944 317.184 63.519 314.484 64.9586C311.83 66.3533 308.725 67.0507 305.171 67.0507ZM305.171 58.885C307.646 58.885 309.648 58.0977 311.177 56.523C312.707 54.9484 313.472 52.8563 313.472 50.2469V35.4002C313.472 32.7907 312.707 30.6987 311.177 29.1241C309.693 27.5044 307.691 26.6946 305.171 26.6946C302.697 26.6946 300.695 27.5044 299.165 29.1241C297.68 30.6987 296.938 32.7907 296.938 35.4002V50.2469C296.938 52.8563 297.68 54.9484 299.165 56.523C300.695 58.0977 302.697 58.885 305.171 58.885ZM361.663 26.4247C361.663 26.6496 361.573 26.8521 361.393 27.032C361.258 27.167 361.078 27.2345 360.853 27.2345H338.785C338.56 27.2345 338.448 27.3469 338.448 27.5719V38.0321C338.448 38.257 338.56 38.3695 338.785 38.3695H353.294C353.519 38.3695 353.699 38.4595 353.834 38.6395C354.014 38.7744 354.104 38.9544 354.104 39.1793V45.7254C354.104 45.9503 354.014 46.1528 353.834 46.3328C353.699 46.4677 353.519 46.5352 353.294 46.5352H338.785C338.56 46.5352 338.448 46.6477 338.448 46.8726V65.4985C338.448 65.7235 338.358 65.9259 338.178 66.1059C338.043 66.2409 337.863 66.3083 337.638 66.3083H329.742C329.517 66.3083 329.315 66.2409 329.135 66.1059C329 65.9259 328.932 65.7235 328.932 65.4985V19.8786C328.932 19.6536 329 19.4737 329.135 19.3387C329.315 19.1588 329.517 19.0688 329.742 19.0688H360.853C361.078 19.0688 361.258 19.1588 361.393 19.3387C361.573 19.4737 361.663 19.6536 361.663 19.8786V26.4247ZM394.31 67.0507C390.8 67.0507 387.696 66.3308 384.997 64.8912C382.342 63.4515 380.273 61.4494 378.788 58.885C377.303 56.2756 376.561 53.2837 376.561 49.9095V35.4677C376.561 32.1384 377.303 29.1915 378.788 26.6271C380.273 24.0627 382.342 22.0831 384.997 20.6884C387.696 19.2487 390.8 18.5289 394.31 18.5289C397.864 18.5289 400.968 19.2487 403.622 20.6884C406.322 22.0831 408.414 24.0627 409.899 26.6271C411.383 29.1915 412.126 32.1384 412.126 35.4677V49.9095C412.126 53.2837 411.383 56.2756 409.899 58.885C408.414 61.4944 406.322 63.519 403.622 64.9586C400.968 66.3533 397.864 67.0507 394.31 67.0507ZM394.31 58.885C396.784 58.885 398.786 58.0977 400.316 56.523C401.845 54.9484 402.61 52.8563 402.61 50.2469V35.4002C402.61 32.7907 401.845 30.6987 400.316 29.1241C398.831 27.5044 396.829 26.6946 394.31 26.6946C391.835 26.6946 389.833 27.5044 388.303 29.1241C386.819 30.6987 386.076 32.7907 386.076 35.4002V50.2469C386.076 52.8563 386.819 54.9484 388.303 56.523C389.833 58.0977 391.835 58.885 394.31 58.885ZM450.801 26.4247C450.801 26.6496 450.711 26.8521 450.531 27.032C450.396 27.167 450.216 27.2345 449.991 27.2345H427.923C427.698 27.2345 427.586 27.3469 427.586 27.5719V38.0321C427.586 38.257 427.698 38.3695 427.923 38.3695H442.433C442.658 38.3695 442.838 38.4595 442.973 38.6395C443.153 38.7744 443.243 38.9544 443.243 39.1793V45.7254C443.243 45.9503 443.153 46.1528 442.973 46.3328C442.838 46.4677 442.658 46.5352 442.433 46.5352H427.923C427.698 46.5352 427.586 46.6477 427.586 46.8726V65.4985C427.586 65.7235 427.496 65.9259 427.316 66.1059C427.181 66.2409 427.001 66.3083 426.776 66.3083H418.88C418.655 66.3083 418.453 66.2409 418.273 66.1059C418.138 65.9259 418.071 65.7235 418.071 65.4985V19.8786C418.071 19.6536 418.138 19.4737 418.273 19.3387C418.453 19.1588 418.655 19.0688 418.88 19.0688H449.991C450.216 19.0688 450.396 19.1588 450.531 19.3387C450.711 19.4737 450.801 19.6536 450.801 19.8786V26.4247ZM184.978 133.848C181.379 133.848 178.23 133.286 175.53 132.161C172.831 130.991 170.739 129.349 169.254 127.235C167.814 125.075 167.095 122.578 167.095 119.744V118.259C167.095 118.034 167.162 117.854 167.297 117.719C167.477 117.539 167.679 117.449 167.904 117.449H175.598C175.823 117.449 176.003 117.539 176.138 117.719C176.318 117.854 176.408 118.034 176.408 118.259V119.271C176.408 121.071 177.24 122.601 178.904 123.86C180.569 125.075 182.819 125.683 185.653 125.683C188.037 125.683 189.815 125.188 190.984 124.198C192.154 123.163 192.739 121.903 192.739 120.419C192.739 119.339 192.379 118.439 191.659 117.719C190.939 116.954 189.95 116.302 188.69 115.762C187.475 115.177 185.518 114.39 182.819 113.4C179.804 112.365 177.24 111.308 175.125 110.228C173.056 109.149 171.301 107.687 169.861 105.842C168.467 103.952 167.769 101.635 167.769 98.8909C167.769 96.1915 168.467 93.8296 169.861 91.805C171.256 89.7805 173.191 88.2283 175.665 87.1485C178.14 86.0688 180.997 85.5289 184.236 85.5289C187.655 85.5289 190.692 86.1363 193.346 87.351C196.046 88.5657 198.138 90.2753 199.622 92.4799C201.152 94.6394 201.917 97.1588 201.917 100.038V101.05C201.917 101.275 201.827 101.478 201.647 101.658C201.512 101.793 201.332 101.86 201.107 101.86H193.346C193.121 101.86 192.919 101.793 192.739 101.658C192.604 101.478 192.536 101.275 192.536 101.05V100.511C192.536 98.621 191.749 97.0239 190.174 95.7191C188.645 94.3694 186.53 93.6946 183.831 93.6946C181.716 93.6946 180.052 94.1445 178.837 95.0443C177.667 95.9441 177.082 97.1813 177.082 98.756C177.082 99.8807 177.42 100.826 178.095 101.59C178.814 102.355 179.849 103.053 181.199 103.682C182.594 104.267 184.731 105.077 187.61 106.112C190.804 107.282 193.301 108.316 195.101 109.216C196.945 110.116 198.588 111.466 200.027 113.265C201.512 115.02 202.254 117.314 202.254 120.149C202.254 124.378 200.702 127.73 197.598 130.204C194.494 132.633 190.287 133.848 184.978 133.848ZM240.365 93.4247C240.365 93.6496 240.275 93.8521 240.095 94.032C239.96 94.167 239.78 94.2345 239.555 94.2345H217.42C217.195 94.2345 217.083 94.3469 217.083 94.5719V105.032C217.083 105.257 217.195 105.37 217.42 105.37H231.929C232.154 105.37 232.334 105.459 232.469 105.639C232.649 105.774 232.739 105.954 232.739 106.179V112.725C232.739 112.95 232.649 113.153 232.469 113.333C232.334 113.468 232.154 113.535 231.929 113.535H217.42C217.195 113.535 217.083 113.648 217.083 113.873V124.805C217.083 125.03 217.195 125.143 217.42 125.143H239.555C239.78 125.143 239.96 125.233 240.095 125.413C240.275 125.548 240.365 125.728 240.365 125.952V132.499C240.365 132.723 240.275 132.926 240.095 133.106C239.96 133.241 239.78 133.308 239.555 133.308H208.377C208.152 133.308 207.95 133.241 207.77 133.106C207.635 132.926 207.567 132.723 207.567 132.499V86.8786C207.567 86.6536 207.635 86.4737 207.77 86.3387C207.95 86.1588 208.152 86.0688 208.377 86.0688H239.555C239.78 86.0688 239.96 86.1588 240.095 86.3387C240.275 86.4737 240.365 86.6536 240.365 86.8786V93.4247ZM262.229 133.848C258.72 133.848 255.638 133.173 252.984 131.824C250.329 130.429 248.282 128.494 246.842 126.02C245.403 123.546 244.683 120.689 244.683 117.449V101.86C244.683 98.621 245.403 95.7641 246.842 93.2897C248.282 90.8152 250.329 88.9032 252.984 87.5534C255.638 86.2037 258.72 85.5289 262.229 85.5289C265.693 85.5289 268.73 86.1813 271.34 87.486C273.994 88.7457 276.041 90.5678 277.481 92.9523C278.965 95.2917 279.708 98.0136 279.708 101.118C279.708 101.523 279.438 101.77 278.898 101.86L271.002 102.333H270.867C270.417 102.333 270.192 102.085 270.192 101.59C270.192 99.2059 269.45 97.2938 267.965 95.8541C266.526 94.4144 264.614 93.6946 262.229 93.6946C259.8 93.6946 257.843 94.4144 256.358 95.8541C254.918 97.2938 254.198 99.2059 254.198 101.59V117.854C254.198 120.194 254.918 122.083 256.358 123.523C257.843 124.963 259.8 125.683 262.229 125.683C264.614 125.683 266.526 124.963 267.965 123.523C269.45 122.083 270.192 120.194 270.192 117.854C270.192 117.359 270.462 117.112 271.002 117.112L278.898 117.449C279.123 117.449 279.303 117.517 279.438 117.652C279.618 117.787 279.708 117.944 279.708 118.124C279.708 121.229 278.965 123.973 277.481 126.357C276.041 128.742 273.994 130.586 271.34 131.891C268.73 133.196 265.693 133.848 262.229 133.848ZM302.477 133.848C299.013 133.848 295.954 133.173 293.299 131.824C290.69 130.474 288.643 128.584 287.158 126.155C285.718 123.68 284.998 120.846 284.998 117.652V86.8786C284.998 86.6536 285.066 86.4737 285.201 86.3387C285.381 86.1588 285.583 86.0688 285.808 86.0688H293.704C293.929 86.0688 294.109 86.1588 294.244 86.3387C294.424 86.4737 294.514 86.6536 294.514 86.8786V117.719C294.514 120.104 295.234 122.038 296.673 123.523C298.158 124.963 300.093 125.683 302.477 125.683C304.862 125.683 306.774 124.963 308.213 123.523C309.698 122.038 310.44 120.104 310.44 117.719V86.8786C310.44 86.6536 310.508 86.4737 310.643 86.3387C310.823 86.1588 311.025 86.0688 311.25 86.0688H319.146C319.371 86.0688 319.551 86.1588 319.686 86.3387C319.866 86.4737 319.956 86.6536 319.956 86.8786V117.652C319.956 120.846 319.213 123.68 317.729 126.155C316.289 128.584 314.242 130.474 311.588 131.824C308.978 133.173 305.941 133.848 302.477 133.848ZM352.342 133.308C351.892 133.308 351.577 133.106 351.397 132.701L342.962 114.008C342.872 113.828 342.737 113.738 342.557 113.738H336.281C336.056 113.738 335.943 113.85 335.943 114.075V132.499C335.943 132.723 335.853 132.926 335.673 133.106C335.538 133.241 335.358 133.308 335.134 133.308H327.238C327.013 133.308 326.81 133.241 326.63 133.106C326.495 132.926 326.428 132.723 326.428 132.499V86.8786C326.428 86.6536 326.495 86.4737 326.63 86.3387C326.81 86.1588 327.013 86.0688 327.238 86.0688H346.539C349.418 86.0688 351.937 86.6536 354.097 87.8234C356.301 88.9931 357.988 90.6578 359.158 92.8173C360.373 94.9768 360.98 97.4738 360.98 100.308C360.98 103.367 360.215 105.999 358.686 108.204C357.156 110.363 355.019 111.893 352.275 112.793C352.05 112.883 351.982 113.04 352.072 113.265L361.25 132.364C361.34 132.544 361.385 132.678 361.385 132.768C361.385 133.128 361.138 133.308 360.643 133.308H352.342ZM336.281 94.2345C336.056 94.2345 335.943 94.3469 335.943 94.5719V106.112C335.943 106.337 336.056 106.449 336.281 106.449H345.121C347.011 106.449 348.541 105.887 349.71 104.762C350.925 103.637 351.532 102.175 351.532 100.376C351.532 98.576 350.925 97.1138 349.71 95.9891C348.541 94.8193 347.011 94.2345 345.121 94.2345H336.281ZM367.341 133.308C367.116 133.308 366.914 133.241 366.734 133.106C366.599 132.926 366.532 132.723 366.532 132.499V86.8786C366.532 86.6536 366.599 86.4737 366.734 86.3387C366.914 86.1588 367.116 86.0688 367.341 86.0688H375.237C375.462 86.0688 375.642 86.1588 375.777 86.3387C375.957 86.4737 376.047 86.6536 376.047 86.8786V132.499C376.047 132.723 375.957 132.926 375.777 133.106C375.642 133.241 375.462 133.308 375.237 133.308H367.341ZM415.505 86.0688C415.73 86.0688 415.91 86.1588 416.045 86.3387C416.225 86.4737 416.315 86.6536 416.315 86.8786V93.4921C416.315 93.7171 416.225 93.9195 416.045 94.0995C415.91 94.2345 415.73 94.302 415.505 94.302H403.425C403.2 94.302 403.088 94.4144 403.088 94.6394V132.499C403.088 132.723 402.998 132.926 402.818 133.106C402.683 133.241 402.503 133.308 402.278 133.308H394.382C394.157 133.308 393.955 133.241 393.775 133.106C393.64 132.926 393.572 132.723 393.572 132.499V94.6394C393.572 94.4144 393.46 94.302 393.235 94.302H381.493C381.268 94.302 381.065 94.2345 380.885 94.0995C380.75 93.9195 380.683 93.7171 380.683 93.4921V86.8786C380.683 86.6536 380.75 86.4737 380.885 86.3387C381.065 86.1588 381.268 86.0688 381.493 86.0688H415.505ZM433.791 133.241C433.566 133.241 433.364 133.173 433.184 133.038C433.049 132.858 432.981 132.656 432.981 132.431V115.357C432.981 115.177 432.959 115.042 432.914 114.952L419.012 87.0136C418.922 86.8336 418.877 86.6986 418.877 86.6087C418.877 86.2487 419.124 86.0688 419.619 86.0688H428.122C428.572 86.0688 428.887 86.2712 429.067 86.6761L437.503 104.627C437.638 104.897 437.773 104.897 437.908 104.627L446.343 86.6761C446.523 86.2712 446.838 86.0688 447.288 86.0688H455.926C456.241 86.0688 456.443 86.1588 456.533 86.3387C456.668 86.4737 456.668 86.6986 456.533 87.0136L442.497 114.952C442.452 115.042 442.429 115.177 442.429 115.357V132.431C442.429 132.656 442.339 132.858 442.159 133.038C442.024 133.173 441.844 133.241 441.619 133.241H433.791Z" fill="white"/>
<defs>
<filter id="filter0_b_0_1927" x="-10" y="-9.82471" width="164.46" height="166.266" filterUnits="userSpaceOnUse" color-interpolation-filters="sRGB">
<feFlood flood-opacity="0" result="BackgroundImageFix"/>
<feGaussianBlur in="BackgroundImageFix" stdDeviation="5"/>
<feComposite in2="SourceAlpha" operator="in" result="effect1_backgroundBlur_0_1927"/>
<feBlend mode="normal" in="SourceGraphic" in2="effect1_backgroundBlur_0_1927" result="shape"/>
</filter>
<linearGradient id="paint0_linear_0_1927" x1="72.2301" y1="0.175293" x2="72.2301" y2="146.441" gradientUnits="userSpaceOnUse">
<stop stop-color="#59FD3F"/>
<stop offset="0.5" stop-color="#3FF794"/>
<stop offset="1" stop-color="#20EFF6"/>
</linearGradient>
<linearGradient id="paint1_linear_0_1927" x1="72.2301" y1="0.175293" x2="72.2301" y2="146.441" gradientUnits="userSpaceOnUse">
<stop stop-color="#59FD3F"/>
<stop offset="0.5" stop-color="#3FF794"/>
<stop offset="1" stop-color="#20EFF6"/>
</linearGradient>
<linearGradient id="paint2_linear_0_1927" x1="72.4712" y1="27.2618" x2="72.4712" y2="119.355" gradientUnits="userSpaceOnUse">
<stop stop-color="#59FD3F"/>
<stop offset="0.5" stop-color="#3FF794"/>
<stop offset="1" stop-color="#20EFF6"/>
</linearGradient>
<linearGradient id="paint3_linear_0_1927" x1="72.4712" y1="27.2618" x2="72.4712" y2="119.355" gradientUnits="userSpaceOnUse">
<stop stop-color="#59FD3F"/>
<stop offset="0.5" stop-color="#3FF794"/>
<stop offset="1" stop-color="#20EFF6"/>
</linearGradient>
<linearGradient id="paint4_linear_0_1927" x1="72.4712" y1="27.2618" x2="72.4712" y2="119.355" gradientUnits="userSpaceOnUse">
<stop stop-color="#59FD3F"/>
<stop offset="0.5" stop-color="#3FF794"/>
<stop offset="1" stop-color="#20EFF6"/>
</linearGradient>
<linearGradient id="paint5_linear_0_1927" x1="72.4712" y1="27.2618" x2="72.4712" y2="119.355" gradientUnits="userSpaceOnUse">
<stop stop-color="#59FD3F"/>
<stop offset="0.5" stop-color="#3FF794"/>
<stop offset="1" stop-color="#20EFF6"/>
</linearGradient>
<linearGradient id="paint6_linear_0_1927" x1="72.4712" y1="27.2618" x2="72.4712" y2="119.355" gradientUnits="userSpaceOnUse">
<stop stop-color="#59FD3F"/>
<stop offset="0.5" stop-color="#3FF794"/>
<stop offset="1" stop-color="#20EFF6"/>
</linearGradient>
<linearGradient id="paint7_linear_0_1927" x1="72.4712" y1="27.2618" x2="72.4712" y2="119.355" gradientUnits="userSpaceOnUse">
<stop stop-color="#59FD3F"/>
<stop offset="0.5" stop-color="#3FF794"/>
<stop offset="1" stop-color="#20EFF6"/>
</linearGradient>
<linearGradient id="paint8_linear_0_1927" x1="72.4712" y1="27.2618" x2="72.4712" y2="119.355" gradientUnits="userSpaceOnUse">
<stop stop-color="#59FD3F"/>
<stop offset="0.5" stop-color="#3FF794"/>
<stop offset="1" stop-color="#20EFF6"/>
</linearGradient>
<linearGradient id="paint9_linear_0_1927" x1="72.4712" y1="27.2618" x2="72.4712" y2="119.355" gradientUnits="userSpaceOnUse">
<stop stop-color="#59FD3F"/>
<stop offset="0.5" stop-color="#3FF794"/>
<stop offset="1" stop-color="#20EFF6"/>
</linearGradient>
<linearGradient id="paint10_linear_0_1927" x1="72.4712" y1="27.2618" x2="72.4712" y2="119.355" gradientUnits="userSpaceOnUse">
<stop stop-color="#59FD3F"/>
<stop offset="0.5" stop-color="#3FF794"/>
<stop offset="1" stop-color="#20EFF6"/>
</linearGradient>
<linearGradient id="paint11_linear_0_1927" x1="72.4712" y1="27.2618" x2="72.4712" y2="119.355" gradientUnits="userSpaceOnUse">
<stop stop-color="#59FD3F"/>
<stop offset="0.5" stop-color="#3FF794"/>
<stop offset="1" stop-color="#20EFF6"/>
</linearGradient>
<linearGradient id="paint12_linear_0_1927" x1="72.4712" y1="27.2618" x2="72.4712" y2="119.355" gradientUnits="userSpaceOnUse">
<stop stop-color="#59FD3F"/>
<stop offset="0.5" stop-color="#3FF794"/>
<stop offset="1" stop-color="#20EFF6"/>
</linearGradient>
<linearGradient id="paint13_linear_0_1927" x1="72.4712" y1="27.2618" x2="72.4712" y2="119.355" gradientUnits="userSpaceOnUse">
<stop stop-color="#59FD3F"/>
<stop offset="0.5" stop-color="#3FF794"/>
<stop offset="1" stop-color="#20EFF6"/>
</linearGradient>
<linearGradient id="paint14_linear_0_1927" x1="72.4712" y1="27.2618" x2="72.4712" y2="119.355" gradientUnits="userSpaceOnUse">
<stop stop-color="#59FD3F"/>
<stop offset="0.5" stop-color="#3FF794"/>
<stop offset="1" stop-color="#20EFF6"/>
</linearGradient>
<linearGradient id="paint15_linear_0_1927" x1="72.4712" y1="27.2618" x2="72.4712" y2="119.355" gradientUnits="userSpaceOnUse">
<stop stop-color="#59FD3F"/>
<stop offset="0.5" stop-color="#3FF794"/>
<stop offset="1" stop-color="#20EFF6"/>
</linearGradient>
<linearGradient id="paint16_linear_0_1927" x1="72.4712" y1="27.2618" x2="72.4712" y2="119.355" gradientUnits="userSpaceOnUse">
<stop stop-color="#59FD3F"/>
<stop offset="0.5" stop-color="#3FF794"/>
<stop offset="1" stop-color="#20EFF6"/>
</linearGradient>
</defs>
</svg>
