<svg width="459" height="65" viewBox="0 0 459 65" fill="none" xmlns="http://www.w3.org/2000/svg">
<path d="M28.7374 3.97173V21.6822H35.8215V7.51382H49.9896V0.429932H32.2794C31.34 0.429932 30.4391 0.802887 29.7748 1.46712C29.1106 2.13163 28.7374 3.0324 28.7374 3.97173ZM92.494 21.6822V3.97173C92.494 3.0324 92.121 2.13163 91.4568 1.46712C90.7923 0.802887 89.8915 0.429932 88.9522 0.429932H71.2417V7.51382H85.4101V21.6822H92.494ZM85.4101 57.1025H71.2417V64.1866H88.9522C89.8915 64.1866 90.7923 63.8134 91.4568 63.1492C92.121 62.4849 92.494 61.5839 92.494 60.6445V42.9344H85.4101V57.1025ZM49.9896 64.1866V57.1025H35.8215V42.9344H28.7374V60.6445C28.7374 61.5839 29.1106 62.4849 29.7748 63.1492C30.4391 63.8134 31.34 64.1866 32.2794 64.1866H49.9896ZM25.1953 28.766H96.0361V35.8502H25.1953V28.766Z" fill="url(#paint0_linear_0_1934)"/>
<path d="M139.335 50.255C134.052 50.255 129.844 49.1257 126.711 46.8667C123.614 44.5716 122.011 41.2927 121.902 37.03H131.63C132.03 40.7462 134.581 42.6042 139.28 42.6042C141.029 42.6042 142.505 42.2763 143.707 41.6206C144.945 40.9283 145.565 39.89 145.565 38.5056C145.565 37.5584 145.182 36.775 144.417 36.1556C143.652 35.4999 142.869 35.0444 142.067 34.7894C141.302 34.5344 139.827 34.1337 137.641 33.5872C137.532 33.5506 137.459 33.5324 137.422 33.5324C137.386 33.4961 137.331 33.478 137.258 33.478C137.185 33.4414 137.113 33.4232 137.04 33.4232C135.364 33.0225 133.979 32.6765 132.886 32.3849C131.83 32.057 130.609 31.5834 129.225 30.964C127.877 30.3083 126.802 29.5978 126.001 28.8326C125.199 28.0677 124.507 27.0657 123.924 25.8271C123.378 24.552 123.104 23.1311 123.104 21.5644C123.104 17.5569 124.525 14.5511 127.367 12.5474C130.245 10.5436 133.998 9.54187 138.624 9.54187C143.069 9.54187 146.694 10.5618 149.5 12.6021C152.341 14.6421 153.853 17.6298 154.035 21.5644H144.581C144.399 20.0706 143.762 18.9231 142.669 18.1216C141.575 17.2838 140.118 16.8646 138.297 16.8646C136.621 16.8646 135.255 17.2109 134.198 17.9029C133.178 18.5589 132.668 19.4333 132.668 20.5261C132.668 21.7649 133.287 22.6756 134.526 23.2584C135.764 23.8049 138.096 24.4609 141.521 25.2259C143.671 25.7361 145.438 26.246 146.822 26.756C148.206 27.2296 149.609 27.9219 151.03 28.8326C152.487 29.7436 153.562 30.9277 154.254 32.3849C154.983 33.8058 155.347 35.518 155.347 37.5218C155.347 41.493 153.835 44.6079 150.811 46.8667C147.824 49.1257 143.998 50.255 139.335 50.255ZM168.314 41.5659C169.334 43.096 170.791 43.8612 172.686 43.8612C174.58 43.8612 176.037 43.096 177.057 41.5659C178.114 40.0357 178.642 37.9773 178.642 35.3907C178.642 32.8038 178.114 30.7453 177.057 29.2152C176.037 27.6485 174.58 26.8654 172.686 26.8654C170.791 26.8654 169.334 27.6304 168.314 29.1605C167.294 30.6909 166.784 32.7675 166.784 35.3907C166.784 37.9773 167.294 40.0357 168.314 41.5659ZM183.506 45.9923C180.774 48.7978 177.185 50.2003 172.74 50.2003C168.296 50.2003 164.689 48.7978 161.92 45.9923C159.151 43.187 157.767 39.6531 157.767 35.3907C157.767 31.1279 159.151 27.5941 161.92 24.7888C164.689 21.9833 168.296 20.5808 172.74 20.5808C177.185 20.5808 180.774 21.9833 183.506 24.7888C186.275 27.5941 187.659 31.1279 187.659 35.3907C187.659 39.6531 186.275 43.187 183.506 45.9923ZM190.725 49.3259V10.252H199.742V49.3259H190.725ZM204.066 49.3259V21.3457H212.974V49.3259H204.066ZM204.066 17.4658V10.252H212.974V17.4658H204.066ZM228.232 50.2003C224.589 50.2003 221.638 48.8704 219.379 46.2109C217.12 43.5515 215.991 39.9263 215.991 35.3359C215.991 30.964 217.12 27.412 219.379 24.6793C221.674 21.9107 224.625 20.5261 228.232 20.5261C231.584 20.5261 234.189 21.8559 236.047 24.5154H236.211V10.252H245.118V49.3259H236.593V45.5552H236.484C234.662 48.652 231.912 50.2003 228.232 50.2003ZM230.527 43.1507C232.349 43.1507 233.788 42.4402 234.844 41.0193C235.901 39.5621 236.429 37.6675 236.429 35.3359C236.429 32.8948 235.938 30.9458 234.954 29.4886C233.97 27.9948 232.531 27.2478 230.637 27.2478C228.888 27.2478 227.503 27.9767 226.483 29.4339C225.5 30.8911 225.008 32.822 225.008 35.2265C225.008 37.6676 225.5 39.5984 226.483 41.0193C227.467 42.4402 228.815 43.1507 230.527 43.1507ZM249.375 49.3259V21.3457H258.283V49.3259H249.375ZM249.375 17.4658V10.252H258.283V17.4658H249.375ZM273.651 49.6538C270.809 49.6538 268.605 49.0891 267.038 47.9597C265.508 46.7938 264.743 44.79 264.743 41.9485V26.9199H261.027V21.3457H264.743V12.4929H273.432V21.3457H278.514V26.9199H273.432V40.0357C273.432 41.0559 273.687 41.7661 274.197 42.1668C274.744 42.5676 275.527 42.7681 276.547 42.7681C276.838 42.7681 277.221 42.7681 277.695 42.7681C278.168 42.7318 278.441 42.7134 278.514 42.7134V49.2167C277.494 49.508 275.873 49.6538 273.651 49.6538ZM283.446 58.5616V51.6212H286.506C288.947 51.6212 290.167 50.6376 290.167 48.6702C290.167 47.7229 289.603 45.792 288.473 42.8773L280.221 21.3457H289.621L293.392 33.2593L295.14 39.7079H295.25C295.76 37.2305 296.306 35.081 296.889 33.2593L300.55 21.3457H309.458L299.786 49.7085C298.656 52.9874 297.308 55.2827 295.741 56.5941C294.211 57.9058 292.044 58.5616 289.238 58.5616H283.446ZM327.564 50.255C322.28 50.255 318.074 49.1257 314.94 46.8667C311.843 44.5716 310.24 41.2927 310.13 37.03H319.858C320.258 40.7462 322.808 42.6042 327.51 42.6042C329.257 42.6042 330.732 42.2763 331.934 41.6206C333.174 40.9283 333.792 39.89 333.792 38.5056C333.792 37.5584 333.412 36.775 332.646 36.1556C331.88 35.4999 331.098 35.0444 330.295 34.7894C329.529 34.5344 328.054 34.1337 325.868 33.5872C325.76 33.5506 325.686 33.5324 325.649 33.5324C325.615 33.4961 325.559 33.478 325.488 33.478C325.414 33.4414 325.34 33.4232 325.269 33.4232C323.593 33.0225 322.206 32.6765 321.114 32.3849C320.059 32.057 318.837 31.5834 317.453 30.964C316.106 30.3083 315.031 29.5978 314.228 28.8326C313.428 28.0677 312.736 27.0657 312.152 25.8271C311.605 24.552 311.332 23.1311 311.332 21.5644C311.332 17.5569 312.753 14.5511 315.595 12.5474C318.474 10.5436 322.226 9.54187 326.852 9.54187C331.296 9.54187 334.924 10.5618 337.729 12.6021C340.57 14.6421 342.082 17.6298 342.264 21.5644H332.811C332.626 20.0706 331.991 18.9231 330.896 18.1216C329.804 17.2838 328.347 16.8646 326.526 16.8646C324.85 16.8646 323.483 17.2109 322.428 17.9029C321.406 18.5589 320.896 19.4333 320.896 20.5261C320.896 21.7649 321.514 22.6756 322.754 23.2584C323.993 23.8049 326.324 24.4609 329.75 25.2259C331.897 25.7361 333.664 26.246 335.051 26.756C336.435 27.2296 337.836 27.9219 339.257 28.8326C340.715 29.7436 341.79 30.9277 342.482 32.3849C343.211 33.8058 343.574 35.518 343.574 37.5218C343.574 41.493 342.062 44.6079 339.039 46.8667C336.052 49.1257 332.226 50.255 327.564 50.255ZM360.86 50.2003C356.413 50.2003 352.826 48.7978 350.094 45.9923C347.36 43.187 345.996 39.6531 345.996 35.3907C345.996 31.1279 347.343 27.5941 350.038 24.7888C352.735 21.9833 356.269 20.5808 360.642 20.5808C364.357 20.5808 367.398 21.5644 369.766 23.5318C372.134 25.4993 373.518 28.0858 373.921 31.2919H365.342C364.72 28.5229 363.192 27.1386 360.75 27.1386C358.855 27.1386 357.417 27.8672 356.433 29.3244C355.486 30.7819 355.012 32.8038 355.012 35.3907C355.012 37.9407 355.503 39.9447 356.487 41.4019C357.471 42.8228 358.892 43.5333 360.75 43.5333C363.592 43.5333 365.214 41.93 365.614 38.724H374.139C374.029 42.0395 372.755 44.79 370.313 46.9761C367.908 49.1256 364.757 50.2003 360.86 50.2003ZM385.762 50.0363C382.886 50.0363 380.572 49.2896 378.822 47.7958C377.075 46.302 376.198 44.2072 376.198 41.5111C376.198 38.6696 377.146 36.6111 379.04 35.3359C380.935 34.0242 383.558 33.1498 386.911 32.7128C389.645 32.3849 391.502 32.0205 392.484 31.6197C393.505 31.1827 394.015 30.5085 394.015 29.5978C394.015 27.5941 392.739 26.592 390.189 26.592C387.458 26.592 385.946 27.7943 385.654 30.1988H377.458C377.565 27.4301 378.694 25.1348 380.844 23.3132C383.031 21.4915 386.128 20.5808 390.135 20.5808C394.143 20.5808 397.166 21.3457 399.208 22.8761C401.573 24.5883 402.759 27.2478 402.759 30.8548V44.9539C402.759 47.1764 403.088 48.5062 403.743 48.9433V49.3259H395.107C394.744 48.8159 394.435 47.7776 394.18 46.2109H394.069C392.285 48.7612 389.517 50.0363 385.762 50.0363ZM388.604 44.353C390.28 44.353 391.63 43.8975 392.648 42.9868C393.706 42.0395 394.233 40.8191 394.233 39.3253V35.9917C393.36 36.429 391.828 36.9208 389.645 37.4673C387.858 37.8681 386.601 38.3417 385.872 38.8879C385.144 39.4345 384.781 40.2178 384.781 41.238C384.781 43.3146 386.054 44.353 388.604 44.353ZM407.076 49.3259V21.3457H415.658V25.1711H415.82C417.969 22.0746 420.848 20.5261 424.456 20.5261C427.479 20.5261 429.847 21.5099 431.56 23.4771C433.307 25.4079 434.184 27.9582 434.184 31.1279V49.3259H425.275V32.9314C425.275 31.4013 424.892 30.1988 424.127 29.3244C423.398 28.4137 422.323 27.9582 420.902 27.9582C419.447 27.9582 418.261 28.5048 417.351 29.5978C416.441 30.6909 415.984 32.1115 415.984 33.8603V49.3259H407.076Z" fill="white"/>
<defs>
<linearGradient id="paint0_linear_0_1934" x1="32.0264" y1="4.98396" x2="92.3675" y2="59.6326" gradientUnits="userSpaceOnUse">
<stop stop-color="#52FF00"/>
<stop offset="1" stop-color="#00EEFD"/>
</linearGradient>
</defs>
</svg>
