<svg width="50" height="50" viewBox="0 0 50 50" fill="none" xmlns="http://www.w3.org/2000/svg">
<path d="M23.8423 5.02373C33.7028 4.44746 42.4909 11.1546 44.5559 20.8071C45.1162 23.4483 45.1482 26.2016 44.6199 28.8588C43.3233 35.4219 38.8412 40.8964 32.6784 43.4896C28.4684 45.2504 23.6662 45.5066 19.2961 44.194C13.3094 42.4171 8.49111 37.935 6.26608 32.0923C4.66533 27.8984 4.55328 23.1762 5.91391 18.9182C8.42708 11.0265 15.5664 5.50395 23.8262 5.02373H23.8423Z" fill="white"/>
<path d="M12.6872 23.5442C12.7673 23.9124 12.8153 24.2805 12.8953 24.6487C12.9433 24.8728 13.0074 24.8248 13.1354 24.7287C13.3595 24.5526 13.5676 24.3446 13.8077 24.2005C13.8718 24.2165 13.9198 24.2645 13.9518 24.3125C14.6081 25.1609 15.4565 25.6732 16.481 25.9613C16.9452 26.0894 17.4254 26.1854 17.9217 26.2334C17.7616 26.0574 17.6495 25.8813 17.5535 25.6572C17.3934 25.289 17.4414 24.9688 17.7296 24.6807C18.0657 24.3285 18.4979 24.1845 18.9621 24.0724C19.9066 23.8323 20.867 23.8003 21.8275 23.8803C22.5958 23.9284 23.3642 24.0564 24.1165 24.2805C24.7408 24.4566 25.3491 24.6647 25.9094 25.0169C25.9894 25.0809 26.0374 25.1609 26.1175 25.225C26.8218 25.9933 27.238 26.8897 27.27 27.9302C27.286 28.6506 27.0939 29.3389 26.7257 29.9632C26.0694 31.0997 25.125 31.9321 23.9885 32.5724C22.8359 33.2127 21.5714 33.6129 20.2587 33.7569C17.9056 34.0131 15.7286 33.5008 13.7277 32.2522C12.0629 31.2117 10.7823 29.8031 9.74185 28.1543C9.26162 27.37 8.82942 26.5536 8.46125 25.7212C8.41323 25.6251 8.39722 25.4971 8.36521 25.4171C8.39722 25.5131 8.44524 25.6251 8.3492 25.7372C8.31718 25.305 8.3492 24.8888 8.38121 24.4726C8.44524 23.3041 8.62133 22.1515 8.92547 21.031C10.3021 15.9566 13.9838 11.8267 18.8661 9.87382C20.3388 9.28154 21.8755 8.92938 23.4442 8.78531C25.9254 8.56121 28.3265 8.88136 30.6796 9.71374C30.3274 10.3861 28.2945 12.2109 26.7097 13.2514C26.6617 12.8032 26.5657 12.339 26.4056 11.9068C26.4056 11.7947 26.5016 11.7627 26.5657 11.6987C26.9018 11.4105 27.222 11.1384 27.5581 10.8503C27.5901 10.8183 27.6222 10.7862 27.6542 10.7702C27.6862 10.7382 27.7502 10.6902 27.7342 10.6262C27.7182 10.5621 27.6542 10.5621 27.5901 10.5461C27.4301 10.5141 27.286 10.4981 27.1259 10.4821C26.9018 10.4661 26.6937 10.4021 26.4696 10.4021C26.2935 10.3861 26.1335 10.354 25.9734 10.37C25.8934 10.37 25.7973 10.37 25.7173 10.354C25.5732 10.306 25.4291 10.338 25.2851 10.338C25.205 10.338 25.109 10.338 25.029 10.338C24.7728 10.354 24.5327 10.306 24.2766 10.354C24.2126 10.37 24.1646 10.37 24.1005 10.37C24.0205 10.37 23.9565 10.37 23.8764 10.37C23.7804 10.354 23.6843 10.37 23.6043 10.4021C23.3482 10.4181 23.0761 10.4501 22.8199 10.4981C22.4998 10.5621 22.1796 10.5781 21.8755 10.6582C21.5874 10.7382 21.2992 10.7702 21.0271 10.8663C20.6589 10.9623 20.2908 11.0904 19.9226 11.2024C19.3943 11.4105 18.8501 11.6026 18.3378 11.8747C17.1853 12.435 16.1288 13.1393 15.1684 13.9717C14.272 14.7401 13.4876 15.6045 12.7993 16.5649C12.4631 17.0452 12.143 17.5414 11.8548 18.0536C11.6787 18.3898 11.5027 18.7259 11.3426 19.0781C11.2305 19.3502 11.0865 19.6063 11.0064 19.8945C10.8944 20.1666 10.7983 20.4547 10.7023 20.7429C10.5902 21.031 10.5262 21.3352 10.4462 21.6233C10.4142 21.7353 10.3821 21.8634 10.3661 21.9754C10.3341 22.1195 10.3021 22.2636 10.2861 22.4076C10.2381 22.6478 10.2061 22.8879 10.174 23.144C10.126 23.4001 10.094 23.6402 10.078 23.8963C10.046 24.0564 10.062 24.2325 10.046 24.4086C9.99797 24.6167 10.03 24.8408 10.014 25.0489C10.014 25.1929 9.99797 25.353 10.014 25.4971C10.014 25.5611 9.98196 25.6412 10.046 25.6732C10.126 25.7052 10.174 25.6251 10.2221 25.5931C10.3982 25.4491 10.5742 25.289 10.7503 25.1449C11.3426 24.6327 11.9509 24.1204 12.5431 23.6082C12.5912 23.5762 12.6552 23.4641 12.7352 23.5762L12.6872 23.5442Z" fill="#4189C9"/>
<path d="M25.8587 25.0486C25.1544 24.6324 24.386 24.3923 23.5856 24.2002C22.5451 23.9601 21.4726 23.8481 20.4161 23.9121C19.6638 23.9441 18.9114 24.0562 18.2231 24.3923C18.1431 24.4243 18.0631 24.4724 17.983 24.5364C17.4228 24.9046 17.3267 25.4168 17.7429 25.961C17.8229 26.0731 17.919 26.1851 18.031 26.3132C17.6629 26.3132 17.3427 26.2492 17.0226 26.1851C16.1582 26.0091 15.3578 25.7209 14.6535 25.1607C14.3173 24.8885 14.0132 24.6004 13.7891 24.2162C13.8851 24.0722 14.0292 23.9921 14.1732 23.9121C14.4454 23.8 14.7015 23.64 14.9736 23.5119C16.1902 22.9516 17.4868 22.6155 18.8154 22.4874C19.3436 22.4394 19.8719 22.3914 20.4161 22.4074C21.9849 22.4714 23.5536 22.7435 25.0423 23.2238C25.4265 23.3358 25.8107 23.4799 26.2108 23.608C26.2108 23.4959 26.1468 23.4319 26.0988 23.3518C25.9387 23.0797 25.7466 22.8236 25.5385 22.5675C25.4585 22.4714 25.3624 22.4074 25.3624 22.2633C25.5705 22.3113 25.7946 22.3594 26.0027 22.4074C26.0668 22.4234 26.1308 22.4554 26.1628 22.4074C26.2108 22.3434 26.1468 22.2953 26.0988 22.2473C25.7786 21.7831 25.3945 21.3829 24.9783 21.0147C25.2024 20.8867 25.4265 20.9987 25.6506 21.0147C27.8596 21.3029 29.8765 22.0872 31.6374 23.4639C33.9745 25.2887 35.4792 27.6578 36.1034 30.5552C36.3115 31.5316 36.3756 32.5241 36.2955 33.5006C36.1675 35.2134 35.6232 36.7981 34.6148 38.2067C34.5507 38.3028 34.4547 38.3668 34.4067 38.4789C34.1826 38.815 33.8304 39.0551 33.5262 39.3113C31.8455 40.6719 29.8765 41.3922 27.7636 41.7284C26.1148 41.9845 24.45 42.0165 22.7852 41.8084C20.176 41.4883 17.6949 40.5438 15.5339 39.0711C15.0056 38.719 14.4934 38.3348 14.0292 37.9026C14.0132 37.8866 14.0132 37.8706 14.0292 37.8546C14.1252 37.8226 14.1892 37.8866 14.2533 37.9346C15.3578 38.767 16.6224 39.3753 17.951 39.7275C18.3992 39.8395 18.8474 39.9355 19.3116 39.9996C19.4077 40.0316 19.5357 40.0156 19.6318 40.0316C19.6478 40.0316 19.6798 40.0316 19.6958 40.0476C20.7363 40.1757 21.7768 40.0956 22.8013 39.9195C25.0583 39.5194 27.0592 38.5749 28.772 37.0542C29.9406 36.0297 30.869 34.7972 31.3492 33.2925C31.8455 31.7878 31.7654 30.3311 31.0771 28.8744C30.933 29.5307 30.5969 30.059 30.1647 30.5552C29.7325 31.0354 29.2362 31.4516 28.676 31.7557C28.612 31.7878 28.5319 31.8678 28.4679 31.8038C28.4039 31.7557 28.4359 31.6597 28.4679 31.6117C28.612 31.1635 28.692 30.6993 28.74 30.235C28.9321 28.2661 28.1798 26.7294 26.611 25.5769C26.3549 25.3848 26.0828 25.2087 25.7946 25.0646L25.8587 25.0486Z" fill="#262F71"/>
<path d="M19.3623 39.9995C18.786 39.9355 18.2098 39.8234 17.6655 39.6473C16.625 39.3272 15.6326 38.863 14.7041 38.2707C14.48 38.1266 14.304 37.9345 14.0638 37.8225C13.9198 37.8065 13.8718 37.6624 13.7597 37.6144C11.4546 35.5654 9.8859 33.0523 8.98948 30.1229C8.55728 28.6982 8.31717 27.2255 8.28516 25.7208C8.28516 25.6088 8.30116 25.4967 8.30116 25.3207C8.41322 25.5768 8.49325 25.7689 8.5893 25.961C9.42168 27.7858 10.4782 29.4346 11.9349 30.8112C13.4876 32.2679 15.2964 33.2604 17.4094 33.5965C19.9066 33.9967 22.2276 33.5645 24.3726 32.2199C25.4451 31.5476 26.3095 30.6832 26.8218 29.5146C27.4301 28.0899 27.206 26.7613 26.2615 25.5288C26.1815 25.4167 26.0854 25.3207 26.0054 25.2086C26.1175 25.1126 26.1815 25.2246 26.2455 25.2726C26.8058 25.7369 27.238 26.3131 27.5261 26.9694C27.8142 27.6097 27.9583 28.282 27.9743 28.9704C27.9903 29.6747 27.8302 30.379 27.5261 31.0193C27.5901 31.0193 27.6542 31.0033 27.7022 30.9553C28.0063 30.7792 28.2785 30.5871 28.5346 30.363C28.6146 30.299 28.6947 30.1869 28.8227 30.2029C28.7587 30.7312 28.6306 31.2754 28.4705 31.7877C28.8067 31.5956 29.1429 31.3715 29.463 31.1314C29.7031 30.9393 29.9112 30.6992 30.1513 30.4911C30.2474 30.5391 30.2474 30.6351 30.2794 30.7312C30.6796 32.1558 30.3914 33.4845 29.6871 34.733C28.8387 36.2537 27.5741 37.3903 26.1175 38.3027C24.9329 39.039 23.6523 39.5673 22.2757 39.8714C21.4273 40.0635 20.5469 40.1115 19.6665 40.0315C19.5544 39.9675 19.4263 40.0315 19.3303 39.9835L19.3623 39.9995Z" fill="#161F42"/>
<path d="M40.9112 29.4516C40.8312 27.8188 40.431 26.2341 39.7267 24.7614C39.2625 23.801 38.6862 22.9045 37.9979 22.1042C37.3736 21.3678 36.6693 20.7435 35.9169 20.1513C35.9809 20.0872 36.077 20.0872 36.157 20.1032C37.1975 20.2153 38.238 20.4714 39.2144 20.8396C39.4546 20.9356 39.6947 21.0317 39.9188 21.1757C39.9988 21.2078 40.0788 21.2558 40.1589 21.3198C40.1749 21.3358 40.1909 21.3518 40.2229 21.3518C40.2069 21.3358 40.2069 21.3038 40.2069 21.2718C39.5346 20.3914 38.7182 19.655 37.8538 18.9667C36.8293 18.1343 35.7248 17.43 34.5403 16.8697C32.8915 16.0534 31.1467 15.5251 29.3218 15.301C29.1618 15.285 28.9857 15.301 28.8416 15.237C28.8256 15.1249 28.9217 15.0929 28.9857 15.0449C30.0582 14.1485 30.9066 13.108 31.5149 11.8594C31.6909 11.4912 31.851 11.091 31.9791 10.6909C32.0111 10.5788 32.0431 10.4507 32.1552 10.3867C34.06 11.2991 35.7728 12.5797 37.1975 14.1485C40.9753 18.3104 42.3999 24.0891 40.9913 29.5316C40.9593 29.5476 40.9432 29.5156 40.9272 29.4836L40.9112 29.4516Z" fill="#4189C9"/>
<path d="M34.4404 38.4638C34.4404 38.3038 34.5685 38.2077 34.6645 38.0797C35.4489 36.9752 35.9131 35.7426 36.1692 34.398C36.3293 33.5656 36.3293 32.7332 36.2813 31.9168C36.2013 30.6522 35.8651 29.4196 35.3529 28.2511C34.9847 27.3867 34.5045 26.5703 33.9442 25.818C33.3519 25.0336 32.6476 24.2972 31.8792 23.673C30.6947 22.6965 29.3341 21.9602 27.8614 21.4959C27.077 21.2398 26.2766 21.0798 25.4603 20.9997C25.3162 20.9837 25.1721 20.9517 25.012 20.9677C24.4998 20.5835 23.9716 20.2154 23.3633 19.9432V19.8792C23.5714 19.8792 23.7955 19.8792 24.0036 19.8792C26.981 19.8312 29.7503 20.5515 32.1514 22.3764C34.6485 24.2652 36.2013 26.7464 36.7775 29.8198C37.2738 32.445 36.8896 34.9262 35.4329 37.1832C35.1448 37.6475 34.8406 38.0797 34.4244 38.4318L34.4404 38.4638Z" fill="#161F42"/>
<path d="M32.1543 10.3542C31.8501 11.2666 31.482 12.1471 30.9377 12.9474C30.3935 13.7638 29.7372 14.4841 28.9848 15.0924C28.9368 15.1244 28.9048 15.1725 28.8568 15.2045C28.6006 15.3325 28.3765 15.5406 28.1364 15.7007C27.256 16.277 26.3116 16.7732 25.3191 17.1574C25.3031 17.1574 25.2711 17.1734 25.2391 17.1734C25.191 17.1094 25.2391 17.0934 25.2711 17.0613C25.8313 16.5331 26.1835 15.8768 26.4076 15.1404C26.4236 15.0444 26.5037 14.9644 26.5837 14.9324C28.3285 14.244 29.7051 13.1075 30.8417 11.6348C30.9377 11.5068 31.0498 11.3627 31.1778 11.2026C30.8257 11.2026 30.5535 11.3787 30.2654 11.4267C30.2014 11.4267 30.1373 11.4747 30.1213 11.3627C31.1938 10.0981 32.0102 8.64143 32.5064 7.05669C32.5385 6.96064 32.5064 6.81658 32.6505 6.76855C32.6665 6.76855 32.6665 6.78456 32.6665 6.80057C32.6665 6.81658 32.6665 6.81658 32.6665 6.81658C32.6505 7.9371 32.4904 9.07363 32.1863 10.1621C32.1703 10.2262 32.1543 10.2902 32.1543 10.3702V10.3542Z" fill="#161F42"/>
<path d="M25.3966 22.248C25.7488 22.6321 26.0529 23.0643 26.309 23.5286C26.3251 23.5766 26.3891 23.6246 26.3411 23.6726C26.293 23.7046 26.245 23.6566 26.197 23.6406C25.0445 23.2084 23.8439 22.8883 22.6273 22.6642C22.019 22.5521 21.3948 22.5041 20.7705 22.4721C20.2102 22.44 19.6499 22.44 19.0897 22.4881C17.8091 22.5841 16.5765 22.8562 15.392 23.3845C15.0238 23.5446 14.6556 23.6886 14.3195 23.8967C14.2875 23.9127 14.2394 23.9608 14.1914 23.8967C15.2159 23.1764 16.3524 22.6321 17.569 22.28C19.2338 21.7837 20.9305 21.6717 22.6433 21.7998C23.5237 21.8638 24.3882 22.0078 25.2526 22.1999C25.3166 22.1999 25.3486 22.2159 25.3966 22.232V22.248Z" fill="#161F42"/>
<path d="M24.9634 10.2744H25.2195C25.3636 10.3384 25.5077 10.2584 25.6517 10.3064H25.9079C25.9239 10.4345 25.8278 10.4825 25.7638 10.5465C24.5792 11.555 23.4107 12.5635 22.2261 13.5559C21.826 13.8921 21.4418 14.2122 21.0576 14.5484C20.9936 14.5804 20.9456 14.6444 20.9135 14.7085C20.4013 14.9006 19.9211 15.1407 19.5529 15.5569C19.3768 15.749 19.2488 15.9891 19.1367 16.2132C18.7845 16.4373 18.4804 16.7414 18.1603 17.0135C17.3119 17.7179 16.4795 18.4382 15.6471 19.1425C15.5831 19.2066 15.535 19.2866 15.455 19.3346C15.3109 19.1105 15.3429 18.8864 15.375 18.6463C15.487 18.4702 15.6471 18.3582 15.7912 18.2301C16.6075 17.5418 17.4239 16.8375 18.2403 16.1491C19.0407 15.4768 19.825 14.7885 20.6254 14.1162C21.5378 13.3478 22.4503 12.5635 23.3787 11.7791C23.8909 11.3469 24.3872 10.9147 24.9154 10.4825C24.9954 10.4345 25.0435 10.3865 24.9954 10.2744H24.9634Z" fill="#5C94CE"/>
<path d="M39.9632 21.2075C38.9547 20.7273 37.8982 20.4231 36.7937 20.247C36.4895 20.199 36.2014 20.135 35.9133 20.135C35.5291 19.8949 35.1609 19.6388 34.7607 19.4146C33.4962 18.6783 32.1035 18.1821 30.6468 17.942C30.6148 17.926 30.5828 17.926 30.5508 17.9099C30.983 17.8299 32.4717 18.054 33.4962 18.3421C34.4566 18.5983 35.369 18.9664 36.2654 19.4307C36.1694 19.1585 36.0093 18.9664 35.8973 18.7423C35.8813 18.6783 35.8012 18.6303 35.8653 18.5663C35.9133 18.5022 35.9773 18.5663 36.0413 18.5983C36.1854 18.6623 36.3295 18.7423 36.4735 18.8224C37.7221 19.4627 38.8907 20.247 39.9792 21.1274C40.0432 21.2075 40.0432 21.2075 39.9632 21.2235V21.2075Z" fill="#161F42"/>
<path d="M24.9638 10.2744C24.9959 10.3384 25.0759 10.2904 25.1079 10.3544C24.8678 10.5625 24.6277 10.7706 24.3876 10.9787C23.9554 11.3469 23.5072 11.7151 23.075 12.0832C22.4507 12.6115 21.8264 13.1397 21.2021 13.668C20.7699 14.0361 20.3537 14.4043 19.9215 14.7725C19.3933 15.2207 18.865 15.6529 18.3528 16.1011C17.9366 16.4533 17.5204 16.8054 17.1042 17.1736C16.672 17.5418 16.2238 17.91 15.7916 18.2781L15.3594 18.6463L15.4874 18.086C15.4234 17.91 15.5675 17.8299 15.6635 17.7339C16.0637 17.3977 16.4479 17.0616 16.8481 16.7254C17.7765 15.941 18.6889 15.1567 19.6174 14.3723C20.4017 13.7 21.2021 13.0277 21.9865 12.3554C22.7228 11.7311 23.4591 11.1068 24.1955 10.4665C24.2595 10.4185 24.3556 10.3544 24.1955 10.2904C24.4516 10.1944 24.7077 10.2744 24.9638 10.2424V10.2744Z" fill="#6497D0"/>
<path d="M24.1948 10.3057C24.2588 10.3217 24.3228 10.2897 24.3869 10.3377C24.2428 10.5618 24.0187 10.7059 23.8106 10.8659C23.2503 11.3622 22.6901 11.8264 22.1138 12.3066C21.6016 12.7388 21.0733 13.171 20.5451 13.6192C20.0328 14.0514 19.5046 14.5156 18.9764 14.9638C18.4481 15.412 17.9359 15.8282 17.4076 16.2764C16.8954 16.7086 16.3671 17.1729 15.8389 17.6211C15.6788 17.7651 15.4707 17.8452 15.4387 18.0853C15.1666 18.1173 15.0225 18.3414 14.8144 18.5015C14.4943 18.7256 14.2542 19.0457 13.966 19.3018C13.6619 19.5099 13.4058 19.7661 13.1336 19.9902C12.3173 20.6785 11.5009 21.3828 10.6845 22.0711C10.5724 22.1672 10.4604 22.2792 10.3483 22.3593C10.2843 22.3913 10.2363 22.4553 10.1562 22.4073C10.1562 22.2632 10.1723 22.1032 10.2363 21.9751C10.6525 21.719 10.9886 21.3668 11.3568 21.0627C12.3813 20.2143 13.3898 19.3499 14.3982 18.4855C15.4067 17.6211 16.4152 16.7727 17.4236 15.9083C18.4161 15.0759 19.3925 14.2275 20.385 13.3951C21.3935 12.5467 22.4019 11.6823 23.4104 10.8179C23.6025 10.6418 23.8266 10.4817 24.0027 10.3057H24.1788H24.1948Z" fill="#689AD1"/>
<path d="M26.422 10.3545C26.6621 10.3545 26.8702 10.4185 27.1103 10.4345C27.1743 10.5786 27.0462 10.6266 26.9822 10.6906C26.6941 10.9468 26.4059 11.1709 26.1178 11.427C26.0858 11.395 26.0538 11.347 26.0218 11.3149C25.9577 11.2189 25.9097 11.2509 25.8777 11.3309C25.5415 12.0513 24.9653 12.5635 24.341 12.9957C23.6367 13.492 22.8683 13.9081 22.0679 14.2443C22.0199 14.1643 22.0199 14.1643 22.0999 14.0842C22.26 13.9242 22.4361 13.7961 22.5962 13.652C23.8127 12.6276 25.0293 11.6031 26.2299 10.5466C26.2939 10.4826 26.3579 10.4185 26.422 10.3545Z" fill="#4E8FCC"/>
<path d="M26.4188 10.3539C26.4188 10.4179 26.3707 10.498 26.3227 10.53C25.5384 11.1863 24.754 11.8586 23.9856 12.5149C23.3934 13.0272 22.8011 13.5394 22.1928 14.0516C22.1448 14.0997 22.0327 14.1317 22.0647 14.2437C21.6966 14.4198 21.2964 14.5799 20.9122 14.7079C20.7841 14.6759 20.8962 14.6279 20.9122 14.5959C21.1523 14.3878 21.3764 14.1797 21.6165 13.9876C22.0487 13.6194 22.4809 13.2513 22.9291 12.8831C23.3613 12.5149 23.7935 12.1468 24.2257 11.7946C24.6579 11.4264 25.0901 11.0582 25.5063 10.6901C25.6504 10.578 25.8105 10.482 25.9065 10.3219C26.0826 10.3059 26.2587 10.3699 26.4188 10.3699V10.3539Z" fill="#5591CD"/>
<path d="M23.3819 15.4922C23.8301 15.2681 24.3103 15.076 24.6945 14.7559C24.7745 14.7559 24.7745 14.8039 24.7425 14.8519C24.3743 16.3566 23.2378 17.3491 21.7011 17.4931C21.397 17.5251 21.1088 17.5572 20.8047 17.5251C20.8367 17.4131 20.9488 17.4291 21.0288 17.3971C21.3649 17.301 21.7011 17.205 22.0052 17.0449C22.5815 16.7408 23.0137 16.2926 23.2538 15.6843C23.2698 15.6043 23.3179 15.5242 23.3659 15.4762L23.3819 15.4922Z" fill="#161F42"/>
<path d="M23.3771 15.4922C23.185 16.2125 22.7368 16.7088 22.0965 17.0609C21.6963 17.285 21.2481 17.3971 20.7999 17.5251C20.6878 17.205 20.8159 16.9329 20.992 16.6927C21.2161 16.4046 21.5202 16.2285 21.8404 16.0845C22.3366 15.8604 22.8488 15.6683 23.3611 15.4922H23.3771Z" fill="#418AC9"/>
<path d="M10.1749 22.4076C10.4311 22.3115 10.5911 22.1034 10.7832 21.9274C11.4235 21.3991 12.0638 20.8549 12.6881 20.3266C13.0243 20.0385 13.3444 19.7503 13.6806 19.4622C13.7766 19.3822 13.8566 19.3021 13.9847 19.2861C13.6486 19.7183 13.3124 20.1505 13.0723 20.6468C12.416 21.207 11.7597 21.7513 11.1194 22.3115C10.8152 22.5677 10.5111 22.8238 10.2069 23.0799C10.1589 23.1119 10.1109 23.1759 10.0469 23.1119C10.0629 22.8718 10.0949 22.6317 10.1749 22.3916V22.4076Z" fill="#6497D0"/>
<path d="M12.6884 23.5441C12.4963 23.5601 12.4003 23.7362 12.2562 23.8483C11.6959 24.2965 11.1517 24.7767 10.6074 25.2409C10.4314 25.401 10.2553 25.5611 10.0472 25.7051C9.91912 25.8012 9.87109 25.7692 9.87109 25.6091C9.87109 25.433 9.87109 25.2569 9.87109 25.0808C10.0632 24.8567 10.3033 24.6967 10.5274 24.5046C11.1677 23.9603 11.792 23.4161 12.4483 22.8878C12.5123 22.8398 12.5443 22.7598 12.6404 22.8078L12.6724 23.5281L12.6884 23.5441Z" fill="#468CCA"/>
<path d="M15.4258 19.3342C15.4258 19.2542 15.4738 19.1901 15.5378 19.1581C16.0501 18.7259 16.5623 18.2937 17.0745 17.8615C17.4907 17.5094 17.9069 17.1412 18.3391 16.789C18.5632 16.5969 18.7713 16.4048 18.9954 16.2127C19.0275 16.1807 19.0755 16.1487 19.1075 16.2127C19.0595 16.4048 19.0114 16.5969 19.0114 16.805C18.7873 17.0611 18.4992 17.2532 18.2431 17.4773C17.4427 18.1657 16.6423 18.838 15.858 19.5103C15.826 19.5423 15.794 19.5743 15.7779 19.6063C15.6179 19.5743 15.4898 19.4783 15.4418 19.3342H15.4258Z" fill="#5591CD"/>
<path d="M10.0451 23.1276C10.2211 23.0636 10.3332 22.9035 10.4773 22.7915C11.2296 22.1672 11.9659 21.5429 12.7183 20.9026C12.8303 20.8066 12.9104 20.6625 13.0865 20.6465C12.9424 20.9826 12.8303 21.3188 12.7503 21.671C12.6223 21.655 12.5582 21.767 12.4622 21.831C11.6938 22.5033 10.9095 23.1597 10.1251 23.816C10.0771 23.848 10.029 23.912 9.96502 23.896C9.94901 23.6399 9.98102 23.3838 10.0451 23.1276Z" fill="#5C94CE"/>
<path d="M15.7765 19.607C15.7285 19.5109 15.8085 19.4789 15.8566 19.4469C16.5129 18.8866 17.1692 18.3264 17.8255 17.7821C18.1937 17.462 18.5618 17.1578 18.946 16.8377C18.962 16.8217 18.994 16.8217 19.026 16.8057C19.026 16.9817 19.0581 17.1578 19.1061 17.3179C18.882 17.574 18.5938 17.7661 18.3377 17.9902C17.7615 18.4864 17.1852 18.9827 16.5929 19.4629C16.5609 19.4949 16.5129 19.5269 16.5129 19.575C16.2728 19.671 16.0166 19.703 15.7765 19.591V19.607Z" fill="#4E8FCC"/>
<path d="M12.6379 22.8403C12.3978 22.9844 12.2057 23.1765 11.9976 23.3525C11.4373 23.8008 10.8931 24.281 10.3488 24.7452C10.2048 24.8733 10.0607 25.0173 9.8686 25.0974C9.88461 24.8733 9.82058 24.6331 9.90062 24.409C10.749 23.6887 11.5814 22.9684 12.4298 22.248C12.4938 22.2 12.5418 22.136 12.6379 22.184L12.6219 22.8243L12.6379 22.8403Z" fill="#4E8FCC"/>
<path d="M12.6533 22.1833C12.3812 22.3274 12.1731 22.5515 11.949 22.7436C11.3887 23.1918 10.8605 23.672 10.3162 24.1202C10.2042 24.2163 10.1081 24.3763 9.93206 24.3923C9.94807 24.2163 9.88404 24.0402 9.98008 23.8801C10.5083 23.4319 11.0526 22.9677 11.5808 22.5195C11.933 22.2153 12.3012 21.9112 12.6693 21.607C12.7814 21.511 12.7494 21.6231 12.7654 21.6711C12.7174 21.8312 12.7013 22.0072 12.6693 22.1833H12.6533Z" fill="#5591CD"/>
<path d="M16.5113 19.5908C16.4313 19.5268 16.4953 19.4948 16.5273 19.4468C17.0235 19.0306 17.5358 18.5984 18.032 18.1822C18.3522 17.926 18.6563 17.6539 18.9604 17.3818C18.9925 17.3498 19.0405 17.3178 19.0885 17.3018L19.2166 17.5579C19.1205 17.718 18.9604 17.798 18.8484 17.9421C18.2401 18.6304 17.5358 19.2066 16.6714 19.5268C16.6234 19.5428 16.5753 19.5588 16.5113 19.5588V19.5908Z" fill="#488DCA"/>
<path d="M26.1172 11.427C26.1972 11.1869 26.4533 11.1069 26.5974 10.9468C26.7575 10.7707 27.0136 10.6907 27.1096 10.4346C27.3017 10.4346 27.4778 10.4826 27.6539 10.5146C27.814 10.5466 27.814 10.6107 27.7179 10.7067C27.4778 10.9148 27.2537 11.1229 27.0136 11.315C26.7895 11.5071 26.5654 11.6832 26.3413 11.8752C26.2613 11.7152 26.1812 11.5711 26.1172 11.427Z" fill="#468CCA"/>
<path d="M15.5666 21.1755C15.5986 21.2716 15.4865 21.3196 15.5025 21.3996C15.4385 21.1435 15.3104 21.0475 15.0383 21.0955C14.7662 21.1595 14.5101 21.3036 14.318 21.5117C14.2699 21.5757 14.2059 21.6237 14.1419 21.6718C14.0939 21.6077 14.1419 21.5597 14.1579 21.5117C14.2699 21.1435 14.5261 20.8874 14.8302 20.6633C14.8942 20.6153 14.9743 20.5833 15.0703 20.5512C15.4385 20.4712 15.6306 20.6473 15.5826 21.0155C15.5826 21.0635 15.5826 21.1115 15.5505 21.1595L15.5666 21.1755Z" fill="#428AC9"/>
<path d="M15.566 21.1751C15.566 21.1111 15.566 21.063 15.566 20.999C15.566 20.6308 15.3579 20.4868 15.0058 20.6468C14.6056 20.8229 14.3495 21.1591 14.1734 21.5433C14.1414 21.5433 14.1093 21.5433 14.1254 21.4952C14.2534 21.031 14.4935 20.6468 14.8937 20.3747C14.9898 20.3107 15.1178 20.2627 15.2299 20.2467C15.422 20.2146 15.598 20.3267 15.6461 20.5028C15.7101 20.7269 15.6781 20.967 15.55 21.1751H15.566Z" fill="#182144"/>
<path d="M18.8509 17.9574C18.7709 17.8934 18.8509 17.8774 18.8829 17.8454C18.995 17.7653 19.075 17.6053 19.2191 17.5732C19.4112 17.8774 19.7153 18.0215 20.0515 18.1335C20.1155 18.1495 20.1795 18.1655 20.2916 18.1975C19.7953 18.3256 19.3631 18.2776 18.979 18.0054C18.9469 17.9734 18.9149 17.9574 18.8669 17.9574H18.8509Z" fill="#458CCA"/>
<path d="M36.4586 18.8066C36.2985 18.7906 36.1865 18.6786 36.0424 18.6306C35.9784 18.6146 35.9304 18.5345 35.8823 18.5825C35.8343 18.6146 35.9144 18.6786 35.8984 18.7426C35.8183 18.6626 35.7863 18.5505 35.7383 18.4385C35.9944 18.5345 36.2505 18.6466 36.4746 18.8066H36.4586Z" fill="#63657D"/>
<path d="M39.9613 21.2074C40.0093 21.1754 39.9613 21.1433 39.9613 21.1113L40.2014 21.2554L40.3295 21.4315C40.1694 21.3835 40.0574 21.2874 39.9453 21.2234L39.9613 21.2074Z" fill="#263154"/>
<path d="M30.1367 17.8299C30.2488 17.8139 30.3768 17.8299 30.4729 17.8459C30.3288 17.9259 30.2488 17.9099 30.1367 17.8299Z" fill="#A09AA9"/>
<path d="M13.7734 37.6152C13.9015 37.6312 13.9655 37.7753 14.0776 37.8233V37.8714C13.9655 37.8073 13.8535 37.7273 13.7734 37.6152Z" fill="#424A7F"/>
<path d="M40.9102 29.4512L40.9902 29.4992C41.0062 29.5792 40.9582 29.6593 40.9102 29.7553V29.4512Z" fill="#8CB7DE"/>
<path d="M30.134 11.3789C30.166 11.4429 30.23 11.4109 30.278 11.4429L30.0539 11.539C30.0379 11.4429 30.0859 11.4269 30.134 11.3949V11.3789Z" fill="#5A5D76"/>
<path d="M14.1425 21.4955L14.1906 21.5435C14.1746 21.5755 14.1585 21.6236 14.1585 21.6716L14.0625 21.7836C14.0785 21.6396 14.0945 21.5595 14.1425 21.4795V21.4955Z" fill="#4F668A"/>
<path d="M24.7551 14.8527C24.739 14.8207 24.7551 14.7727 24.707 14.7567C24.723 14.7246 24.7551 14.6766 24.7711 14.6926C24.8191 14.7407 24.8031 14.8047 24.7551 14.8527Z" fill="#555A73"/>
<path d="M10.3477 21.6231C10.4117 21.319 10.4597 21.0149 10.6038 20.7267C11.1 20.3746 11.5482 19.9584 12.0124 19.5582C12.8288 18.8699 13.6292 18.1975 14.4296 17.5092C15.1659 16.8849 15.9022 16.2606 16.6386 15.6364C17.439 14.964 18.2393 14.2757 19.0237 13.6034C19.744 12.9951 20.4804 12.3708 21.2007 11.7465C21.7129 11.3143 22.2252 10.8821 22.7214 10.4339C22.9935 10.3699 23.2497 10.3379 23.5378 10.3539C23.5538 10.3379 23.6018 10.3379 23.6178 10.3379C23.6819 10.4339 23.6018 10.498 23.5378 10.562C22.8495 11.1383 22.1612 11.7305 21.4728 12.3228C20.7365 12.9471 20.0162 13.5714 19.2798 14.1957C18.6075 14.772 17.9352 15.3482 17.2469 15.9245C16.4305 16.6288 15.5981 17.3171 14.7817 18.0215C13.7572 18.8859 12.7328 19.7663 11.7083 20.6307C11.3081 20.9668 10.9239 21.303 10.5237 21.6391C10.4917 21.6872 10.4277 21.8152 10.3477 21.6552V21.6231Z" fill="#6D9CD2"/>
<path d="M22.7403 10.4346C22.6602 10.6747 22.4361 10.7707 22.276 10.9148C21.7318 11.395 21.1715 11.8592 20.6273 12.3234C20.019 12.8357 19.3947 13.3639 18.7704 13.8922C18.2422 14.3404 17.7139 14.8046 17.1697 15.2688C16.6574 15.701 16.1292 16.1332 15.6009 16.5814C15.0887 17.0296 14.5765 17.4778 14.0482 17.91C13.536 18.3422 13.0077 18.7905 12.4795 19.2227C12.0473 19.5908 11.6311 19.959 11.1989 20.3112C11.0228 20.4552 10.8467 20.5993 10.6706 20.7434C10.6386 20.7754 10.5906 20.7914 10.5586 20.7434C10.6226 20.4392 10.7187 20.1511 10.8627 19.895C11.2629 19.6389 11.5831 19.3187 11.9352 19.0306C12.7516 18.3422 13.552 17.6699 14.3524 16.9816C15.1847 16.2773 16.0171 15.557 16.8495 14.8526C17.5378 14.2604 18.2262 13.6841 18.9145 13.0918C19.8109 12.3395 20.6913 11.5711 21.6037 10.8187C21.6678 10.7707 21.7158 10.7067 21.7478 10.6427C22.0679 10.5146 22.3881 10.5306 22.6922 10.4666L22.7403 10.4346Z" fill="#729FD4"/>
<path d="M21.796 10.6098C21.924 10.6418 21.812 10.6898 21.796 10.7218C21.5559 10.9459 21.3158 11.154 21.0596 11.3621C20.6274 11.7303 20.1952 12.0985 19.763 12.4506C19.1227 12.9789 18.4985 13.5231 17.8582 14.0514C17.3459 14.4836 16.8337 14.9478 16.3054 15.38C15.7772 15.8282 15.2329 16.2924 14.7047 16.7406C14.1924 17.1728 13.6802 17.621 13.152 18.0692C12.6397 18.5014 12.1115 18.9496 11.5992 19.3818C11.4072 19.5419 11.2311 19.702 11.023 19.8621C10.991 19.8941 10.9429 19.9581 10.8789 19.8781C10.9429 19.5899 11.087 19.3338 11.2151 19.0617C11.9194 18.4694 12.6237 17.8611 13.328 17.2689C14.0484 16.6446 14.7847 16.0363 15.5051 15.412C16.1934 14.8197 16.8817 14.2274 17.586 13.6512C18.3224 13.0269 19.0427 12.4026 19.779 11.7783C20.1472 11.4582 20.5314 11.122 20.9156 10.8018C21.1877 10.6738 21.4758 10.6418 21.764 10.5938L21.796 10.6098Z" fill="#78A2D5"/>
<path d="M20.947 10.8184C20.6749 11.1705 20.3067 11.4106 19.9705 11.7148C19.5383 12.0829 19.1061 12.4671 18.6579 12.8353C18.2257 13.1875 17.8095 13.5556 17.3773 13.9238C16.9451 14.292 16.5289 14.6601 16.0967 15.0123C15.6645 15.3805 15.2323 15.7487 14.8001 16.1008C14.3839 16.453 13.9677 16.8212 13.5355 17.1733C13.0073 17.6215 12.463 18.0857 11.9348 18.5339C11.7427 18.694 11.5506 18.8541 11.3585 19.0142C11.3265 19.0462 11.2785 19.0782 11.2305 19.0782C11.3745 18.726 11.5346 18.3739 11.7427 18.0537C12.7192 17.2694 13.6636 16.437 14.624 15.6206C15.7286 14.6762 16.8491 13.7477 17.9536 12.7873C18.5779 12.259 19.2182 11.7468 19.8265 11.1705C20.1786 11.0265 20.5468 10.9144 20.931 10.8344L20.947 10.8184Z" fill="#7DA5D6"/>
<path d="M19.8412 11.1709C19.8892 11.2509 19.8092 11.2669 19.7772 11.299C19.2969 11.7152 18.8327 12.1313 18.3525 12.5315C17.9363 12.8837 17.5041 13.2359 17.0879 13.604C16.5597 14.0522 16.0474 14.5004 15.5192 14.9326C15.087 15.3008 14.6708 15.669 14.2386 16.0212C13.7103 16.4694 13.1661 16.9336 12.6378 17.3818C12.4137 17.5739 12.1896 17.766 11.9815 17.9581C11.9175 18.0221 11.8535 18.0541 11.7734 18.0541C12.0296 17.5259 12.3497 17.0296 12.7179 16.5654C13.054 16.3253 13.3582 16.0372 13.6623 15.781C14.4787 15.0927 15.2791 14.4044 16.0954 13.7161C16.7197 13.1878 17.344 12.6436 17.9683 12.1153C18.0644 12.0353 18.1924 11.9713 18.2565 11.8752C18.7527 11.5551 19.2969 11.379 19.8412 11.1869V11.1709Z" fill="#81A7D8"/>
<path d="M28.8571 30.2192C28.4249 30.5714 28.0087 30.9235 27.4324 31.1797C27.5925 30.8435 27.7205 30.5073 27.8006 30.1392C28.1367 28.6505 27.8166 27.3059 26.9522 26.0893C26.7281 25.7851 26.4399 25.561 26.1838 25.2889C26.1518 25.2409 26.1038 25.1929 26.0237 25.2249C25.9437 25.1929 25.9117 25.1128 25.8477 25.0488C25.8797 25.0008 25.9277 25.0328 25.9597 25.0488C26.9842 25.6411 27.8486 26.3934 28.3768 27.4819C28.633 28.0102 28.793 28.6025 28.841 29.1947C28.8731 29.5309 28.8731 29.883 28.825 30.2192H28.8571Z" fill="#0E1F66"/>
<path d="M10.3496 21.6233C10.5257 21.6873 10.5737 21.5113 10.6697 21.4472C11.5341 20.7269 12.3825 20.0066 13.2469 19.2702C14.0633 18.5819 14.8477 17.8936 15.664 17.1892C16.5605 16.4209 17.4729 15.6685 18.3693 14.9002C19.1857 14.2119 19.9861 13.5235 20.7864 12.8192C21.6508 12.0829 22.5312 11.3305 23.4116 10.5782C23.5077 10.4981 23.6357 10.4661 23.6518 10.3221C23.6998 10.274 23.7638 10.3221 23.8278 10.29H24.0519C23.9879 10.5141 23.7638 10.5942 23.6197 10.7382C23.1715 11.1384 22.7073 11.5066 22.2591 11.8908C21.7469 12.323 21.2186 12.7712 20.6904 13.2034C20.2742 13.5556 19.858 13.9237 19.4258 14.2759C18.8015 14.8041 18.1772 15.3164 17.5689 15.8606C17.1527 16.2128 16.7365 16.581 16.3043 16.9331C15.7761 17.3813 15.2318 17.8456 14.7036 18.2938C14.2874 18.6459 13.8712 19.0141 13.439 19.3663C13.0068 19.7344 12.5746 20.1026 12.1424 20.4548C11.7102 20.8229 11.278 21.1911 10.8458 21.5593C10.7017 21.6873 10.5417 21.8154 10.3816 21.9275C10.3496 21.9595 10.3176 21.9755 10.2695 21.9275C10.2695 21.8154 10.3015 21.7033 10.3496 21.5913V21.6233Z" fill="#699AD1"/>
<path d="M18.2577 11.8428C18.2257 12.0509 18.0176 12.0989 17.9055 12.2109C17.4733 12.6111 17.0091 12.9793 16.5609 13.3635C16.0327 13.8117 15.5204 14.2439 14.9922 14.6921C14.576 15.0443 14.1598 15.4124 13.7276 15.7646C13.4235 16.0207 13.1193 16.2928 12.8152 16.549C12.7832 16.581 12.7511 16.597 12.7031 16.549C12.9272 16.2128 13.1833 15.8767 13.4555 15.5725C14.4639 14.404 15.6005 13.3955 16.9131 12.5791C17.3453 12.307 17.7775 12.0349 18.2577 11.8428Z" fill="#88ABD9"/>
<path d="M25.6549 10.3059C25.5108 10.2899 25.3667 10.3539 25.2227 10.2739C25.3667 10.2899 25.5108 10.2259 25.6549 10.3059Z" fill="#5591CD"/>
<path d="M23.8108 10.3063C23.7628 10.3703 23.6988 10.3383 23.6347 10.3383H23.5547C23.6347 10.2583 23.7308 10.3063 23.8108 10.3063Z" fill="#689AD1"/>
<path d="M19.6992 40.0479C21.0919 40.1119 22.4845 39.8878 23.7971 39.4076C25.0617 38.9434 26.2463 38.2871 27.3028 37.4387C28.3272 36.6063 29.2236 35.6459 29.8159 34.4453C30.1361 33.805 30.3282 33.1007 30.3922 32.3963C30.4562 31.756 30.3442 31.1478 30.1681 30.5395C30.1841 30.3954 30.3282 30.3154 30.4082 30.2193C30.7123 29.8191 30.9364 29.3869 31.0325 28.8747C31.0485 28.8107 31.0645 28.7466 31.0965 28.6826C31.2886 29.0668 31.4487 29.467 31.5447 29.8832C31.6888 30.4755 31.7848 31.0677 31.7368 31.676C31.6568 32.7165 31.3366 33.741 30.8244 34.6534C30.2961 35.5818 29.6238 36.3662 28.8555 37.0705C28.1672 37.6788 27.4148 38.207 26.6144 38.6392C25.638 39.1675 24.5975 39.5677 23.525 39.8238C22.8527 39.9839 22.1644 40.0799 21.476 40.1279C21.1399 40.1439 20.8037 40.176 20.4836 40.16C20.2435 40.1439 19.9713 40.16 19.7152 40.0799L19.6992 40.0479Z" fill="#0E1F66"/>
<path d="M23.8423 5.02373C33.7028 4.44746 42.4909 11.1546 44.5559 20.8071C45.1162 23.4483 45.1482 26.2016 44.6199 28.8588C43.3233 35.4219 38.8412 40.8964 32.6784 43.4896C28.4684 45.2504 23.6662 45.5066 19.2961 44.194C13.3094 42.4171 8.49111 37.935 6.26608 32.0923C4.66533 27.8984 4.55328 23.1762 5.91391 18.9182C8.42708 11.0265 15.5664 5.50395 23.8262 5.02373H23.8423Z" fill="white"/>
<path d="M25.8607 25.0492C25.1563 24.633 24.388 24.3929 23.5876 24.2008C22.5471 23.9607 21.4746 23.8487 20.4181 23.9127C19.6658 23.9447 18.9134 24.0568 18.2251 24.3929C18.1451 24.4249 18.065 24.4729 17.985 24.537C17.4247 24.9051 17.3287 25.4174 17.7449 25.9616C17.8249 26.0737 17.921 26.1857 18.033 26.3138C17.6649 26.3138 17.3447 26.2498 17.0246 26.1857C16.1602 26.0097 15.3598 25.7215 14.6555 25.1613C14.3193 24.8891 14.0952 24.6971 13.8711 24.3289C13.9671 24.1848 14.0952 24.0568 14.2393 23.9767C14.5114 23.8647 14.7035 23.6566 14.9756 23.5285C16.1922 22.9682 17.4888 22.6321 18.8174 22.504C19.3456 22.456 19.8739 22.408 20.4181 22.424C21.9869 22.488 23.5556 22.7601 25.0443 23.2404C25.4285 23.3524 25.8127 23.4965 26.2128 23.6246C26.2128 23.5125 26.1488 23.4485 26.1008 23.3684C25.9407 23.0963 25.7486 22.8402 25.5405 22.5841C25.4605 22.488 25.3644 22.424 25.3644 22.2799C25.5725 22.3279 25.7966 22.376 26.0047 22.424C26.0688 22.44 26.1328 22.472 26.1648 22.424C26.2128 22.36 26.1488 22.3119 26.1008 22.2639C25.7806 21.7997 25.3965 21.3995 24.9803 21.0313C25.2044 20.9033 25.4285 21.0153 25.6526 21.0313C27.8616 21.3195 29.8785 22.1038 31.6394 23.4805C33.9764 25.3053 35.4811 27.6744 36.1054 30.5718C36.3135 31.5482 36.3776 32.5407 36.2975 33.5172C36.1695 35.23 35.6252 36.8147 34.6167 38.2233C34.5527 38.3194 34.4567 38.3834 34.4087 38.4955C34.1845 38.8316 33.8324 39.0717 33.5282 39.3279C31.8475 40.6885 29.8785 41.4088 27.7656 41.745C26.1168 42.0011 24.452 42.0331 22.7872 41.825C20.178 41.5049 17.6969 40.5604 15.5359 39.0877C15.0076 38.7356 14.4954 38.3514 14.0312 37.9192C14.0152 37.9032 14.0152 37.8872 14.0312 37.8712C14.1272 37.8392 14.1912 37.9032 14.2553 37.9512C15.3598 38.7836 16.6244 39.3919 17.953 39.7441C18.4012 39.8561 18.8494 39.9522 19.3136 40.0162C19.4097 40.0482 19.5377 40.0322 19.6338 40.0482C19.6498 40.0482 19.6818 40.0482 19.6978 40.0642C20.7383 40.1923 21.7788 40.1122 22.8033 39.9361C25.0603 39.536 27.0612 38.5915 28.774 37.0708C29.9426 36.0463 30.871 34.8138 31.3512 33.3091C31.8475 31.8044 31.7674 30.3477 31.0791 28.891C30.935 29.5473 30.5989 30.0756 30.1667 30.5718C29.7345 31.052 29.2382 31.4682 28.678 31.7723C28.614 31.8044 28.5339 31.8844 28.4699 31.8204C28.4059 31.7723 28.4379 31.6763 28.4699 31.6283C28.614 31.1801 28.694 30.7159 28.742 30.2516C28.9341 28.2827 28.1818 26.746 26.613 25.5935C26.3569 25.4014 26.0848 25.2253 25.7966 25.0812L25.8607 25.0492Z" fill="#262F71"/>
<path d="M19.3623 40.0005C18.786 39.9364 18.2098 39.8244 17.6655 39.6483C16.625 39.3282 15.6326 38.8639 14.7041 38.2717C14.48 38.1276 14.304 37.9355 14.0638 37.8235C13.9198 37.8074 13.8718 37.6634 13.7597 37.6154C11.4546 35.5664 9.8859 33.0532 8.98948 30.1239C8.55728 28.6992 8.31717 27.2265 8.28516 25.7218C8.28516 25.6098 8.30116 25.4977 8.30116 25.3216C8.41322 25.5778 8.49325 25.7698 8.5893 25.9619C9.42168 27.7868 10.4782 29.4356 11.9349 30.8122C13.4876 32.2689 15.2964 33.2613 17.4094 33.5975C19.9066 33.9977 22.2276 33.5655 24.3726 32.2208C25.4451 31.5485 26.3095 30.6841 26.8218 29.5156C27.4301 28.0909 27.206 26.7623 26.2615 25.5297C26.1815 25.4177 26.0854 25.3216 26.0054 25.2096C26.1175 25.1135 26.1815 25.2256 26.2455 25.2736C26.8058 25.7378 27.238 26.3141 27.5261 26.9704C27.8142 27.6107 27.9583 28.283 27.9743 28.9713C27.9903 29.6757 27.8302 30.38 27.5261 31.0203C27.5901 31.0203 27.6542 31.0043 27.7022 30.9563C28.0063 30.7802 28.2785 30.5881 28.5346 30.364C28.6146 30.3 28.6947 30.1879 28.8227 30.2039C28.7587 30.7322 28.6306 31.2764 28.4705 31.7886C28.8067 31.5966 29.1429 31.3725 29.463 31.1323C29.7031 30.9403 29.9112 30.7001 30.1513 30.492C30.2474 30.5401 30.2474 30.6361 30.2794 30.7322C30.6796 32.1568 30.3914 33.4854 29.6871 34.734C28.8387 36.2547 27.5741 37.3913 26.1175 38.3037C24.9329 39.04 23.6523 39.5683 22.2757 39.8724C21.4273 40.0645 20.5469 40.1125 19.6665 40.0325C19.5544 39.9685 19.4263 40.0325 19.3303 39.9845L19.3623 40.0005Z" fill="#161F42"/>
<path d="M40.9073 29.4516C40.8273 27.8188 40.4271 26.2341 39.7228 24.7614C39.2586 23.801 38.6823 22.9045 37.994 22.1042C37.3697 21.3678 36.6654 20.7435 35.913 20.1513C35.977 20.0872 36.0731 20.0872 36.1531 20.1032C37.1936 20.2153 38.2341 20.4714 39.2105 20.8396C39.4506 20.9356 39.6908 21.0317 39.9149 21.1757C39.9949 21.2078 40.0749 21.2558 40.155 21.3198C40.171 21.3358 40.187 21.3518 40.219 21.3518C40.203 21.3358 40.203 21.3038 40.203 21.2718C39.5307 20.3914 38.7143 19.655 37.8499 18.9667C36.8254 18.1343 35.7209 17.43 34.5364 16.8697C32.8876 16.0534 31.1428 15.5251 29.3179 15.301C29.1579 15.285 28.9818 15.301 28.8377 15.237C28.8217 15.1249 28.9177 15.0929 28.9818 15.0449C30.0543 14.1485 30.9027 13.108 31.511 11.8594C31.687 11.4912 31.8471 11.091 31.9752 10.6909C32.0072 10.5788 32.0392 10.4507 32.1513 10.3867C34.0561 11.2991 35.7689 12.5797 37.1936 14.1485C40.9714 18.3104 42.396 24.0891 40.9874 29.5316C40.9553 29.5476 40.9393 29.5156 40.9233 29.4836L40.9073 29.4516Z" fill="#4189C9"/>
<path d="M34.4404 38.4629C34.4404 38.3028 34.5685 38.2067 34.6645 38.0787C35.4489 36.9742 35.9131 35.7416 36.1692 34.397C36.3293 33.5646 36.3293 32.7322 36.2813 31.9158C36.2013 30.6512 35.8651 29.4187 35.3529 28.2501C34.9847 27.3857 34.5045 26.5693 33.9442 25.817C33.3519 25.0326 32.6476 24.2963 31.8792 23.672C30.6947 22.6955 29.3341 21.9592 27.8614 21.495C27.077 21.2389 26.2766 21.0788 25.4603 20.9987C25.3162 20.9827 25.1721 20.9507 25.012 20.9667C24.4998 20.5825 23.9716 20.2144 23.3633 19.9422V19.8782C23.5714 19.8782 23.7955 19.8782 24.0036 19.8782C26.981 19.8302 29.7503 20.5505 32.1514 22.3754C34.6485 24.2643 36.2013 26.7454 36.7775 29.8188C37.2738 32.4441 36.8896 34.9252 35.4329 37.1823C35.1448 37.6465 34.8406 38.0787 34.4244 38.4309L34.4404 38.4629Z" fill="#161F42"/>
<path d="M32.1504 10.3542C31.8462 11.2666 31.4781 12.1471 30.9338 12.9474C30.3896 13.7638 29.7333 14.4841 28.9809 15.0924C28.9329 15.1244 28.9009 15.1725 28.8528 15.2045C28.5967 15.3325 28.3726 15.5406 28.1325 15.7007C27.2521 16.277 26.3077 16.7732 25.3152 17.1574C25.2992 17.1574 25.2672 17.1734 25.2352 17.1734C25.1871 17.1094 25.2352 17.0934 25.2672 17.0613C25.8274 16.5331 26.1796 15.8768 26.4037 15.1404C26.4197 15.0444 26.4997 14.9644 26.5798 14.9324C28.3246 14.244 29.7012 13.1075 30.8378 11.6348C30.9338 11.5068 31.0459 11.3627 31.1739 11.2026C30.8218 11.2026 30.5496 11.3787 30.2615 11.4267C30.1975 11.4267 30.1334 11.4747 30.1174 11.3627C31.1899 10.0981 32.0063 8.64143 32.5025 7.05669C32.5346 6.96064 32.5025 6.81658 32.6466 6.76855C32.6626 6.76855 32.6626 6.78456 32.6626 6.80057C32.6626 6.81658 32.6626 6.81658 32.6626 6.81658C32.6466 7.9371 32.4865 9.07363 32.1824 10.1621C32.1664 10.2262 32.1504 10.2902 32.1504 10.3702V10.3542Z" fill="#161F42"/>
<path d="M25.3959 22.2476C25.748 22.6318 26.0522 23.064 26.3083 23.5282C26.3243 23.5762 26.3883 23.6242 26.3403 23.6722C26.2923 23.7043 26.2442 23.6562 26.1962 23.6402C25.0437 23.208 23.8431 22.8879 22.6266 22.6638C22.0183 22.5517 21.394 22.5037 20.7697 22.4717C20.2094 22.4397 19.6492 22.4397 19.0889 22.4877C17.8083 22.5837 16.5758 22.8559 15.3912 23.3841C15.023 23.5442 14.6549 23.7363 14.3187 23.9604C14.2867 23.9764 14.2707 24.0244 14.2227 23.9764C15.2471 23.256 16.3516 22.6478 17.5682 22.2956C19.233 21.7994 20.9298 21.6873 22.6426 21.8154C23.523 21.8794 24.3874 22.0235 25.2518 22.2156C25.3158 22.2156 25.3478 22.2316 25.3959 22.2476Z" fill="#161F42"/>
<path d="M39.9632 21.2075C38.9547 20.7273 37.8982 20.4231 36.7937 20.247C36.4895 20.199 36.2014 20.135 35.9133 20.135C35.5291 19.8949 35.1609 19.6388 34.7607 19.4146C33.4962 18.6783 32.1035 18.1821 30.6468 17.942C30.6148 17.926 30.5828 17.926 30.5508 17.9099C30.983 17.8299 32.4717 18.054 33.4962 18.3421C34.4566 18.5983 35.369 18.9664 36.2654 19.4307C36.1694 19.1585 36.0093 18.9664 35.8973 18.7423C35.8813 18.6783 35.8012 18.6303 35.8653 18.5663C35.9133 18.5022 35.9773 18.5663 36.0413 18.5983C36.1854 18.6623 36.3295 18.7423 36.4735 18.8224C37.7221 19.4627 38.8907 20.247 39.9792 21.1274C40.0432 21.2075 40.0432 21.2075 39.9632 21.2235V21.2075Z" fill="#161F42"/>
<path d="M23.378 15.4932C23.8262 15.2691 24.3064 15.077 24.6906 14.7568C24.7706 14.7568 24.7706 14.8049 24.7386 14.8529C24.3704 16.3576 23.2339 17.35 21.6972 17.4941C21.3931 17.5261 21.1049 17.5581 20.8008 17.5261C20.8328 17.4141 20.9448 17.4301 21.0249 17.3981C21.361 17.302 21.6972 17.206 22.0013 17.0459C22.5776 16.7418 23.0098 16.2936 23.2499 15.6853C23.2659 15.6052 23.314 15.5252 23.362 15.4772L23.378 15.4932Z" fill="#161F42"/>
<path d="M23.3771 15.4932C23.185 16.2135 22.7368 16.7097 22.0965 17.0619C21.6963 17.286 21.2481 17.3981 20.7999 17.5261C20.6878 17.206 20.8159 16.9338 20.992 16.6937C21.2161 16.4056 21.5202 16.2295 21.8404 16.0854C22.3366 15.8613 22.8488 15.6692 23.3611 15.4932H23.3771Z" fill="#418AC9"/>
<path d="M15.5666 21.1755C15.5986 21.2716 15.4865 21.3196 15.5025 21.3996C15.4385 21.1435 15.3104 21.0475 15.0383 21.0955C14.7662 21.1595 14.5101 21.3036 14.318 21.5117C14.2699 21.5757 14.2059 21.6237 14.1419 21.6718C14.0939 21.6077 14.1419 21.5597 14.1579 21.5117C14.2699 21.1435 14.5261 20.8874 14.8302 20.6633C14.8942 20.6153 14.9743 20.5833 15.0703 20.5512C15.4385 20.4712 15.6306 20.6473 15.5826 21.0155C15.5826 21.0635 15.5826 21.1115 15.5505 21.1595L15.5666 21.1755Z" fill="#428AC9"/>
<path d="M15.566 21.1751C15.566 21.1111 15.566 21.063 15.566 20.999C15.566 20.6308 15.3579 20.4868 15.0058 20.6468C14.6056 20.8229 14.3495 21.1591 14.1734 21.5433C14.1414 21.5433 14.1093 21.5433 14.1254 21.4952C14.2534 21.031 14.4935 20.6468 14.8937 20.3747C14.9898 20.3107 15.1178 20.2627 15.2299 20.2467C15.422 20.2146 15.598 20.3267 15.6461 20.5028C15.7101 20.7269 15.6781 20.967 15.55 21.1751H15.566Z" fill="#182144"/>
<path d="M36.4586 18.8066C36.2985 18.7906 36.1865 18.6786 36.0424 18.6306C35.9784 18.6146 35.9304 18.5345 35.8823 18.5825C35.8343 18.6146 35.9144 18.6786 35.8984 18.7426C35.8183 18.6626 35.7863 18.5505 35.7383 18.4385C35.9944 18.5345 36.2505 18.6466 36.4746 18.8066H36.4586Z" fill="#63657D"/>
<path d="M39.9613 21.2074C40.0093 21.1754 39.9613 21.1433 39.9613 21.1113L40.2014 21.2554L40.3295 21.4315C40.1694 21.3835 40.0574 21.2874 39.9453 21.2234L39.9613 21.2074Z" fill="#263154"/>
<path d="M13.7734 37.6152C13.9015 37.6312 13.9655 37.7753 14.0776 37.8233V37.8714C13.9655 37.8073 13.8535 37.7273 13.7734 37.6152Z" fill="#424A7F"/>
<path d="M40.9062 29.4512L40.9863 29.4992C41.0023 29.5792 40.9543 29.6593 40.9062 29.7553V29.4512Z" fill="#8CB7DE"/>
<path d="M30.134 11.3789C30.166 11.4429 30.23 11.4109 30.278 11.4429L30.0539 11.539C30.0379 11.4429 30.0859 11.4269 30.134 11.3949V11.3789Z" fill="#5A5D76"/>
<path d="M14.1425 21.4955L14.1906 21.5435C14.1746 21.5755 14.1585 21.6236 14.1585 21.6716L14.0625 21.7836C14.0785 21.6396 14.0945 21.5595 14.1425 21.4795V21.4955Z" fill="#4F668A"/>
<path d="M24.7551 14.8527C24.739 14.8207 24.7551 14.7727 24.707 14.7567C24.723 14.7246 24.7551 14.6766 24.7711 14.6926C24.8191 14.7407 24.8031 14.8047 24.7551 14.8527Z" fill="#555A73"/>
<path d="M28.8532 30.2192C28.4209 30.5714 28.0048 30.9235 27.4285 31.1797C27.5886 30.8435 27.7166 30.5073 27.7967 30.1392C28.1328 28.6505 27.8127 27.3059 26.9483 26.0893C26.7242 25.7851 26.436 25.561 26.1799 25.2889C26.1479 25.2409 26.0999 25.1929 26.0198 25.2249C25.9398 25.1929 25.9078 25.1128 25.8438 25.0488C25.8758 25.0008 25.9238 25.0328 25.9558 25.0488C26.9803 25.6411 27.8447 26.3934 28.3729 27.4819C28.629 28.0102 28.7891 28.6025 28.8371 29.1947C28.8692 29.5309 28.8692 29.883 28.8211 30.2192H28.8532Z" fill="#0E1F66"/>
<path d="M19.6953 40.0479C21.088 40.1119 22.4806 39.8878 23.7932 39.4076C25.0578 38.9434 26.2424 38.2871 27.2989 37.4387C28.3233 36.6063 29.2197 35.6459 29.812 34.4453C30.1322 33.805 30.3243 33.1007 30.3883 32.3963C30.4523 31.756 30.3403 31.1478 30.1642 30.5395C30.1802 30.3954 30.3243 30.3154 30.4043 30.2193C30.7084 29.8191 30.9325 29.3869 31.0286 28.8747C31.0446 28.8107 31.0606 28.7466 31.0926 28.6826C31.2847 29.0668 31.4448 29.467 31.5408 29.8832C31.6849 30.4755 31.7809 31.0677 31.7329 31.676C31.6529 32.7165 31.3327 33.741 30.8205 34.6534C30.2922 35.5818 29.6199 36.3662 28.8516 37.0705C28.1633 37.6788 27.4109 38.207 26.6105 38.6392C25.6341 39.1675 24.5936 39.5677 23.5211 39.8238C22.8488 39.9839 22.1605 40.0799 21.4721 40.1279C21.136 40.1439 20.7998 40.176 20.4797 40.16C20.2396 40.1439 19.9674 40.16 19.7113 40.0799L19.6953 40.0479Z" fill="#0E1F66"/>
<path d="M19.1058 16.8695L19.0898 16.8855H19.1058C19.1058 17.7499 19.57 18.054 20.4184 18.2781C19.3459 18.6143 19.0578 17.8939 18.9457 18.038C18.4975 18.5342 16.8007 20.087 15.8563 19.6868C15.184 19.5587 15.4561 18.5983 15.5522 18.1661V18.1501C15.28 18.1821 15.136 18.4062 14.9279 18.5662C12.8629 20.0389 12.4307 22.312 12.9589 24.7451C13.007 24.9692 13.071 24.9212 13.1991 24.8252C13.4232 24.6491 13.6313 24.441 13.8714 24.2969C13.9354 24.3129 13.9834 24.3609 14.0154 24.409C14.6717 25.2574 15.5361 25.7856 16.5606 26.0577C17.0248 26.1858 17.393 26.1698 17.8732 26.2338C17.7132 26.0577 17.7132 25.9777 17.6171 25.7536C17.457 25.3854 17.425 24.9692 17.6972 24.6811C18.0333 24.3289 18.5616 24.2009 19.0098 24.0888C19.9542 23.8487 20.9146 23.8007 21.8751 23.8647C22.6595 23.9127 23.4118 24.1208 24.1802 24.3449C24.8045 24.521 25.4127 24.7291 25.973 25.0813C26.053 25.1453 26.1011 25.2253 26.1811 25.2894C26.9014 26.0577 27.3176 26.9541 27.3336 28.0106C27.3496 28.731 27.1576 29.4193 26.7894 30.0596C26.1331 31.1961 25.1886 32.0445 24.0521 32.6688C22.8996 33.3091 21.619 33.7093 20.3064 33.8534C17.9533 34.1095 15.7603 33.5972 13.7593 32.3487C12.0945 31.3082 10.7979 29.8835 9.75746 28.2347C9.27724 27.4504 8.41283 25.8656 8.30078 25.3214C8.30078 25.0493 8.3328 25.1453 8.36481 24.521C8.42884 23.3525 8.60492 22.1839 8.90906 21.0634C10.2857 15.973 13.9834 11.8271 18.8817 9.8742C20.3544 9.28192 21.9071 8.91375 23.4758 8.76969C25.973 8.54558 28.3741 8.86573 30.7432 9.69812C30.3751 10.3704 28.3421 12.1953 26.7574 13.2518C26.5173 11.9872 26.4372 12.1633 26.021 11.2668C26.021 11.3629 24.9965 12.7876 23.716 13.5879C22.4193 14.4043 19.0418 14.9326 19.0898 16.8374L19.1058 16.8695Z" fill="#5591CD"/>
<path d="M19.1879 17.6853C19.1879 17.6853 19.1879 17.6853 19.2039 17.6853C19.2039 17.8934 19.2359 18.0535 19.2999 18.1976C19.1078 18.0855 19.0118 17.9575 18.9638 18.0215C18.5636 18.4537 17.219 19.7023 16.2425 19.7343C16.1145 19.4461 16.2425 18.9819 16.3065 18.7258C16.3065 18.7258 16.3065 18.7258 16.3065 18.7098C16.0824 18.7418 15.9544 18.9179 15.7943 19.046C15.6823 19.126 15.5702 19.206 15.4742 19.3021C15.3621 18.9499 15.5062 18.4217 15.5702 18.1335V18.1175C15.2981 18.1495 15.154 18.3736 14.9459 18.5337C12.881 20.0064 12.4487 22.2795 12.977 24.7126C12.7049 27.0337 10.2557 29.1947 9.90357 28.4103C9.87155 28.3303 10.4798 24.7446 10.4478 24.6806C10.4638 24.7606 10.5118 24.8567 10.4318 24.9367C10.3998 24.5845 10.4318 24.2484 10.4478 23.8962C10.4958 22.9358 10.6399 21.9913 10.896 21.0789C12.0165 16.933 15.0259 13.5554 19.0278 11.9547C20.2284 11.4744 21.493 11.1703 22.7736 11.0582C24.7905 10.8662 26.7434 11.1383 28.6643 11.8106C28.056 12.3228 27.3837 12.8351 26.7754 13.2353C26.5353 11.9707 26.4553 12.1467 26.0391 11.2503C26.0391 11.3464 25.0146 12.771 23.734 13.5714C22.4374 14.3878 19.0598 14.916 19.1078 16.8209L19.0918 16.8369H19.1078C19.1078 17.061 19.1399 17.2531 19.2039 17.4132C19.1879 17.4932 19.1879 17.5733 19.1879 17.6533V17.6853ZM14.1135 23.7521C14.1135 23.7682 14.1135 23.7842 14.1295 23.8002C14.1295 23.7842 14.1295 23.7682 14.1135 23.7521Z" fill="url(#paint0_linear_467_329)"/>
<defs>
<linearGradient id="paint0_linear_467_329" x1="19.3763" y1="28.6186" x2="19.1842" y2="11.0264" gradientUnits="userSpaceOnUse">
<stop stop-color="#5591CD"/>
<stop offset="1" stop-color="#5DA0D3"/>
</linearGradient>
</defs>
</svg>
