<svg width="52" height="39" viewBox="0 0 52 39" fill="none" xmlns="http://www.w3.org/2000/svg">
<path d="M49.9248 21.5119H46.5952L44.2912 14.8721C44.1096 14.3518 43.5884 14.0125 43.019 14.0438C42.4495 14.0751 41.9724 14.4698 41.8539 15.0067L39.0237 27.985L35.9672 8.34134C35.8668 7.74406 35.3261 7.30819 34.6976 7.31803C34.0691 7.32786 33.5437 7.77984 33.4628 8.37979L30.8992 30.3044L27.5696 2.16875C27.5032 1.54778 26.9596 1.07568 26.3108 1.07568C25.6623 1.07568 25.1188 1.54778 25.0523 2.16875L21.7228 30.3044L19.199 8.37979C19.1292 7.76956 18.5988 7.30416 17.9611 7.29432C17.3233 7.28449 16.7774 7.73333 16.6883 8.34133L13.7048 27.5684L10.828 12.3527C10.7235 11.7894 10.2246 11.3718 9.63056 11.3504C9.03597 11.3289 8.50643 11.7084 8.3578 12.2628L6.01338 20.9406H2.17788C1.62603 20.9406 1.17871 21.3712 1.17871 21.9022C1.17871 22.4329 1.62603 22.8634 2.17788 22.8634H6.57965C7.15658 22.8608 7.65965 22.4848 7.80508 21.947L9.45646 15.8325L12.5329 32.0737C12.6426 32.6611 13.1786 33.0859 13.7988 33.076C14.4189 33.0667 14.9405 32.6258 15.0302 32.0352L17.8405 13.9492L20.504 36.7264C20.5708 37.3474 21.1143 37.8195 21.7628 37.8195C22.4113 37.8195 22.9546 37.3474 23.0211 36.7264L26.3308 8.55189L29.6605 36.7127C29.7409 37.3216 30.2787 37.7775 30.916 37.7775C31.5535 37.7775 32.0913 37.3216 32.1713 36.7127L34.8347 13.9354L37.652 32.1566C37.7505 32.7323 38.26 33.1602 38.8662 33.1758C39.4724 33.1915 40.0052 32.7909 40.1358 32.2209L43.2522 17.9482L44.9304 22.7743C45.0683 23.1623 45.4497 23.4202 45.8762 23.4149H49.9248C50.4172 23.3474 50.7828 22.9419 50.7828 22.4631C50.7828 21.9847 50.4172 21.5794 49.9248 21.5119Z" fill="#161616" stroke="#161616" stroke-width="1.59756"/>
</svg>
