<svg width="400" height="400" viewBox="0 0 400 400" fill="none" xmlns="http://www.w3.org/2000/svg">
<path d="M328.613 210.711H310.798L298.469 175.143C297.483 172.369 294.709 170.52 291.627 170.705C288.545 170.89 286.017 172.986 285.401 175.883L270.237 245.416L253.84 140.13C253.285 136.925 250.388 134.582 247.059 134.644C243.669 134.644 240.895 137.11 240.463 140.315L226.717 257.807L208.902 107.028C208.532 103.699 205.635 101.172 202.183 101.172C198.731 101.172 195.772 103.699 195.464 107.028L177.649 257.807L164.149 140.315C163.779 137.048 160.944 134.582 157.492 134.521C154.101 134.521 151.143 136.863 150.649 140.13L134.684 243.136L119.273 161.582C118.718 158.561 116.068 156.342 112.862 156.219C109.657 156.096 106.821 158.13 106.02 161.089L93.4447 207.568H72.9176C69.9588 207.568 67.5547 209.848 67.5547 212.746C67.5547 215.643 69.9588 217.862 72.9176 217.862H96.5269C99.609 217.862 102.321 215.828 103.123 212.93L111.999 180.136L128.458 267.176C129.074 270.32 131.91 272.601 135.239 272.539C138.567 272.539 141.341 270.135 141.834 266.991L156.875 170.089L171.176 292.142C171.546 295.47 174.444 297.998 177.896 297.998C181.348 297.998 184.306 295.47 184.615 292.142L202.368 141.178L220.183 292.08C220.614 295.347 223.511 297.813 226.902 297.813C230.292 297.813 233.189 295.347 233.621 292.08L247.922 170.027L263.024 267.669C263.579 270.752 266.292 273.032 269.559 273.156C272.826 273.217 275.661 271.121 276.339 268.039L293.045 191.54L302.044 217.369C302.784 219.465 304.818 220.821 307.099 220.821H328.797C331.448 220.451 333.421 218.293 333.421 215.704C333.421 213.115 331.448 210.958 328.797 210.588L328.613 210.711Z" fill="white" stroke="white" stroke-width="8.56837"/>
</svg>
