<svg width="312" height="40" viewBox="0 0 312 40" fill="none" xmlns="http://www.w3.org/2000/svg">
<g clip-path="url(#clip0_10473_6766)">
<path d="M49.9258 22.5119H46.5961L44.2922 15.8721C44.1105 15.3518 43.5894 15.0125 43.0199 15.0438C42.4505 15.0751 41.9734 15.4698 41.8549 16.0067L39.0246 28.985L35.9682 9.34134C35.8677 8.74406 35.327 8.30819 34.6986 8.31803C34.0701 8.32786 33.5447 8.77984 33.4638 9.37979L30.9002 31.3044L27.5705 3.16875C27.5042 2.54778 26.9606 2.07568 26.3117 2.07568C25.6633 2.07568 25.1198 2.54778 25.0533 3.16875L21.7237 31.3044L19.1999 9.37979C19.1302 8.76956 18.5998 8.30416 17.9621 8.29432C17.3243 8.28449 16.7784 8.73333 16.6892 9.34133L13.7057 28.5684L10.829 13.3527C10.7245 12.7894 10.2256 12.3718 9.63153 12.3504C9.03695 12.3289 8.50741 12.7084 8.35877 13.2628L6.01436 21.9406H2.17885C1.62701 21.9406 1.17969 22.3712 1.17969 22.9022C1.17969 23.4329 1.62701 23.8634 2.17885 23.8634H6.58063C7.15756 23.8608 7.66063 23.4848 7.80605 22.947L9.45744 16.8325L12.5339 33.0737C12.6436 33.6611 13.1795 34.0859 13.7997 34.076C14.4199 34.0667 14.9415 33.6258 15.0311 33.0352L17.8415 14.9492L20.505 37.7264C20.5718 38.3474 21.1153 38.8195 21.7638 38.8195C22.4123 38.8195 22.9556 38.3474 23.0221 37.7264L26.3318 9.55189L29.6614 37.7127C29.7419 38.3216 30.2797 38.7775 30.917 38.7775C31.5545 38.7775 32.0923 38.3216 32.1722 37.7127L34.8357 14.9354L37.653 33.1566C37.7515 33.7323 38.261 34.1602 38.8671 34.1758C39.4734 34.1915 40.0062 33.7909 40.1367 33.2209L43.2531 18.9482L44.9314 23.7743C45.0693 24.1623 45.4507 24.4202 45.8771 24.4149H49.9258C50.4182 24.3474 50.7838 23.9419 50.7838 23.4631C50.7838 22.9847 50.4182 22.5794 49.9258 22.5119Z" fill="white" stroke="white" stroke-width="1.59756"/>
<path d="M86.9223 14.0375V18.4168C86.9223 21.3116 85.357 23.2559 82.2262 24.2498C83.9407 26.7096 85.6738 29.7907 87.4255 33.493C84.829 33.6669 82.2324 33.6669 79.6359 33.493C77.9463 30.0019 76.3685 27.1755 74.9025 25.0138H69.7963V33.493C67.3736 33.6545 64.9449 33.6545 62.5098 33.493V7.42188H75.7037C77.4803 7.42188 79.0395 7.5399 80.3813 7.77595C81.7231 8.012 82.8909 8.39092 83.8848 8.91272C84.8787 9.42209 85.6303 10.1054 86.1397 10.9626C86.6615 11.8199 86.9223 12.8448 86.9223 14.0375ZM79.6359 16.7397V15.7892C79.6359 15.2922 79.5365 14.8823 79.3377 14.5593C79.1389 14.2363 78.8345 14.0002 78.4246 13.8511C78.027 13.6896 77.6108 13.584 77.1759 13.5344C76.7536 13.4847 76.2256 13.4598 75.5919 13.4598H69.7963V19.0691H75.5919C76.2256 19.0691 76.7536 19.0442 77.1759 18.9945C77.6108 18.9448 78.027 18.8454 78.4246 18.6963C78.8345 18.5348 79.1389 18.2927 79.3377 17.9696C79.5365 17.6466 79.6359 17.2366 79.6359 16.7397Z" fill="white"/>
<path d="M112.547 33.493H91.4141V7.42188H112.547C112.758 9.35997 112.758 11.2981 112.547 13.2362H98.7006V17.541H112.174C112.385 19.4667 112.385 21.3862 112.174 23.2993H98.7006V27.6601H112.547C112.758 29.5982 112.758 31.5424 112.547 33.493Z" fill="white"/>
<path d="M138.711 24.7899V27.8089C138.711 31.9086 134.717 33.9586 126.728 33.9586C122.951 33.9586 119.467 33.7536 116.274 33.3436C116.137 32.5112 116.068 31.5173 116.068 30.3619C116.068 29.1941 116.137 28.1877 116.274 27.3429C120.287 27.753 123.734 27.958 126.617 27.958C128.219 27.958 129.425 27.8772 130.231 27.7157C131.051 27.5417 131.462 27.1876 131.462 26.6534V25.5912C131.462 25.0694 131.318 24.7278 131.033 24.5663C130.748 24.4048 129.89 24.1687 128.462 23.8581C127.779 23.709 127.225 23.5847 126.803 23.4853L121.268 22.2368C120.51 22.0628 119.845 21.833 119.275 21.5473C118.703 21.2616 118.175 20.8764 117.69 20.3918C117.205 19.895 116.832 19.2613 116.572 18.491C116.311 17.7084 116.181 16.7953 116.181 15.7516V13.0681C116.181 8.98071 120.181 6.93701 128.182 6.93701C131.711 6.93701 135.102 7.22897 138.357 7.81289C138.481 8.63284 138.543 9.60189 138.543 10.72C138.543 11.8257 138.481 12.7886 138.357 13.6085C134.804 13.124 131.486 12.8818 128.406 12.8818C126.653 12.8818 125.387 12.9625 124.603 13.124C123.834 13.2731 123.448 13.6271 123.448 14.1862V15.0249C123.448 15.5963 123.715 16.0125 124.25 16.2734C124.784 16.5344 126.083 16.907 128.144 17.3915L133.661 18.7146C134.505 18.9134 135.201 19.1371 135.748 19.3856C136.307 19.6341 136.829 19.982 137.313 20.4291C137.798 20.8764 138.152 21.4604 138.375 22.1809C138.599 22.8891 138.711 23.7587 138.711 24.7899Z" fill="white"/>
<path d="M168.193 14.3353V26.5044C168.193 27.871 167.889 29.045 167.28 30.0264C166.671 30.9955 165.783 31.7657 164.615 32.3373C163.448 32.8964 162.094 33.3063 160.553 33.5672C159.024 33.8281 157.254 33.9586 155.242 33.9586C153.639 33.9586 152.192 33.8778 150.9 33.7163C149.608 33.5548 148.415 33.2939 147.321 32.9337C146.241 32.5733 145.334 32.1074 144.6 31.5359C143.88 30.9645 143.315 30.2563 142.905 29.4115C142.508 28.5666 142.309 27.5976 142.309 26.5044V14.3353C142.309 13.2421 142.508 12.2792 142.905 11.4468C143.315 10.602 143.88 9.90007 144.6 9.341C145.334 8.76951 146.241 8.30361 147.321 7.94333C148.415 7.58304 149.608 7.32836 150.9 7.17927C152.192 7.01776 153.639 6.93701 155.242 6.93701C157.254 6.93701 159.024 7.06746 160.553 7.32836C162.094 7.57683 163.448 7.98681 164.615 8.55831C165.783 9.11737 166.671 9.88143 167.28 10.8505C167.889 11.8195 168.193 12.9812 168.193 14.3353ZM160.888 24.9016V15.8634C160.888 15.3416 160.789 14.9006 160.59 14.5403C160.391 14.18 160.137 13.9005 159.826 13.7017C159.528 13.4906 159.117 13.329 158.596 13.2172C158.074 13.1054 157.564 13.0371 157.067 13.0122C156.583 12.9749 155.974 12.9563 155.242 12.9563C154.509 12.9563 153.893 12.9749 153.396 13.0122C152.912 13.0371 152.409 13.1054 151.887 13.2172C151.366 13.329 150.949 13.4906 150.639 13.7017C150.341 13.9005 150.092 14.18 149.893 14.5403C149.694 14.9006 149.595 15.3416 149.595 15.8634V24.9016C149.595 25.411 149.694 25.8459 149.893 26.2062C150.092 26.5664 150.341 26.8522 150.639 27.0634C150.949 27.2622 151.366 27.4237 151.887 27.5479C152.409 27.6598 152.919 27.7343 153.415 27.7716C153.912 27.7964 154.521 27.8089 155.242 27.8089C155.962 27.8089 156.57 27.7964 157.067 27.7716C157.564 27.7343 158.074 27.6598 158.596 27.5479C159.117 27.4237 159.528 27.2622 159.826 27.0634C160.137 26.8522 160.391 26.5664 160.59 26.2062C160.789 25.8459 160.888 25.411 160.888 24.9016Z" fill="white"/>
<path d="M190.613 33.4925L179.898 17.9505V33.4925C177.475 33.7286 175.047 33.7286 172.611 33.4925V7.42138C175.208 7.2723 177.799 7.2723 180.382 7.42138L191.265 23.3734V7.42138C193.787 7.2723 196.216 7.2723 198.552 7.42138V33.4925C195.905 33.6416 193.259 33.6416 190.613 33.4925Z" fill="white"/>
<path d="M222.833 33.493L221.157 29.151H210.552L208.857 33.493C206.372 33.667 203.881 33.667 201.385 33.493L212.379 7.42191C214.715 7.2604 217.057 7.2604 219.405 7.42191L230.381 33.493C227.859 33.667 225.344 33.667 222.833 33.493ZM218.939 23.4112L215.846 15.3233L212.714 23.4112H218.939Z" fill="white"/>
<path d="M251.217 33.4925L240.502 17.9505V33.4925C238.079 33.7286 235.65 33.7286 233.215 33.4925V7.42138C235.811 7.2723 238.402 7.2723 240.986 7.42138L251.869 23.3734V7.42138C254.391 7.2723 256.819 7.2723 259.156 7.42138V33.4925C256.509 33.6416 253.863 33.6416 251.217 33.4925Z" fill="white"/>
<path d="M263.592 26.6907V14.1862C263.592 12.8445 263.902 11.6953 264.524 10.7387C265.145 9.78203 266.051 9.0304 267.244 8.48376C268.436 7.93712 269.81 7.54577 271.363 7.30973C272.915 7.06125 274.716 6.93701 276.766 6.93701C279.587 6.93701 282.624 7.17927 285.879 7.66379C286.091 9.58948 286.091 11.5214 285.879 13.4595C283.047 13.124 280.437 12.9563 278.053 12.9563C277.22 12.9563 276.556 12.9625 276.059 12.9749C275.575 12.9874 275.016 13.0246 274.382 13.0868C273.748 13.1365 273.251 13.2234 272.891 13.3477C272.542 13.4595 272.195 13.6209 271.847 13.8321C271.499 14.0309 271.25 14.2918 271.102 14.6149C270.952 14.9379 270.877 15.3167 270.877 15.7516V24.9389C270.877 25.3365 270.94 25.6844 271.064 25.9826C271.201 26.2808 271.369 26.5353 271.568 26.7466C271.767 26.9454 272.052 27.1193 272.425 27.2684C272.798 27.4051 273.152 27.5107 273.487 27.5852C273.823 27.6598 274.27 27.7219 274.829 27.7716C275.4 27.8089 275.904 27.8337 276.339 27.8461C276.773 27.8461 277.344 27.8461 278.053 27.8461C280.077 27.8461 282.699 27.6039 285.917 27.1193C286.277 28.8462 286.458 30.7657 286.458 32.8778C282.743 33.5983 279.513 33.9586 276.766 33.9586C274.716 33.9586 272.915 33.8343 271.363 33.5858C269.81 33.3373 268.436 32.9399 267.244 32.3932C266.051 31.8465 265.145 31.0949 264.524 30.1382C263.902 29.1817 263.592 28.0325 263.592 26.6907Z" fill="white"/>
<path d="M311.635 33.493H290.502V7.42188H311.635C311.847 9.35997 311.847 11.2981 311.635 13.2362H297.789V17.541H311.263C311.474 19.4667 311.474 21.3862 311.263 23.2993H297.789V27.6601H311.635C311.847 29.5982 311.847 31.5424 311.635 33.493Z" fill="white"/>
</g>
<defs>
<clipPath id="clip0_10473_6766">
<rect width="311.765" height="39.1144" fill="white" transform="translate(0.0292969 0.890625)"/>
</clipPath>
</defs>
</svg>
