<svg width="169" height="169" viewBox="0 0 169 169" fill="none" xmlns="http://www.w3.org/2000/svg">
<path d="M66.1114 83.3045L42.3815 42.2371L47.3125 33.7442C49.7619 29.4494 54.0244 27 58.9539 27H84.4001H109.814C114.777 27 119.008 29.4478 121.488 33.7442L135.864 58.6527H123.077L112.74 40.7757C111.69 38.9302 109.719 37.9776 107.746 38.1036H60.6703C57.7446 38.1036 55.3582 40.4884 55.3259 43.4156C55.3259 44.4344 55.644 45.4209 56.1526 46.3106L78.2276 84.5154L60.638 114.928C54.8173 104.843 48.9966 94.76 43.1744 84.6752L48.9014 74.7502L59.9711 93.964L66.1114 83.3045ZM146.905 77.7712L141.974 69.2783H94.5464L88.4076 58.6204L110.578 58.6527L104.852 48.7277C93.2111 48.7277 81.5359 48.7277 69.8945 48.7277L87.4518 79.171H132.001C132.873 79.2402 133.728 79.4338 134.464 79.8718C137.009 81.3669 137.9 84.6122 136.404 87.1891L112.864 127.938C112.005 129.721 110.192 130.929 108.061 130.929H87.4165L81.0242 142H109.78C114.744 142 118.974 139.552 121.454 135.287L134.179 113.242L146.903 91.2288C149.354 86.9325 149.354 82.0338 146.905 77.7712ZM104.759 100.897L93.6582 120.111H105.109C110.93 110.026 116.75 99.943 122.571 89.8259H87.4534L65.38 128.031C64.9021 128.922 64.2029 129.686 63.3132 130.194C60.7686 131.659 57.4925 130.767 56.0297 128.221L32.4903 87.4718C31.3763 85.8169 31.2487 83.6226 32.2998 81.8094L42.6058 63.9325L36.2135 52.8304L21.837 77.7389C19.3877 82.0338 19.3877 86.9325 21.837 91.2273L34.5617 113.241L47.2864 135.285C49.7665 139.548 53.9983 141.999 58.9277 141.999H68.7559L92.4535 100.931L104.759 100.897Z" fill="url(#paint0_linear_1661_1215)"/>
<defs>
<linearGradient id="paint0_linear_1661_1215" x1="113.415" y1="34.1777" x2="49.1103" y2="145.547" gradientUnits="userSpaceOnUse">
<stop stop-color="#35FFE7"/>
<stop offset="1" stop-color="#7D2EFF"/>
</linearGradient>
</defs>
</svg>
