<svg width="1366" height="442" viewBox="0 0 1366 442" fill="none" xmlns="http://www.w3.org/2000/svg">
<g clip-path="url(#clip0_0_1853)">
<rect width="1366" height="442" rx="25" fill="#02070E"/>
<mask id="mask0_0_1853" style="mask-type:luminance" maskUnits="userSpaceOnUse" x="-39" y="-179" width="614" height="799">
<path d="M63.0801 610.038C87.0326 600.625 102.691 583.829 112.721 562.906C134.794 516.863 129.976 450.728 126.233 399.358C124.819 379.947 123.557 362.621 123.944 349.203C125.343 300.642 133.658 254.588 174.466 205.228C215.099 156.072 287.994 103.696 418.537 42.3626C588.731 -37.6009 571.656 -123.998 540.182 -173.666L543.334 -175.486C575.772 -124.613 593.774 -36.0752 420.044 45.5498C290.007 106.645 217.495 158.698 177.182 207.462C137.038 256.02 128.855 301.406 127.477 349.281C127.093 362.556 128.348 379.785 129.756 399.09C133.529 450.864 138.384 517.517 115.906 564.405C105.547 586.01 89.4481 603.39 64.8865 613.159L63.0826 610.034L63.0801 610.038ZM59.2967 603.485C79.7132 593.732 93.4776 578.122 102.593 559.106C124.665 513.062 119.849 446.929 116.105 395.558C114.691 376.148 113.431 358.823 113.816 345.403C115.215 296.842 123.531 250.788 164.338 201.428C204.972 152.273 277.866 99.8969 408.41 38.5647C570.678 -37.6739 562.708 -119.76 534.338 -170.29L537.513 -172.123C566.878 -120.383 575.758 -36.1675 409.917 41.7521C279.88 102.847 207.368 154.9 167.055 203.665C126.913 252.224 118.728 297.608 117.35 345.483C116.967 358.758 118.221 375.987 119.629 395.292C123.402 447.066 128.257 513.719 105.78 560.609C96.3403 580.302 82.1314 596.481 61.0925 606.591L59.2995 603.486L59.2967 603.485ZM55.2589 596.491C72.3664 586.684 84.2877 572.367 92.4656 555.307C114.538 509.264 109.719 443.13 105.978 391.758C104.562 372.349 103.302 355.021 103.688 341.604C105.087 293.043 113.403 246.989 154.21 197.629C194.844 148.473 267.739 96.0973 398.281 34.7635C552.846 -37.8563 552.95 -115.78 528.091 -166.686L531.306 -168.542C557.189 -116.407 557.962 -36.3637 399.786 37.95C269.749 99.0469 197.237 151.098 156.924 199.864C116.781 248.422 108.598 293.807 107.219 341.683C106.838 354.956 108.09 372.187 109.499 391.491C113.272 443.266 118.127 509.919 95.6494 556.808C87.1507 574.54 74.7838 589.419 57.0478 599.59L55.2589 596.491ZM50.9584 589.043C64.9929 579.472 75.1233 566.56 82.3396 551.506C104.412 505.464 99.595 439.329 95.8515 387.958C94.436 368.549 93.1759 351.221 93.5622 337.803C94.9614 289.242 103.277 243.188 144.084 193.828C184.718 144.673 257.613 92.2968 388.155 30.9629C535.164 -38.1069 542.436 -111.969 521.411 -162.826L524.686 -164.718C546.774 -112.606 540.31 -36.6297 389.661 34.1512C259.623 95.2464 187.112 147.299 146.799 196.066C106.656 244.623 98.4729 290.009 97.0944 337.884C96.7122 351.16 97.9664 368.39 99.3738 387.693C103.147 439.467 108.002 506.12 85.5243 553.009C77.9888 568.729 67.4119 582.207 52.7541 592.149L50.9612 589.043L50.9584 589.043ZM46.3863 581.124C57.5877 572.094 65.985 560.694 72.2108 547.705C94.2825 501.661 89.4662 435.527 85.7227 384.157C84.3072 364.748 83.0471 347.42 83.4334 334.002C84.8327 285.441 93.148 239.387 133.955 190.027C174.587 140.872 247.484 88.4954 378.027 27.1616C517.557 -38.3963 531.203 -108.275 514.255 -158.697L517.612 -160.635C535.66 -108.923 522.747 -36.9368 379.532 30.3499C249.495 91.4451 176.983 143.498 136.67 192.263C96.5272 240.822 88.3432 286.206 86.9647 334.081C86.5815 347.356 87.8356 364.585 89.244 383.89C93.0171 435.664 97.8718 502.317 75.3936 549.205C68.8486 562.859 60.0073 574.822 48.1921 584.247L46.3871 581.121L46.3863 581.124ZM41.5296 572.711C50.1486 564.525 56.8749 554.772 62.0841 543.907C84.1568 497.865 79.3395 431.729 75.596 380.359C74.1822 360.949 72.9213 343.624 73.3066 330.204C74.7059 281.643 83.0213 235.589 123.829 186.229C164.462 137.074 237.357 84.6977 367.9 23.3638C499.982 -38.6919 519.263 -104.622 506.569 -154.258L510.03 -156.256C523.856 -105.29 505.212 -37.2538 369.405 26.5521C239.368 87.6472 166.856 139.7 126.544 188.466C86.4004 237.024 78.2174 282.41 76.8388 330.285C76.4557 343.56 77.7099 360.789 79.1182 380.093C82.8913 431.868 87.746 498.521 65.2688 545.41C59.7414 556.943 52.5737 567.27 43.3615 575.88L41.5324 572.712L41.5296 572.711ZM36.3763 563.786C42.6644 556.758 47.7951 548.787 51.9563 540.107C74.0291 494.065 69.2099 427.931 65.4682 376.559C64.0527 357.15 62.7926 339.822 63.1789 326.404C64.5782 277.844 72.8936 231.789 113.701 182.429C154.335 133.274 227.229 80.8981 357.772 19.5643C482.371 -38.9765 506.593 -100.966 498.282 -149.473L501.853 -151.535C511.323 -101.653 487.655 -37.565 359.279 22.7515C229.242 83.8467 156.73 135.9 116.417 184.664C76.2734 233.222 68.0903 278.607 66.7119 326.482C66.3304 339.756 67.5838 356.988 68.9912 376.291C72.7643 428.066 77.619 494.719 55.1418 541.608C50.658 550.96 45.0958 559.518 38.2412 567.012L36.3781 563.785L36.3763 563.786ZM30.9143 554.325C35.1347 548.771 38.7489 542.736 41.8285 536.308C63.9013 490.265 59.0822 424.131 55.3405 372.76C53.9249 353.351 52.6648 336.023 53.0511 322.605C54.4504 274.044 62.7658 227.99 103.573 178.63C144.207 129.475 217.101 77.0985 347.644 15.7647C464.671 -39.2189 493.154 -97.2484 489.299 -144.287L493.021 -146.435C498.055 -97.9646 470.016 -37.8335 349.15 18.953C219.112 80.0482 146.601 132.101 106.287 180.866C66.1439 229.423 57.9608 274.809 56.5823 322.684C56.1991 335.959 57.4534 353.188 58.8617 372.493C62.6348 424.267 67.4896 490.92 45.0114 537.808C41.6044 544.915 37.5735 551.564 32.8265 557.637L30.9143 554.325ZM25.1316 544.309C27.5496 540.548 29.7361 536.61 31.7008 532.508C53.7725 486.464 48.9562 420.331 45.2127 368.96C43.7988 349.55 42.5381 332.225 42.9234 318.805C44.3226 270.245 52.638 224.19 93.4454 174.83C134.077 125.676 206.974 73.299 337.518 11.9669C446.814 -39.3845 478.868 -93.3906 479.487 -138.619L483.433 -140.897C484.001 -94.1647 452.244 -38.0411 339.023 15.1552C208.986 76.2503 136.474 128.303 96.1606 177.068C56.0182 225.627 47.8341 271.011 46.4556 318.886C46.0724 332.161 47.3266 349.39 48.735 368.695C52.5081 420.47 57.3628 487.122 34.8855 534.012C32.587 538.806 30.0042 543.396 27.1099 547.736L25.1326 544.311L25.1316 544.309ZM19.0171 533.719C19.909 532.076 20.7589 530.405 21.5738 528.706C43.6465 482.664 38.8291 416.529 35.0856 365.158C33.6718 345.748 32.41 328.421 32.7963 315.003C34.1957 266.442 42.511 220.388 83.3184 171.028C123.952 121.873 196.847 69.4967 327.39 8.16288C428.717 -39.4442 463.652 -89.3342 468.702 -132.397L472.939 -134.844C469.068 -90.1954 434.258 -38.1531 328.894 11.3494C198.858 72.4463 126.345 124.498 86.0325 173.264C45.8891 221.821 37.7061 267.207 36.3276 315.082C35.9444 328.357 37.1986 345.586 38.6069 364.891C42.38 416.666 47.2347 483.318 24.7575 530.208C23.6027 532.617 22.3712 534.974 21.0714 537.273L19.0189 533.718L19.0171 533.719ZM12.5539 522.524C33.3508 476.605 28.6361 411.85 24.9579 361.358C23.5424 341.949 22.2823 324.621 22.6686 311.203C24.0679 262.643 32.3832 216.588 73.1906 167.229C113.824 118.073 186.719 65.6971 317.262 4.3633C410.283 -39.3417 447.353 -84.9695 456.715 -125.474L461.334 -128.141C453.118 -85.9469 415.971 -38.117 318.769 7.55059C188.731 68.6458 116.22 120.699 75.9065 169.463C35.7631 218.021 27.58 263.406 26.2016 311.281C25.8211 324.557 27.0735 341.788 28.4809 361.09C32.2478 412.806 37.0969 479.365 14.7054 526.246L12.5557 522.523L12.5539 522.524ZM5.73084 510.706C22.6889 465.478 18.3009 405.178 14.8302 357.559C13.4146 338.15 12.1545 320.822 12.5408 307.404C13.9401 258.843 22.2555 212.789 63.0628 163.429C103.697 114.274 176.591 61.8976 307.134 0.563796C391.356 -39.0075 429.704 -80.152 443.156 -117.646L448.319 -120.627C435.94 -81.3085 397.251 -37.8814 308.637 3.75309C178.6 64.8482 106.089 116.901 65.7753 165.666C25.6329 214.225 17.4488 259.609 16.0703 307.484C15.6872 320.759 16.9412 337.988 18.3496 357.293C21.9143 406.193 26.4381 468.364 7.98913 514.622L5.72816 510.705L5.73084 510.706ZM-1.45999 498.251C12.0144 454.185 7.95471 398.398 4.7014 353.757C3.28758 334.347 2.02678 317.022 2.41206 303.603C3.80964 255.043 12.1267 208.988 52.934 159.628C93.566 110.473 166.462 58.0963 297.006 -3.2358C371.688 -38.3245 410.268 -74.6497 427.438 -108.571L433.456 -112.046C417.227 -76.1028 377.917 -37.354 298.511 -0.0474471C168.474 61.0477 95.9625 113.101 55.6503 161.867C15.5069 210.424 7.3238 255.81 5.94535 303.685C5.56214 316.96 6.81625 334.189 8.22457 353.494C11.5756 399.479 15.7785 457.201 0.927275 502.386L-1.45898 498.253L-1.45999 498.251ZM-9.03265 485.135C1.32912 442.713 -2.39815 391.507 -5.42634 349.958C-6.84016 330.548 -8.10202 313.221 -7.71573 299.803C-6.31646 251.242 1.99894 205.188 42.8063 155.828C83.44 106.673 156.335 54.2968 286.878 -7.03703C350.902 -37.1181 388.404 -68.1092 408.629 -97.7138L415.949 -101.94C396.398 -70.0258 357.639 -36.3883 288.383 -3.84873C158.345 57.2464 85.8337 109.299 45.5205 158.064C5.37711 206.621 -2.80599 252.007 -4.18451 299.882C-4.56767 313.157 -3.31248 330.388 -1.90511 349.691C1.22657 392.65 5.10049 445.85 -6.50909 489.506L-9.03265 485.135ZM-17.0002 471.335C-9.37067 431.044 -12.7592 384.493 -15.5524 346.157C-16.9662 326.747 -18.2281 309.42 -17.8418 296.002C-16.4424 247.442 -8.1271 201.387 32.6803 152.028C73.314 102.872 146.209 50.4962 276.751 -10.8376C327.974 -34.9051 362.189 -59.5518 384.198 -83.6088L394.196 -89.3815C372.277 -62.4571 335.776 -34.6738 278.257 -7.64934C148.219 53.4458 75.7077 105.499 35.3954 154.265C-4.74795 202.823 -12.931 248.208 -14.3095 296.083C-14.691 309.357 -13.4385 326.588 -12.0302 345.892C-9.12877 385.702 -5.59075 434.307 -14.3275 475.96L-16.9984 471.334L-17.0002 471.335ZM256.087 -9.64398C259.562 -11.3028 263.064 -12.966 266.624 -14.6372C299.193 -29.9393 324.887 -45.477 344.953 -60.9509L363.338 -71.5653C341.216 -51.5444 310.364 -31.2923 268.128 -11.4506C245.511 -0.822855 224.635 9.52885 205.367 19.6395L256.087 -9.64398ZM-25.3726 456.833C-20.0876 419.164 -23.1332 377.341 -25.6802 342.358C-27.0957 322.949 -28.3558 305.621 -27.9695 292.203C-26.5702 243.642 -18.2548 197.588 22.5526 148.228C39.0041 128.328 60.7446 107.9 89.4514 86.5655L127.392 64.6603C80.3607 94.9571 47.7874 123.225 25.2677 150.465C-14.8747 199.025 -23.0588 244.409 -24.4372 292.284C-24.8204 305.559 -23.5663 322.788 -22.1579 342.093C-19.4946 378.624 -16.2952 422.562 -22.5394 461.741L-25.3716 456.835L-25.3726 456.833ZM-34.1549 441.622C-30.8181 407.073 -33.5132 370.041 -35.8079 338.558C-37.2235 319.149 -38.4836 301.821 -38.0973 288.403C-36.6997 239.844 -28.3826 193.788 12.4247 144.429C20.4796 134.684 29.8066 124.813 40.5952 114.773L55.6036 106.108C39.407 119.946 26.0841 133.427 15.1399 146.666C-25.0035 195.224 -33.1866 240.609 -34.5651 288.484C-34.9482 301.759 -33.6941 318.988 -32.2857 338.293C-29.8726 371.404 -27.018 410.6 -31.1523 446.823L-34.1539 441.624L-34.1549 441.622ZM548.786 -178.634C583.769 -129.19 612.103 -36.1292 430.168 49.3514C300.131 110.447 227.619 162.5 187.306 211.264C147.163 259.822 138.979 305.207 137.601 353.082C137.218 366.357 138.473 383.588 139.88 402.891C143.653 454.666 148.508 521.319 126.031 568.208C114.777 591.687 96.7464 610.17 68.4459 619.332L66.6209 616.171C94.3324 607.383 111.928 589.49 122.849 566.705C144.922 520.663 140.104 454.528 136.361 403.157C134.945 383.748 133.685 366.42 134.071 353.002C135.471 304.442 143.786 258.387 184.593 209.027C225.227 159.872 298.122 107.496 428.665 46.1621C607.109 -37.6757 579.689 -128.589 545.651 -176.824L548.788 -178.635L548.786 -178.634Z" fill="white"/>
</mask>
<g mask="url(#mask0_0_1853)">
<path opacity="0.25" d="M71.5538 624.715L782.166 214.443L552.186 -183.894L-158.426 226.378L71.5538 624.715Z" fill="url(#paint0_linear_0_1853)"/>
</g>
<mask id="mask1_0_1853" style="mask-type:luminance" maskUnits="userSpaceOnUse" x="-6" y="-165" width="179" height="236">
<path d="M98.4226 -164.557C106.194 -144.641 112.918 -124.802 117.831 -106.51C123.387 -85.8257 126.62 -67.1627 126.426 -52.6773C126.237 -38.5949 122.827 -28.5636 115.166 -24.677C110.584 -22.353 104.388 -22.1655 96.3452 -24.5536C57.6046 -36.0554 23.3082 -31.5685 -5.88458 -17.445V-14.2345C22.9611 -28.5455 56.9846 -33.2231 95.5163 -21.7839C104.326 -19.1687 111.238 -19.4385 116.484 -22.098C125.23 -26.5356 129.117 -37.4584 129.323 -52.6428C129.522 -67.4242 126.253 -86.3504 120.638 -107.257C115.786 -125.315 109.171 -144.884 101.518 -164.555H98.4242L98.4226 -164.557ZM95.2071 -164.557C101.737 -147.234 107.393 -130.112 111.678 -114.17C117.234 -93.4854 120.467 -74.8223 120.273 -60.337C120.084 -46.2545 116.674 -36.2232 109.013 -32.3366C104.431 -30.0126 98.2351 -29.8251 90.1922 -32.2133C54.1424 -42.9157 21.9398 -39.7759 -5.88294 -27.904V-24.7592C21.6108 -36.7758 53.5372 -40.0785 89.3632 -29.4419C98.1725 -26.8267 105.085 -27.0964 110.331 -29.756C119.077 -34.1936 122.964 -45.1164 123.17 -60.3008C123.369 -75.0822 120.1 -94.0084 114.485 -114.915C110.265 -130.626 104.706 -147.483 98.2926 -164.555H95.2087L95.2071 -164.557ZM91.8863 -164.557C97.2235 -149.861 101.872 -135.417 105.523 -121.828C111.079 -101.143 114.313 -82.4803 114.118 -67.9949C113.929 -53.9125 110.52 -43.8812 102.858 -39.9946C98.2762 -37.6706 92.0804 -37.4831 84.0375 -39.8713C50.6161 -49.7941 20.4989 -47.8171 -5.88458 -38.016V-34.9337C20.1848 -44.8466 50.024 -46.9536 83.2086 -37.1015C92.0179 -34.4863 98.9308 -34.7561 104.176 -37.4156C112.923 -41.8532 116.809 -52.7744 117.015 -67.9604C117.214 -82.7418 113.946 -101.668 108.331 -122.575C104.742 -135.932 100.187 -150.114 94.962 -164.555H91.8879L91.8863 -164.557ZM88.4586 -164.557C92.6593 -152.511 96.3551 -140.708 99.3699 -129.487C104.926 -108.803 108.16 -90.1399 107.965 -75.6546C107.776 -61.5722 104.367 -51.5408 96.7054 -47.6542C92.1231 -45.3302 85.9273 -45.1427 77.8845 -47.5309C47.0338 -56.6905 18.9989 -55.7086 -5.88294 -47.7973V-44.7644C18.6963 -52.7612 46.4548 -53.8468 77.0555 -44.7611C85.8648 -42.146 92.7778 -42.4157 98.0229 -45.0753C106.77 -49.5128 110.656 -60.434 110.862 -75.62C111.061 -90.4015 107.793 -109.328 102.178 -130.234C99.2252 -141.221 95.6199 -152.767 91.5244 -164.557H88.4603H88.4586ZM-5.88458 70.9063C6.44615 58.5575 20.3624 47.9521 35.7672 40.0951C64.9156 25.2265 99.4242 20.1985 138.594 31.827C147.403 34.4421 154.316 34.1724 159.561 31.5128C168.308 27.0752 172.195 16.1541 172.4 0.969681C172.599 -13.8117 169.331 -32.738 163.716 -53.6444C154.389 -88.3587 138.55 -128.654 121.344 -164.555H101.539C110.597 -142.093 118.441 -119.486 123.987 -98.8506C129.543 -78.1661 132.777 -59.5031 132.582 -45.0177C132.393 -30.9353 128.984 -20.9039 121.322 -17.0174C116.74 -14.6933 110.544 -14.5058 102.502 -16.894C62.5422 -28.7576 27.3082 -23.6112 -2.47171 -8.42352C-3.61811 -7.83963 -4.75464 -7.2393 -5.88294 -6.62581V-3.33136C-4.32206 -4.20143 -2.74803 -5.04355 -1.15591 -5.85606C27.9925 -20.723 62.5027 -25.7527 101.671 -14.1242C110.48 -11.5091 117.393 -11.7788 122.638 -14.4384C131.385 -18.876 135.272 -29.7971 135.477 -44.9815C135.676 -59.7629 132.408 -78.6891 126.793 -99.5956C121.814 -118.125 114.977 -138.244 107.071 -158.437C116.392 -135.468 124.471 -112.296 130.142 -91.1893C135.698 -70.5049 138.931 -51.8418 138.737 -37.3564C138.548 -23.274 135.138 -13.2427 127.477 -9.3561C122.895 -7.03206 116.699 -6.84456 108.656 -9.23274C68.6969 -21.0964 33.4629 -15.9499 3.68296 -0.762253C0.429636 0.897308 -2.7579 2.68024 -5.88129 4.5717V7.9566C-2.34178 5.75592 1.28655 3.69997 5.00041 1.80521C34.1488 -13.0617 68.659 -18.0914 107.827 -6.46298C116.637 -3.84782 123.549 -4.11755 128.795 -6.77711C137.541 -11.2147 141.428 -22.1359 141.634 -37.3219C141.833 -52.1033 138.564 -71.0295 132.949 -91.936C127.971 -110.466 121.133 -130.586 113.227 -150.777C122.548 -127.808 130.627 -104.637 136.298 -83.5297C141.854 -62.8452 145.088 -44.1822 144.893 -29.6968C144.704 -15.6144 141.295 -5.58304 133.633 -1.69648C129.051 0.627563 122.855 0.815063 114.813 -1.57312C74.8532 -13.4367 39.6192 -8.29031 9.83928 6.89737C4.41488 9.66385 -0.823668 12.7659 -5.87965 16.1574V19.6475C-0.422348 15.8893 5.25864 12.4748 11.1567 9.4665C40.3051 -5.4021 74.8154 -10.4301 113.984 1.1983C122.793 3.81347 129.706 3.54372 134.951 0.884155C143.698 -3.5534 147.584 -14.4746 147.79 -29.659C147.989 -44.4404 144.721 -63.3666 139.106 -84.2731C134.127 -102.803 127.291 -122.923 119.383 -143.114C128.703 -120.145 136.785 -96.9739 142.454 -75.8667C148.01 -55.1823 151.244 -36.5192 151.05 -22.0339C150.861 -7.95147 147.451 2.0799 139.79 5.96645C135.208 8.29049 129.012 8.478 120.969 6.08981C81.0095 -5.77382 45.7756 -0.629021 15.9956 14.5603C8.33762 18.4666 1.04313 23.0407 -5.87636 28.1575V31.7628C1.428 26.215 9.16164 21.2857 17.3131 17.1278C46.4614 2.25917 80.9717 -2.76885 120.14 8.85957C128.949 11.4747 135.862 11.205 141.107 8.54542C149.854 4.10786 153.741 -6.81331 153.946 -21.9977C154.145 -36.7791 150.877 -55.7053 145.262 -76.6118C140.283 -95.1416 133.446 -115.26 125.54 -135.453C134.86 -112.484 142.94 -89.3126 148.611 -68.2055C154.167 -47.5227 157.4 -28.858 157.206 -14.3726C157.017 -0.290207 153.606 9.74116 145.946 13.6277C141.364 15.9518 135.168 16.1393 127.125 13.7511C87.1658 1.88745 51.9319 7.03225 22.1519 22.2216C12.1864 27.3039 2.83427 33.5161 -5.87471 40.5886V44.3254C3.19776 36.7513 12.989 30.1328 23.4694 24.789C52.6177 9.92044 87.128 4.89242 126.296 16.5208C135.106 19.136 142.018 18.8663 147.264 16.2067C156.01 11.7692 159.897 0.847961 160.103 -14.3364C160.302 -29.1179 157.033 -48.044 151.418 -68.9505C146.44 -87.4804 139.602 -107.601 131.696 -127.792C141.017 -104.823 149.096 -81.6514 154.767 -60.5442C160.323 -39.8614 163.557 -21.1967 163.362 -6.71134C163.173 7.37106 159.762 17.4024 152.102 21.289C147.52 23.613 141.324 23.8005 133.282 21.4123C93.3222 9.54872 58.0882 14.6935 28.3083 29.8828C15.9545 36.1839 4.54482 44.2169 -5.87142 53.4802V57.3684C4.88035 47.5294 16.7325 39.0261 29.6273 32.4503C58.7757 17.5817 93.2843 12.5537 132.454 24.1821C141.264 26.7973 148.176 26.5275 153.422 23.868C162.17 19.4304 166.055 8.50925 166.261 -6.67514C166.46 -21.4566 163.191 -40.3828 157.576 -61.2893C152.598 -79.8191 145.762 -99.9377 137.854 -120.13C147.175 -97.1614 155.254 -73.9901 160.925 -52.8829C166.481 -32.2001 169.714 -13.5354 169.52 0.949944C169.331 15.0323 165.92 25.0637 158.26 28.9503C153.678 31.2743 147.482 31.4618 139.439 29.0736C99.4801 17.21 64.2462 22.3548 34.4662 37.5441C19.6305 45.1116 6.15668 55.1759 -5.86813 66.8701V70.9244L-5.88458 70.9063Z" fill="white"/>
</mask>
<g mask="url(#mask1_0_1853)">
<path opacity="0.25" d="M172.6 70.906H-5.88446V-164.557H172.6V70.906Z" fill="url(#paint1_linear_0_1853)"/>
</g>
<mask id="mask2_0_1853" style="mask-type:luminance" maskUnits="userSpaceOnUse" x="821" y="-194" width="603" height="812">
<path d="M1312.97 -184.464C1289.29 -174.386 1274.11 -157.159 1264.66 -135.964C1243.89 -89.3239 1250.55 -23.349 1255.72 27.8972C1257.68 47.2603 1259.42 64.5452 1259.41 77.9687C1259.37 126.549 1252.34 172.818 1212.93 223.297C1173.68 273.568 1102.28 327.958 973.495 392.911C805.599 477.593 825.079 563.479 857.927 612.25L854.827 614.157C820.981 564.209 800.516 476.209 971.9 389.767C1100.18 325.066 1171.21 271.01 1210.15 221.139C1248.92 171.48 1255.83 125.884 1255.88 77.9893C1255.89 64.7088 1254.15 47.5211 1252.21 28.2635C1246.99 -23.3859 1240.28 -89.8772 1261.44 -137.374C1271.19 -159.26 1286.8 -177.082 1311.08 -187.533L1312.97 -184.46L1312.97 -184.464ZM1316.94 -178.019C1296.8 -167.7 1283.48 -151.712 1274.89 -132.449C1254.12 -85.8067 1260.78 -19.8335 1265.95 31.4126C1267.91 50.7758 1269.65 68.059 1269.64 81.4842C1269.6 130.065 1262.57 176.333 1223.16 226.813C1183.91 277.083 1112.51 331.473 983.724 396.425C823.647 477.162 833.905 558.994 863.674 608.712L860.552 610.633C829.754 559.733 818.527 475.798 982.129 393.281C1110.41 328.58 1181.44 274.524 1220.38 224.653C1259.15 174.992 1266.06 129.398 1266.11 81.5031C1266.12 68.2226 1264.38 51.0349 1262.44 31.7772C1257.22 -19.8721 1250.51 -86.3635 1271.67 -133.862C1280.55 -153.811 1294.31 -170.38 1315.05 -181.074L1316.93 -178.019L1316.94 -178.019ZM1321.17 -171.14C1304.34 -160.859 1292.82 -146.215 1285.12 -128.933C1264.35 -82.293 1271.01 -16.3191 1276.18 34.9281C1278.14 54.2901 1279.88 71.5761 1279.87 84.9996C1279.83 133.58 1272.8 179.849 1233.39 230.328C1194.14 280.599 1122.74 334.989 993.955 399.942C841.477 476.847 843.548 554.743 869.818 604.935L866.656 606.88C839.328 555.488 836.322 475.498 992.362 396.798C1120.64 332.096 1191.67 278.041 1230.61 228.169C1269.38 178.51 1276.3 132.914 1276.34 85.0192C1276.35 71.7397 1274.62 54.5509 1272.67 35.2933C1267.45 -16.356 1260.74 -82.8474 1281.9 -130.346C1289.9 -148.307 1301.85 -163.526 1319.29 -174.188L1321.17 -171.14ZM1325.67 -163.815C1311.91 -153.857 1302.15 -140.666 1295.35 -125.417C1274.57 -78.7766 1281.23 -12.8016 1286.41 38.4446C1288.37 57.8066 1290.11 75.0925 1290.1 88.516C1290.05 137.097 1283.03 183.365 1243.61 233.845C1204.37 284.115 1132.96 338.505 1004.18 403.458C859.159 476.604 853.951 550.641 876.388 600.891L873.166 602.873C849.633 551.398 853.974 475.271 1002.59 400.313C1130.87 335.613 1201.9 281.556 1240.84 231.684C1279.61 182.025 1286.52 136.429 1286.57 88.5339C1286.58 75.2517 1284.84 58.064 1282.9 38.8081C1277.68 -12.8413 1270.97 -79.3327 1292.13 -126.831C1299.22 -142.755 1309.42 -156.523 1323.79 -166.87L1325.67 -163.815L1325.67 -163.815ZM1330.47 -156.026C1319.52 -146.688 1311.44 -135.058 1305.58 -121.9C1284.81 -75.2577 1291.47 -9.28451 1296.64 41.9617C1298.6 61.3237 1300.34 78.6097 1300.33 92.0332C1300.29 140.614 1293.26 186.882 1253.84 237.362C1214.6 287.631 1143.19 342.022 1014.41 406.975C876.767 476.402 865.077 546.634 883.426 596.563L880.124 598.595C860.64 547.406 871.539 475.088 1012.82 403.83C1141.1 339.13 1212.13 285.073 1251.07 235.203C1289.84 185.542 1296.76 139.948 1296.8 92.0528C1296.81 78.7723 1295.08 61.5845 1293.13 42.3269C1287.91 -9.32246 1281.2 -75.8138 1302.36 -123.31C1308.52 -137.142 1317.03 -149.347 1328.57 -159.098L1330.46 -156.024L1330.47 -156.026ZM1335.55 -147.753C1327.17 -139.329 1320.72 -129.393 1315.81 -118.386C1295.03 -71.7457 1301.69 -5.77076 1306.87 45.4754C1308.82 64.8385 1310.57 82.1217 1310.56 95.5469C1310.51 144.128 1303.49 190.396 1264.07 240.876C1224.83 291.146 1153.42 345.536 1024.64 410.489C894.344 476.207 876.91 542.649 890.985 591.911L887.58 594.005C872.338 543.445 889.076 474.915 1023.05 407.344C1151.33 342.643 1222.36 288.587 1261.3 238.715C1300.07 189.056 1306.98 143.46 1307.02 95.5648C1307.04 82.2843 1305.3 65.0966 1303.36 45.8389C1298.14 -5.81043 1291.43 -72.3018 1312.59 -119.8C1317.79 -131.483 1324.67 -142.006 1333.64 -150.869L1335.55 -147.754L1335.55 -147.753ZM1340.96 -138.975C1334.87 -131.774 1329.96 -123.663 1326.04 -114.871C1305.26 -68.2303 1311.93 -2.25643 1317.1 48.9908C1319.06 68.3529 1320.8 85.6388 1320.79 99.0623C1320.74 147.643 1313.72 193.912 1274.3 244.391C1235.06 294.661 1163.65 349.051 1034.87 414.004C911.956 476 889.473 538.641 899.135 586.897L895.623 589.058C884.764 539.46 906.635 474.736 1033.28 410.86C1161.56 346.16 1232.59 292.103 1271.53 242.233C1310.3 192.574 1317.21 146.978 1317.25 99.0829C1317.26 85.8035 1315.53 68.613 1313.59 49.3571C1308.37 -2.29228 1301.66 -68.7837 1322.82 -116.282C1327.04 -125.755 1332.36 -134.465 1339 -142.147L1340.95 -138.973L1340.96 -138.975ZM1346.68 -129.67C1342.62 -124 1339.17 -117.867 1336.27 -111.355C1315.49 -64.7149 1322.16 1.25902 1327.33 52.5063C1329.29 71.8683 1331.03 89.1542 1331.02 102.578C1330.97 151.158 1323.95 197.427 1284.53 247.906C1245.29 298.177 1173.88 352.567 1045.1 417.52C929.656 475.748 902.803 534.55 907.97 581.462L904.31 583.714C897.925 535.402 924.274 474.512 1043.51 414.375C1171.79 349.674 1242.82 295.618 1281.76 245.747C1320.53 196.088 1327.44 150.492 1327.49 102.597C1327.5 89.3168 1325.76 72.1291 1323.82 52.8715C1318.6 1.22212 1311.89 -65.2692 1333.05 -112.766C1336.26 -119.966 1340.1 -126.724 1344.68 -132.928L1346.68 -129.67ZM1352.74 -119.819C1350.43 -115.992 1348.35 -111.995 1346.5 -107.84C1325.72 -61.1977 1332.38 4.77547 1337.56 56.0216C1339.51 75.3847 1341.26 92.668 1341.25 106.093C1341.2 154.674 1334.18 200.942 1294.76 251.422C1255.52 301.691 1184.11 356.082 1055.33 421.034C947.511 475.415 916.977 530.295 917.62 575.523L913.739 577.911C911.867 531.212 942.046 474.224 1053.74 417.889C1182.02 353.188 1253.05 299.132 1291.99 249.261C1330.76 199.6 1337.67 154.006 1337.71 106.111C1337.73 92.8305 1335.99 75.6428 1334.05 56.3852C1328.83 4.73584 1322.12 -61.7555 1343.28 -109.254C1345.44 -114.11 1347.89 -118.771 1350.67 -123.19L1352.74 -119.821L1352.74 -119.819ZM1359.15 -109.404C1358.3 -107.737 1357.5 -106.043 1356.73 -104.322C1335.95 -57.6812 1342.61 8.29364 1347.79 59.5398C1349.74 78.9029 1351.49 96.1878 1351.48 109.611C1351.43 158.192 1344.41 204.461 1304.99 254.94C1265.75 305.21 1194.34 359.6 1065.56 424.553C965.602 474.97 932.073 525.815 928.227 569.002L924.06 571.566C926.683 526.827 960.027 473.834 1063.97 421.41C1192.25 356.708 1263.28 302.653 1302.22 252.781C1340.99 203.122 1347.9 157.526 1347.94 109.631C1347.96 96.3504 1346.22 79.1627 1344.28 59.9051C1339.06 8.25573 1332.35 -58.2357 1353.51 -105.734C1354.59 -108.175 1355.76 -110.565 1356.99 -112.899L1359.14 -109.403L1359.15 -109.404ZM1365.92 -98.3938C1346.41 -51.9122 1352.93 12.6857 1358.02 63.0553C1359.98 82.4173 1361.72 99.7033 1361.71 113.127C1361.66 161.707 1354.64 207.976 1315.22 258.455C1275.98 308.726 1204.57 363.116 1075.79 428.069C984.026 474.353 948.244 520.997 940.016 561.748L935.473 564.542C942.508 522.135 978.306 473.287 1074.2 424.925C1202.48 360.224 1273.51 306.168 1312.45 256.297C1351.22 206.638 1358.13 161.042 1358.17 113.147C1358.18 99.8662 1356.45 82.6775 1354.5 63.4215C1349.3 11.8309 1342.59 -54.5667 1363.67 -102.055L1365.92 -98.3927L1365.92 -98.3938ZM1373.07 -86.771C1357.38 -41.0874 1363.45 19.0672 1368.25 66.5707C1370.2 85.9328 1371.95 103.219 1371.94 116.642C1371.89 165.223 1364.87 211.491 1325.45 261.971C1286.21 312.241 1214.8 366.631 1086.02 431.584C1002.94 473.491 965.752 515.689 953.351 553.544L948.274 556.668C959.55 517.019 997.012 472.53 1084.43 428.438C1212.71 363.738 1283.74 309.681 1322.68 259.811C1361.45 210.15 1368.36 164.556 1368.41 116.661C1368.42 103.38 1366.68 86.1925 1364.74 66.9348C1359.81 18.1531 1353.55 -43.8673 1370.7 -90.6218L1373.07 -86.7703L1373.07 -86.771ZM1380.61 -74.5217C1368.37 -30.0967 1373.98 25.5553 1378.48 70.0878C1380.43 89.4509 1382.18 106.734 1382.17 120.159C1382.13 168.739 1375.1 215.009 1335.68 265.488C1296.44 315.757 1225.03 370.148 1096.25 435.1C1022.58 472.259 985.027 509.647 968.81 544.034L962.891 547.675C978.111 511.293 1016.32 471.463 1094.66 431.955C1222.94 367.254 1293.97 313.198 1332.91 263.326C1371.68 213.667 1378.59 168.07 1378.63 120.176C1378.65 106.895 1376.91 89.7073 1374.96 70.4496C1370.33 24.5764 1364.52 -33.0064 1378.1 -78.5883L1380.6 -74.5234L1380.61 -74.5217ZM1388.54 -61.6219C1379.37 -18.9274 1384.52 32.155 1388.71 73.6033C1390.66 92.9664 1392.41 110.251 1392.4 123.675C1392.35 172.255 1385.33 218.524 1345.91 269.003C1306.67 319.274 1235.26 373.664 1106.48 438.617C1043.32 470.473 1006.7 502.499 987.309 532.656L980.11 537.085C998.762 504.638 1036.57 469.932 1104.89 435.472C1233.17 370.771 1304.2 316.715 1343.14 266.844C1381.91 217.185 1388.82 171.589 1388.87 123.694C1388.88 110.414 1387.14 93.2244 1385.2 73.9685C1380.87 31.1137 1375.51 -21.9576 1385.9 -65.9207L1388.54 -61.6219ZM1396.89 -48.0494C1390.39 -7.56105 1395.08 38.877 1398.94 77.1197C1400.89 96.4828 1402.64 113.768 1402.63 127.191C1402.58 175.772 1395.56 222.04 1356.14 272.52C1316.9 322.79 1245.49 377.18 1116.71 442.133C1066.18 467.621 1032.67 493.213 1011.34 517.875L1001.5 523.924C1022.66 496.399 1058.37 467.607 1115.12 438.988C1243.4 374.288 1314.43 320.231 1353.36 270.359C1392.14 220.7 1399.05 175.104 1399.09 127.209C1399.1 113.93 1397.37 96.7409 1395.42 77.4832C1391.41 37.7698 1386.52 -10.718 1394.09 -52.5981L1396.89 -48.0483L1396.89 -48.0494ZM1137.33 440.363C1133.91 442.119 1130.45 443.879 1126.94 445.649C1094.81 461.854 1069.56 478.103 1049.93 494.13L1031.85 505.254C1053.41 484.623 1083.68 463.518 1125.35 442.505C1147.66 431.251 1168.24 420.32 1187.22 409.676L1137.33 440.363ZM1405.66 -33.7873C1401.43 4.01476 1405.64 45.737 1409.17 80.6351C1411.12 99.9972 1412.87 117.283 1412.86 130.707C1412.81 179.287 1405.78 225.556 1366.37 276.035C1350.48 296.386 1329.32 317.413 1301.22 339.541L1263.9 362.496C1310.07 330.899 1341.84 301.733 1363.59 273.875C1402.37 224.214 1409.28 178.619 1409.32 130.725C1409.33 117.444 1407.6 100.256 1405.65 80.9986C1401.97 44.556 1397.55 0.724252 1402.7 -38.6136L1405.66 -33.789L1405.66 -33.7873ZM1414.87 -18.8269C1412.5 15.8021 1416.22 52.7438 1419.4 84.1506C1421.35 103.513 1423.1 120.799 1423.09 134.222C1423.04 182.802 1416.01 229.071 1376.6 279.551C1368.82 289.516 1359.77 299.643 1349.27 309.981L1334.51 319.062C1350.31 304.776 1363.25 290.929 1373.82 277.39C1412.6 227.731 1419.51 182.135 1419.55 134.24C1419.56 120.959 1417.83 103.772 1415.88 84.5141C1412.55 51.483 1408.6 12.3822 1411.72 -23.9417L1414.87 -18.8286L1414.87 -18.8269ZM849.464 617.456C813.115 569.008 782.195 476.774 961.674 386.249C1089.96 321.549 1160.99 267.492 1199.92 217.622C1238.7 167.963 1245.61 122.367 1245.65 74.4718C1245.66 61.1913 1243.93 44.0019 1241.98 24.746C1236.77 -26.9034 1230.05 -93.3947 1251.21 -140.893C1261.81 -164.677 1279.31 -183.656 1307.35 -193.604L1309.26 -190.495C1281.8 -180.938 1264.72 -162.56 1254.43 -139.48C1233.66 -92.8393 1240.32 -26.8644 1245.49 24.3818C1247.45 43.7439 1249.19 61.0298 1249.18 74.4533C1249.14 123.034 1242.11 169.303 1202.7 219.782C1163.45 270.052 1092.05 324.442 963.265 389.395C787.23 478.181 817.177 568.293 852.547 615.559L849.463 617.457L849.464 617.456Z" fill="white"/>
</mask>
<g mask="url(#mask2_0_1853)">
<path opacity="0.25" d="M1304.09 -198.899L605.206 231.046L846.213 622.809L1545.1 192.865L1304.09 -198.899Z" fill="url(#paint2_linear_0_1853)"/>
</g>
<g opacity="0.25">
<mask id="mask3_0_1853" style="mask-type:luminance" maskUnits="userSpaceOnUse" x="1240" y="341" width="180" height="240">
<path d="M1318.97 580.262C1310.65 560.57 1303.37 540.926 1297.95 522.779C1291.82 502.258 1288.07 483.693 1287.86 469.207C1287.65 455.125 1290.78 445.003 1298.33 440.904C1302.85 438.453 1309.04 438.092 1317.14 440.255C1356.19 450.671 1390.35 445.229 1419.13 430.296L1419.04 427.087C1390.61 442.197 1356.73 447.823 1317.89 437.463C1309.01 435.095 1302.11 435.558 1296.94 438.362C1288.32 443.042 1284.74 454.069 1284.96 469.254C1285.18 484.035 1288.97 502.863 1295.17 523.604C1300.52 541.519 1307.68 560.897 1315.88 580.347L1318.97 580.26L1318.97 580.262ZM1322.19 580.172C1315.18 563.039 1309.04 546.081 1304.32 530.264C1298.19 509.743 1294.43 491.177 1294.22 476.692C1294.02 462.61 1297.15 452.487 1304.7 448.389C1309.21 445.938 1315.4 445.577 1323.51 447.74C1359.84 457.432 1391.94 453.395 1419.42 440.751L1419.34 437.608C1392.19 450.387 1360.37 454.579 1324.26 444.947C1315.38 442.578 1308.48 443.041 1303.31 445.846C1294.69 450.526 1291.11 461.553 1291.33 476.737C1291.54 491.518 1295.33 510.346 1301.53 531.087C1306.19 546.674 1312.22 563.37 1319.1 580.257L1322.19 580.171L1322.19 580.172ZM1325.51 580.079C1319.76 565.538 1314.71 551.229 1310.68 537.748C1304.55 517.226 1300.8 498.661 1300.59 484.176C1300.38 470.093 1303.51 459.971 1311.06 455.872C1315.58 453.421 1321.77 453.06 1329.87 455.223C1363.56 464.21 1393.61 461.393 1419.71 450.859L1419.62 447.778C1393.84 458.415 1364.07 461.354 1330.62 452.431C1321.75 450.063 1314.84 450.526 1309.67 453.331C1301.05 458.011 1297.47 469.036 1297.69 484.222C1297.91 499.003 1301.7 517.831 1307.9 538.572C1311.86 551.824 1316.81 565.874 1322.43 580.164L1325.51 580.078L1325.51 580.079ZM1328.93 579.984C1324.4 568.059 1320.37 556.364 1317.05 545.232C1310.92 524.711 1307.16 506.146 1306.95 491.66C1306.75 477.578 1309.88 467.456 1317.43 463.357C1321.94 460.906 1328.13 460.545 1336.24 462.708C1367.33 471.003 1395.33 469.239 1419.98 460.637L1419.89 457.605C1395.55 466.285 1367.83 468.144 1336.99 459.916C1328.11 457.548 1321.21 458.011 1316.04 460.816C1307.42 465.496 1303.84 476.521 1304.06 491.707C1304.27 506.488 1308.07 525.316 1314.26 546.057C1317.52 556.958 1321.45 568.399 1325.87 580.069L1328.93 579.984L1328.93 579.984ZM1416.67 341.979C1404.69 354.667 1391.07 365.657 1375.89 373.941C1347.17 389.617 1312.82 395.606 1273.34 385.076C1264.46 382.707 1257.55 383.17 1252.39 385.975C1243.77 390.655 1240.19 401.68 1240.4 416.864C1240.62 431.646 1244.41 450.473 1250.61 471.215C1260.9 505.655 1277.86 545.492 1296.06 580.9L1315.86 580.347C1306.18 558.146 1297.7 535.767 1291.58 515.295C1285.45 494.773 1281.7 476.208 1281.49 461.723C1281.29 447.64 1284.41 437.518 1291.96 433.419C1296.48 430.968 1302.67 430.607 1310.77 432.77C1351.05 443.514 1386.13 437.386 1415.47 421.373C1416.6 420.758 1417.72 420.126 1418.83 419.481L1418.74 416.188C1417.2 417.101 1415.65 417.987 1414.08 418.844C1385.36 434.518 1351.01 440.509 1311.53 429.978C1302.65 427.61 1295.75 428.073 1290.58 430.878C1281.96 435.558 1278.38 446.583 1278.6 461.767C1278.81 476.548 1282.6 495.376 1288.8 516.118C1294.29 534.501 1301.69 554.421 1310.16 574.385C1300.2 551.685 1291.48 528.749 1285.22 507.808C1279.09 487.287 1275.33 468.721 1275.12 454.236C1274.92 440.154 1278.05 430.031 1285.6 425.932C1290.11 423.481 1296.3 423.121 1304.41 425.284C1344.68 436.028 1379.76 429.9 1409.1 413.887C1412.31 412.137 1415.45 410.266 1418.52 408.288L1418.42 404.905C1414.95 407.203 1411.38 409.36 1407.72 411.357C1378.99 427.032 1344.64 433.023 1305.16 422.492C1296.28 420.124 1289.38 420.586 1284.21 423.391C1275.59 428.071 1272.01 439.096 1272.23 454.282C1272.44 469.064 1276.24 487.891 1282.43 508.633C1287.93 527.016 1295.32 546.938 1303.79 566.901C1293.83 544.201 1285.11 521.264 1278.85 500.323C1272.72 479.802 1268.97 461.236 1268.76 446.751C1268.55 432.669 1271.68 422.546 1279.23 418.448C1283.75 415.996 1289.93 415.636 1298.04 417.799C1338.32 428.543 1373.39 422.415 1402.74 406.402C1408.08 403.485 1413.23 400.238 1418.19 396.707L1418.09 393.218C1412.74 397.127 1407.16 400.699 1401.35 403.871C1372.63 419.547 1338.27 425.536 1298.79 415.005C1289.91 412.637 1283.01 413.1 1277.84 415.905C1269.22 420.585 1265.64 431.61 1265.86 446.794C1266.07 461.575 1269.87 480.403 1276.07 501.145C1281.56 519.528 1288.95 539.45 1297.42 559.413C1287.47 536.713 1278.74 513.776 1272.48 492.835C1266.35 472.314 1262.6 453.748 1262.39 439.263C1262.18 425.181 1265.31 415.058 1272.86 410.959C1277.38 408.508 1283.57 408.148 1291.67 410.311C1331.95 421.055 1367.02 414.929 1396.37 398.914C1403.92 394.796 1411.08 390.02 1417.85 384.712L1417.75 381.108C1410.61 386.857 1403.01 392 1394.98 396.384C1366.26 412.061 1331.9 418.05 1292.42 407.519C1283.55 405.151 1276.64 405.613 1271.47 408.418C1262.85 413.098 1259.27 424.123 1259.49 439.308C1259.71 454.089 1263.5 472.917 1269.7 493.658C1275.19 512.042 1282.59 531.962 1291.05 551.926C1281.1 529.226 1272.37 506.289 1266.12 485.349C1259.98 464.829 1256.23 446.262 1256.02 431.777C1255.82 417.694 1258.95 407.572 1266.5 403.473C1271.01 401.022 1277.2 400.662 1285.31 402.824C1325.58 413.568 1360.66 407.442 1390 391.428C1399.82 386.069 1409 379.598 1417.5 372.286L1417.4 368.55C1408.54 376.374 1398.94 383.264 1388.61 388.898C1359.89 404.574 1325.53 410.563 1286.06 400.033C1277.18 397.664 1270.28 398.127 1265.11 400.932C1256.49 405.612 1252.91 416.637 1253.12 431.821C1253.34 446.602 1257.13 465.43 1263.33 486.172C1268.82 504.555 1276.22 524.477 1284.69 544.44C1274.73 521.74 1266.01 498.803 1259.75 477.862C1253.62 457.342 1249.86 438.775 1249.65 424.29C1249.45 410.208 1252.58 400.085 1260.13 395.986C1264.64 393.535 1270.83 393.175 1278.94 395.338C1319.21 406.082 1354.29 399.956 1383.63 383.941C1395.81 377.298 1406.99 368.949 1417.14 359.399L1417.03 355.512C1406.56 365.648 1394.95 374.478 1382.24 381.411C1353.52 397.088 1319.17 403.077 1279.69 392.546C1270.81 390.178 1263.91 390.64 1258.74 393.445C1250.12 398.125 1246.54 409.151 1246.76 424.335C1246.97 439.116 1250.76 457.944 1256.96 478.685C1262.45 497.069 1269.85 516.989 1278.32 536.953C1268.36 514.253 1259.64 491.316 1253.38 470.376C1247.25 449.856 1243.49 431.289 1243.28 416.804C1243.08 402.721 1246.21 392.599 1253.76 388.5C1258.27 386.049 1264.46 385.689 1272.57 387.851C1312.84 398.595 1347.92 392.469 1377.26 376.455C1391.88 368.476 1405.07 358.04 1416.76 346.014L1416.65 341.962L1416.67 341.979Z" fill="white"/>
</mask>
<g mask="url(#mask3_0_1853)">
<path d="M1238.25 346.961L1416.67 341.98L1423.24 577.351L1244.82 582.332L1238.25 346.961Z" fill="url(#paint3_linear_0_1853)"/>
</g>
</g>
</g>
<rect x="0.5" y="0.5" width="1365" height="441" rx="24.5" stroke="url(#paint4_linear_0_1853)"/>
<defs>
<linearGradient id="paint0_linear_0_1853" x1="426.86" y1="419.579" x2="196.88" y2="21.2417" gradientUnits="userSpaceOnUse">
<stop stop-color="#59FD3F"/>
<stop offset="0.5" stop-color="#3FF794"/>
<stop offset="1" stop-color="#20EFF6"/>
</linearGradient>
<linearGradient id="paint1_linear_0_1853" x1="83.3575" y1="70.906" x2="83.3575" y2="-164.557" gradientUnits="userSpaceOnUse">
<stop stop-color="#59FD3F"/>
<stop offset="0.5" stop-color="#3FF794"/>
<stop offset="1" stop-color="#20EFF6"/>
</linearGradient>
<linearGradient id="paint2_linear_0_1853" x1="954.648" y1="16.0735" x2="1195.66" y2="407.837" gradientUnits="userSpaceOnUse">
<stop stop-color="#59FD3F"/>
<stop offset="0.5" stop-color="#3FF794"/>
<stop offset="1" stop-color="#20EFF6"/>
</linearGradient>
<linearGradient id="paint3_linear_0_1853" x1="1327.46" y1="344.47" x2="1334.03" y2="579.842" gradientUnits="userSpaceOnUse">
<stop stop-color="#59FD3F"/>
<stop offset="0.5" stop-color="#3FF794"/>
<stop offset="1" stop-color="#20EFF6"/>
</linearGradient>
<linearGradient id="paint4_linear_0_1853" x1="683" y1="0" x2="683" y2="442" gradientUnits="userSpaceOnUse">
<stop stop-color="#59FD3F"/>
<stop offset="0.5" stop-color="#3FF794"/>
<stop offset="1" stop-color="#20EFF6"/>
</linearGradient>
<clipPath id="clip0_0_1853">
<rect width="1366" height="442" rx="25" fill="white"/>
</clipPath>
</defs>
</svg>
