<svg width="32" height="36" viewBox="0 0 32 36" fill="none" xmlns="http://www.w3.org/2000/svg">
<path d="M24.389 16.9557C27.647 15.1377 30.545 13.4817 30.545 13.4817L15.875 5.3457V21.4017C16.397 21.2217 17.711 20.5737 19.349 19.7277L24.425 22.6617V16.9557H24.389Z" fill="url(#paint0_linear_461_93)"/>
<path d="M15.8559 5.3457L1.16797 12.8877C1.16797 12.8877 14.0019 20.2137 15.8559 20.8257V5.3457Z" fill="url(#paint1_linear_461_93)"/>
<path d="M24.3914 22.6439L15.8234 17.7119L4.60938 24.1919L15.8414 30.6899L27.0914 24.1919V21.0599L24.3914 22.6439Z" fill="url(#paint2_linear_461_93)"/>
<path d="M11.2305 12.6719V24.3359L15.8565 26.9999V15.3539L11.2305 12.6719Z" fill="url(#paint3_linear_461_93)"/>
<path d="M15.875 15.3539V26.9999L20.501 24.3359V12.6719L15.875 15.3539Z" fill="url(#paint4_linear_461_93)"/>
<path d="M8.85738 18.0723L4.60938 20.5203V24.1923L11.5394 20.1963L8.85738 18.0723Z" fill="url(#paint5_linear_461_93)"/>
<path d="M9.07337 17.9455L4.60938 20.5195L0.109375 17.9275L4.57337 15.3535L9.07337 17.9455Z" fill="url(#paint6_linear_461_93)"/>
<path d="M0 9.14355V14.4356L15.858 23.5796V18.2876L0 9.14355Z" fill="url(#paint7_linear_461_93)"/>
<path d="M4.626 20.5203L0 17.8203V26.8203L15.858 35.9643V30.6723L4.644 24.1923L4.626 20.5203Z" fill="url(#paint8_linear_461_93)"/>
<path d="M15.858 0L0 9.144L4.626 11.808L15.84 5.328L24.39 10.242L29.016 7.578L15.858 0Z" fill="url(#paint9_linear_461_93)"/>
<path d="M11.2305 12.6724L15.8565 15.3364L20.4465 12.6904L15.8205 10.0264L11.2305 12.6724Z" fill="url(#paint10_linear_461_93)"/>
<path d="M24.3906 10.2597V22.6437L29.0166 19.9797V7.5957L24.3906 10.2597Z" fill="url(#paint11_linear_461_93)"/>
<path d="M15.8203 18.2876V23.5796L27.0343 17.0996V24.2276L15.8203 30.7076V35.9996L31.6783 26.8556V9.14355L15.8203 18.2876Z" fill="url(#paint12_linear_461_93)"/>
<defs>
<linearGradient id="paint0_linear_461_93" x1="23.4561" y1="-4.69731" x2="22.9667" y2="23.3633" gradientUnits="userSpaceOnUse">
<stop stop-color="#0098A6"/>
<stop offset="1" stop-color="#002D4D"/>
</linearGradient>
<linearGradient id="paint1_linear_461_93" x1="8.51197" y1="31.011" x2="8.51197" y2="-3.34308" gradientUnits="userSpaceOnUse">
<stop stop-color="#0098A6"/>
<stop offset="1" stop-color="#002D4D"/>
</linearGradient>
<linearGradient id="paint2_linear_461_93" x1="3.93706" y1="-0.0420354" x2="20.9904" y2="32.406" gradientUnits="userSpaceOnUse">
<stop offset="0.27" stop-color="#0098A6"/>
<stop offset="1" stop-color="#002D4D"/>
</linearGradient>
<linearGradient id="paint3_linear_461_93" x1="15.6614" y1="8.47488" x2="11.919" y2="28.5503" gradientUnits="userSpaceOnUse">
<stop stop-color="#0098A6"/>
<stop offset="1" stop-color="#002D4D"/>
</linearGradient>
<linearGradient id="paint4_linear_461_93" x1="18.188" y1="-0.00808567" x2="18.188" y2="27.0468" gradientUnits="userSpaceOnUse">
<stop stop-color="#0098A6"/>
<stop offset="1" stop-color="#002D4D"/>
</linearGradient>
<linearGradient id="paint5_linear_461_93" x1="19.6871" y1="12.0909" x2="1.64388" y2="24.9364" gradientUnits="userSpaceOnUse">
<stop offset="0.27" stop-color="#0098A6"/>
<stop offset="1" stop-color="#002D4D"/>
</linearGradient>
<linearGradient id="paint6_linear_461_93" x1="-2.00966" y1="5.95307" x2="17.5453" y2="41.453" gradientUnits="userSpaceOnUse">
<stop offset="0.27" stop-color="#0098A6"/>
<stop offset="1" stop-color="#002D4D"/>
</linearGradient>
<linearGradient id="paint7_linear_461_93" x1="-8.85634" y1="2.90603" x2="42.0317" y2="43.6991" gradientUnits="userSpaceOnUse">
<stop offset="0.088" stop-color="#26FFED"/>
<stop offset="0.39" stop-color="#18C4CD"/>
<stop offset="0.631" stop-color="#0B90B1"/>
<stop offset="0.869" stop-color="#0370A0"/>
<stop offset="0.994" stop-color="#006499"/>
</linearGradient>
<linearGradient id="paint8_linear_461_93" x1="-13.8982" y1="15.8115" x2="47.4172" y2="46.939" gradientUnits="userSpaceOnUse">
<stop offset="0.098" stop-color="#26FFED"/>
<stop offset="0.381" stop-color="#18C4CD"/>
<stop offset="0.631" stop-color="#0B90B1"/>
<stop offset="0.869" stop-color="#0370A0"/>
<stop offset="0.993" stop-color="#006499"/>
</linearGradient>
<linearGradient id="paint9_linear_461_93" x1="19.1597" y1="-9.98822" x2="4.60933" y2="47.4072" gradientUnits="userSpaceOnUse">
<stop stop-color="#26FFED"/>
<stop offset="0.315" stop-color="#18C4CD"/>
<stop offset="0.631" stop-color="#0B90B1"/>
<stop offset="0.869" stop-color="#0370A0"/>
<stop offset="1" stop-color="#006499"/>
</linearGradient>
<linearGradient id="paint10_linear_461_93" x1="9.46246" y1="24.9263" x2="43.0388" y2="-39.5553" gradientUnits="userSpaceOnUse">
<stop stop-color="#26FFED"/>
<stop offset="0.315" stop-color="#18C4CD"/>
<stop offset="0.631" stop-color="#0B90B1"/>
<stop offset="0.869" stop-color="#0370A0"/>
<stop offset="1" stop-color="#006499"/>
</linearGradient>
<linearGradient id="paint11_linear_461_93" x1="27.3356" y1="-1.46537" x2="26.4542" y2="21.6656" gradientUnits="userSpaceOnUse">
<stop stop-color="#0098A6"/>
<stop offset="1" stop-color="#002D4D"/>
</linearGradient>
<linearGradient id="paint12_linear_461_93" x1="-17.1147" y1="29.7767" x2="50.9193" y2="17.781" gradientUnits="userSpaceOnUse">
<stop stop-color="#26FFED"/>
<stop offset="0.315" stop-color="#18C4CD"/>
<stop offset="0.631" stop-color="#0B90B1"/>
<stop offset="0.869" stop-color="#0370A0"/>
<stop offset="1" stop-color="#006499"/>
</linearGradient>
</defs>
</svg>
