<svg width="41" height="41" viewBox="0 0 41 41" fill="none" xmlns="http://www.w3.org/2000/svg">
<path d="M28.39 6.43331V3.83331C28.39 3.14998 27.8139 2.58331 27.1191 2.58331C26.4244 2.58331 25.8483 3.14998 25.8483 3.83331V6.33331H14.8344V3.83331C14.8344 3.14998 14.2583 2.58331 13.5636 2.58331C12.8689 2.58331 12.2928 3.14998 12.2928 3.83331V6.43331C7.71775 6.84998 5.49803 9.53331 5.15914 13.5166C5.12525 14 5.53192 14.4 6.00636 14.4H34.6764C35.1678 14.4 35.5744 13.9833 35.5236 13.5166C35.1847 9.53331 32.965 6.84998 28.39 6.43331Z" fill="url(#paint0_linear_0_1818)"/>
<path opacity="0.4" d="M33.8969 16.9C34.8289 16.9 35.5914 17.65 35.5914 18.5667V28.8334C35.5914 33.8334 33.0497 37.1667 27.1191 37.1667H13.5636C7.63304 37.1667 5.09137 33.8334 5.09137 28.8334V18.5667C5.09137 17.65 5.85387 16.9 6.78581 16.9H33.8969Z" fill="url(#paint1_linear_0_1818)"/>
<path d="M14.4108 25.5C13.9703 25.5 13.5297 25.3167 13.2078 25.0167C12.9028 24.7 12.7164 24.2667 12.7164 23.8333C12.7164 23.4 12.9028 22.9667 13.2078 22.65C13.6822 22.1834 14.4278 22.0333 15.0547 22.3C15.275 22.3833 15.4614 22.5 15.6139 22.65C15.9189 22.9667 16.1053 23.4 16.1053 23.8333C16.1053 24.2667 15.9189 24.7 15.6139 25.0167C15.2919 25.3167 14.8514 25.5 14.4108 25.5Z" fill="url(#paint2_linear_0_1818)"/>
<path d="M20.3414 25.5C19.9008 25.5 19.4602 25.3167 19.1383 25.0167C18.8333 24.7 18.6469 24.2667 18.6469 23.8333C18.6469 23.4 18.8333 22.9667 19.1383 22.65C19.2908 22.5 19.4772 22.3833 19.6975 22.3C20.3244 22.0333 21.07 22.1834 21.5444 22.65C21.8494 22.9667 22.0358 23.4 22.0358 23.8333C22.0358 24.2667 21.8494 24.7 21.5444 25.0167C21.4597 25.0833 21.375 25.15 21.2902 25.2167C21.1886 25.2833 21.0869 25.3334 20.9852 25.3667C20.8836 25.4167 20.7819 25.45 20.6802 25.4667C20.5616 25.4834 20.46 25.5 20.3414 25.5Z" fill="url(#paint3_linear_0_1818)"/>
<path d="M26.2719 25.5C25.8314 25.5 25.3908 25.3167 25.0689 25.0167C24.7639 24.7 24.5775 24.2667 24.5775 23.8334C24.5775 23.4 24.7639 22.9667 25.0689 22.6501C25.2383 22.5001 25.4078 22.3834 25.628 22.3C25.933 22.1667 26.2719 22.1334 26.6108 22.2C26.7125 22.2167 26.8142 22.25 26.9158 22.3C27.0175 22.3334 27.1192 22.3834 27.2208 22.4501C27.3055 22.5167 27.3903 22.5834 27.475 22.6501C27.78 22.9667 27.9664 23.4 27.9664 23.8334C27.9664 24.2667 27.78 24.7 27.475 25.0167C27.3903 25.0834 27.3055 25.15 27.2208 25.2167C27.1192 25.2834 27.0175 25.3334 26.9158 25.3667C26.8142 25.4167 26.7125 25.4501 26.6108 25.4667C26.4922 25.4834 26.3736 25.5 26.2719 25.5Z" fill="url(#paint4_linear_0_1818)"/>
<path d="M14.4108 31.3334C14.1905 31.3334 13.9703 31.2834 13.7669 31.2C13.5466 31.1167 13.3772 31 13.2078 30.85C12.9028 30.5333 12.7164 30.1 12.7164 29.6667C12.7164 29.2334 12.9028 28.8 13.2078 28.4834C13.3772 28.3334 13.5466 28.2167 13.7669 28.1333C14.0719 28 14.4108 27.9667 14.7497 28.0333C14.8514 28.05 14.953 28.0833 15.0547 28.1333C15.1564 28.1667 15.258 28.2167 15.3597 28.2834C15.4444 28.35 15.5291 28.4167 15.6139 28.4834C15.9189 28.8 16.1053 29.2334 16.1053 29.6667C16.1053 30.1 15.9189 30.5333 15.6139 30.85C15.5291 30.9167 15.4444 31 15.3597 31.05C15.258 31.1167 15.1564 31.1667 15.0547 31.2C14.953 31.25 14.8514 31.2834 14.7497 31.3C14.6311 31.3167 14.5294 31.3334 14.4108 31.3334Z" fill="url(#paint5_linear_0_1818)"/>
<path d="M20.3414 31.3334C19.9008 31.3334 19.4602 31.15 19.1383 30.85C18.8333 30.5333 18.6469 30.1 18.6469 29.6667C18.6469 29.2334 18.8333 28.8 19.1383 28.4834C19.7652 27.8667 20.9175 27.8667 21.5444 28.4834C21.8494 28.8 22.0358 29.2334 22.0358 29.6667C22.0358 30.1 21.8494 30.5333 21.5444 30.85C21.2225 31.15 20.7819 31.3334 20.3414 31.3334Z" fill="url(#paint6_linear_0_1818)"/>
<path d="M26.2719 31.3334C25.8314 31.3334 25.3908 31.15 25.0689 30.85C24.7639 30.5333 24.5775 30.1 24.5775 29.6667C24.5775 29.2334 24.7639 28.8 25.0689 28.4834C25.6958 27.8667 26.848 27.8667 27.475 28.4834C27.78 28.8 27.9664 29.2334 27.9664 29.6667C27.9664 30.1 27.78 30.5333 27.475 30.85C27.153 31.15 26.7125 31.3334 26.2719 31.3334Z" fill="url(#paint7_linear_0_1818)"/>
<defs>
<linearGradient id="paint0_linear_0_1818" x1="20.3425" y1="2.58331" x2="20.3425" y2="14.4" gradientUnits="userSpaceOnUse">
<stop stop-color="#59FD3F"/>
<stop offset="0.5" stop-color="#3FF794"/>
<stop offset="1" stop-color="#20EFF6"/>
</linearGradient>
<linearGradient id="paint1_linear_0_1818" x1="20.3414" y1="16.9" x2="20.3414" y2="37.1667" gradientUnits="userSpaceOnUse">
<stop stop-color="#59FD3F"/>
<stop offset="0.5" stop-color="#3FF794"/>
<stop offset="1" stop-color="#20EFF6"/>
</linearGradient>
<linearGradient id="paint2_linear_0_1818" x1="14.4108" y1="22.1685" x2="14.4108" y2="25.5" gradientUnits="userSpaceOnUse">
<stop stop-color="#59FD3F"/>
<stop offset="0.5" stop-color="#3FF794"/>
<stop offset="1" stop-color="#20EFF6"/>
</linearGradient>
<linearGradient id="paint3_linear_0_1818" x1="20.3414" y1="22.1685" x2="20.3414" y2="25.5" gradientUnits="userSpaceOnUse">
<stop stop-color="#59FD3F"/>
<stop offset="0.5" stop-color="#3FF794"/>
<stop offset="1" stop-color="#20EFF6"/>
</linearGradient>
<linearGradient id="paint4_linear_0_1818" x1="26.2719" y1="22.1667" x2="26.2719" y2="25.5" gradientUnits="userSpaceOnUse">
<stop stop-color="#59FD3F"/>
<stop offset="0.5" stop-color="#3FF794"/>
<stop offset="1" stop-color="#20EFF6"/>
</linearGradient>
<linearGradient id="paint5_linear_0_1818" x1="14.4108" y1="28" x2="14.4108" y2="31.3334" gradientUnits="userSpaceOnUse">
<stop stop-color="#59FD3F"/>
<stop offset="0.5" stop-color="#3FF794"/>
<stop offset="1" stop-color="#20EFF6"/>
</linearGradient>
<linearGradient id="paint6_linear_0_1818" x1="20.3414" y1="28.0209" x2="20.3414" y2="31.3334" gradientUnits="userSpaceOnUse">
<stop stop-color="#59FD3F"/>
<stop offset="0.5" stop-color="#3FF794"/>
<stop offset="1" stop-color="#20EFF6"/>
</linearGradient>
<linearGradient id="paint7_linear_0_1818" x1="26.2719" y1="28.0209" x2="26.2719" y2="31.3334" gradientUnits="userSpaceOnUse">
<stop stop-color="#59FD3F"/>
<stop offset="0.5" stop-color="#3FF794"/>
<stop offset="1" stop-color="#20EFF6"/>
</linearGradient>
</defs>
</svg>
