<svg width="32" height="33" viewBox="0 0 32 33" fill="none" xmlns="http://www.w3.org/2000/svg">
<path opacity="0.4" d="M16 30.1088C23.3638 30.1088 29.3333 24.1393 29.3333 16.7755C29.3333 9.41171 23.3638 3.44217 16 3.44217C8.63621 3.44217 2.66667 9.41171 2.66667 16.7755C2.66667 24.1393 8.63621 30.1088 16 30.1088Z" fill="#3FF794"/>
<path d="M20.9467 22.0155C20.7733 22.0155 20.6 21.9755 20.44 21.8688L16.3067 19.4022C15.28 18.7888 14.52 17.4422 14.52 16.2555V10.7888C14.52 10.2422 14.9733 9.78885 15.52 9.78885C16.0667 9.78885 16.52 10.2422 16.52 10.7888V16.2555C16.52 16.7355 16.92 17.4422 17.3333 17.6822L21.4667 20.1488C21.9467 20.4288 22.0933 21.0422 21.8133 21.5222C21.6133 21.8422 21.28 22.0155 20.9467 22.0155Z" fill="#3FF794"/>
</svg>
