<svg width="32" height="33" viewBox="0 0 32 33" fill="none" xmlns="http://www.w3.org/2000/svg">
<path opacity="0.4" d="M27.4933 12.0422C26.0933 5.88219 20.72 3.10886 16 3.10886C16 3.10886 16 3.10886 15.9867 3.10886C11.28 3.10886 5.89333 5.86886 4.49333 12.0289C2.93333 18.9089 7.14666 24.7355 10.96 28.4022C12.3733 29.7622 14.1867 30.4422 16 30.4422C17.8133 30.4422 19.6267 29.7622 21.0267 28.4022C24.84 24.7355 29.0533 18.9222 27.4933 12.0422Z" fill="#3FF794"/>
<path d="M16 18.7222C18.3196 18.7222 20.2 16.8418 20.2 14.5222C20.2 12.2026 18.3196 10.3222 16 10.3222C13.6804 10.3222 11.8 12.2026 11.8 14.5222C11.8 16.8418 13.6804 18.7222 16 18.7222Z" fill="#3FF794"/>
</svg>
