<svg width="38" height="38" viewBox="0 0 38 38" fill="none" xmlns="http://www.w3.org/2000/svg">
<circle cx="18.8414" cy="19" r="18.5" fill="url(#paint0_linear_0_1826)"/>
<path opacity="0.4" d="M18.8414 28.93C13.8014 28.93 9.69138 24.83 9.69138 19.78V17.9C9.69138 17.51 10.0114 17.2 10.3914 17.2C10.7714 17.2 11.0914 17.52 11.0914 17.9V19.78C11.0914 24.05 14.5614 27.52 18.8314 27.52C23.1014 27.52 26.5714 24.05 26.5714 19.78V17.9C26.5714 17.51 26.8914 17.2 27.2714 17.2C27.6514 17.2 27.9714 17.52 27.9714 17.9V19.78C27.9914 24.83 23.8814 28.93 18.8414 28.93Z" fill="#02070E"/>
<path d="M18.8414 9C15.4814 9 12.7414 11.74 12.7414 15.1V19.79C12.7414 23.15 15.4814 25.89 18.8414 25.89C22.2014 25.89 24.9414 23.15 24.9414 19.79V15.1C24.9414 11.74 22.2014 9 18.8414 9ZM21.0214 17.59C20.9514 17.86 20.7014 18.04 20.4314 18.04C20.3814 18.04 20.3214 18.03 20.2714 18.02C19.2514 17.74 18.1714 17.74 17.1514 18.02C16.8214 18.11 16.4914 17.92 16.4014 17.59C16.3114 17.27 16.5014 16.93 16.8314 16.84C18.0614 16.5 19.3614 16.5 20.5914 16.84C20.9214 16.93 21.1114 17.26 21.0214 17.59ZM21.8714 14.82C21.7814 15.07 21.5514 15.22 21.3014 15.22C21.2314 15.22 21.1614 15.21 21.0914 15.18C19.5614 14.62 17.8814 14.62 16.3514 15.18C16.0314 15.3 15.6814 15.14 15.5614 14.82C15.4514 14.51 15.6114 14.16 15.9314 14.04C17.7314 13.39 19.7114 13.39 21.5014 14.04C21.8214 14.16 21.9814 14.51 21.8714 14.82Z" fill="#02070E"/>
<defs>
<linearGradient id="paint0_linear_0_1826" x1="18.8414" y1="0.5" x2="18.8414" y2="37.5" gradientUnits="userSpaceOnUse">
<stop stop-color="#59FD3F"/>
<stop offset="0.5" stop-color="#3FF794"/>
<stop offset="1" stop-color="#20EFF6"/>
</linearGradient>
</defs>
</svg>
