<svg width="22" height="22" viewBox="0 0 22 22" fill="none" xmlns="http://www.w3.org/2000/svg">
<path fill-rule="evenodd" clip-rule="evenodd" d="M16.9428 18.1409L16.9435 18.1394L16.9594 18.0995L19.7083 4.24035V4.19533C19.7083 3.85002 19.5807 3.54857 19.3031 3.36775C19.0601 3.20948 18.7807 3.1982 18.5848 3.21307C18.3776 3.2288 18.1822 3.28051 18.047 3.32356C17.9774 3.3457 17.9192 3.36704 17.8776 3.38318C17.8567 3.39128 17.8397 3.39816 17.8274 3.40328L17.8153 3.40837L2.48879 9.42073L2.48457 9.42224C2.47629 9.42526 2.46534 9.42934 2.45212 9.43448C2.42576 9.44475 2.38989 9.45943 2.34774 9.47853C2.26498 9.51604 2.15064 9.57392 2.03468 9.65333C1.83773 9.7882 1.46271 10.1075 1.52603 10.6137C1.57849 11.033 1.86751 11.2993 2.06237 11.4372C2.16682 11.5111 2.26675 11.5644 2.33993 11.5992C2.377 11.6168 2.4085 11.6304 2.43195 11.6399C2.44371 11.6447 2.45354 11.6485 2.46115 11.6514L2.47089 11.6551L2.47712 11.6574L5.15859 12.5601C5.14954 12.7283 5.16623 12.8999 5.21084 13.0691L6.55402 18.1643C6.71328 18.7685 7.25982 19.1893 7.88459 19.1888C8.44461 19.1884 8.94128 18.8497 9.15229 18.3442L11.2493 16.1019L14.8509 18.8632L14.9021 18.8855C15.2293 19.0283 15.535 19.0735 15.8146 19.0353C16.0937 18.9972 16.3155 18.8802 16.4821 18.7469C16.646 18.6157 16.7584 18.4677 16.8291 18.3562C16.865 18.2996 16.8917 18.2498 16.9103 18.2123C16.9196 18.1935 16.927 18.1776 16.9325 18.1652L16.9394 18.1492L16.9418 18.1433L16.9428 18.1409ZM6.54038 12.7186C6.50985 12.6028 6.55777 12.4806 6.65887 12.4164L15.754 6.64054C15.754 6.64054 16.289 6.31577 16.2699 6.64054C16.2699 6.64054 16.3654 6.6979 16.0787 6.96531C15.8068 7.2193 9.59632 13.2153 8.96791 13.822C8.93164 13.857 8.90999 13.8972 8.89721 13.946L7.88355 17.8138L6.54038 12.7186Z" fill="black"/>
</svg>
